<svg width="22" height="22" viewBox="0 0 22 22" fill="none" xmlns="http://www.w3.org/2000/svg">
<g opacity="0.5">
<path d="M3.87524 16.0623C3.87524 16.4601 4.03327 16.8417 4.31457 17.1229C4.59586 17.4042 4.97738 17.5623 5.37519 17.5623C5.773 17.5623 6.15452 17.4042 6.43582 17.1229C6.71711 16.8417 6.87514 16.4601 6.87514 16.0623C6.87514 15.6645 6.71711 15.283 6.43582 15.0017C6.15452 14.7204 5.773 14.5624 5.37519 14.5624C4.97738 14.5624 4.59586 14.7204 4.31457 15.0017C4.03327 15.283 3.87524 15.6645 3.87524 16.0623Z" fill="white"/>
<path d="M18.8749 11.5625H16.25C16.1505 11.5625 16.0552 11.523 15.9848 11.4527C15.9145 11.3823 15.875 11.2869 15.875 11.1875V9.09507C15.8747 8.79681 15.756 8.51086 15.545 8.3001L14.6151 7.37013C14.5877 7.33468 14.5728 7.29116 14.5728 7.24638C14.5728 7.2016 14.5877 7.15808 14.6151 7.12264C14.7094 6.99694 14.7619 6.84478 14.765 6.68765V6.12517C14.765 6.07545 14.7848 6.02776 14.82 5.99259C14.8551 5.95743 14.9028 5.93768 14.9525 5.93768H15.7025C15.8485 5.94343 15.9866 6.005 16.0885 6.10966C16.1904 6.21433 16.2482 6.35411 16.25 6.50016V6.87515C16.25 7.02432 16.3093 7.16739 16.4147 7.27288C16.5202 7.37836 16.6633 7.43763 16.8125 7.43763C16.9617 7.43763 17.1047 7.37836 17.2102 7.27288C17.3157 7.16739 17.375 7.02432 17.375 6.87515C17.375 6.32816 17.1577 5.80357 16.7709 5.41679C16.3841 5.03001 15.8595 4.81272 15.3125 4.81272H15.02C14.9525 4.8092 14.8869 4.78883 14.8293 4.75346C14.7716 4.71809 14.7238 4.66884 14.69 4.61022C14.6567 4.55693 14.6102 4.51308 14.5551 4.48288C14.4999 4.45268 14.4379 4.43713 14.3751 4.43773H12.1251C11.9701 4.43835 11.8191 4.487 11.6928 4.57698C11.5666 4.66697 11.4713 4.79386 11.4202 4.94021C11.3931 5.01209 11.3449 5.07414 11.2821 5.11829C11.2192 5.16243 11.1445 5.18662 11.0677 5.1877H7.4378C7.23889 5.1877 7.04814 5.26672 6.90749 5.40737C6.76684 5.54801 6.68783 5.73877 6.68783 5.93768C6.68783 6.13658 6.76684 6.32734 6.90749 6.46799C7.04814 6.60864 7.23889 6.68765 7.4378 6.68765H11.1877C11.2374 6.68765 11.2851 6.70741 11.3202 6.74257C11.3554 6.77773 11.3752 6.82542 11.3752 6.87515V7.06264C11.3752 7.16209 11.4147 7.25747 11.485 7.32779C11.5553 7.39812 11.6507 7.43763 11.7501 7.43763H12.4101C12.4593 7.43703 12.5081 7.44673 12.5533 7.4661C12.5985 7.48547 12.6391 7.5141 12.6726 7.55012L14.2626 9.14007C14.2986 9.17355 14.3272 9.2142 14.3466 9.25941C14.366 9.30462 14.3757 9.35338 14.3751 9.40256V11.1875C14.3751 11.2869 14.3356 11.3823 14.2652 11.4527C14.1949 11.523 14.0995 11.5625 14.0001 11.5625H13.0626C12.9632 11.5625 12.8678 11.523 12.7974 11.4527C12.7271 11.3823 12.6876 11.2869 12.6876 11.1875V9.31256C12.6876 9.0142 12.5691 8.72806 12.3581 8.51709C12.1472 8.30612 11.861 8.1876 11.5627 8.1876H8.51026C8.16154 8.18605 7.81934 8.28217 7.52244 8.46509C7.22553 8.648 6.98577 8.9104 6.83032 9.22256L5.75036 11.3525C5.71943 11.4156 5.6714 11.4688 5.61173 11.5059C5.55206 11.543 5.48315 11.5626 5.41287 11.5625H3.87542C3.37816 11.5625 2.90126 11.76 2.54964 12.1116C2.19803 12.4633 2.00049 12.9402 2.00049 13.4374L2.00049 15.3124C2.00049 15.5113 2.0795 15.702 2.22015 15.8427C2.3608 15.9833 2.55156 16.0623 2.75046 16.0623C2.84016 16.0614 2.92657 16.0284 2.99399 15.9692C3.06142 15.91 3.1054 15.8287 3.11795 15.7398C3.18154 15.2148 3.42806 14.7289 3.81425 14.3675C4.20043 14.0061 4.70158 13.7924 5.2297 13.7637C5.75782 13.7351 6.27915 13.8934 6.70216 14.2109C7.12516 14.5284 7.42279 14.9847 7.5428 15.4998C7.57786 15.6718 7.67211 15.826 7.80914 15.9356C7.94618 16.0453 8.11732 16.1034 8.29277 16.0998H11.4877C11.6631 16.1034 11.8343 16.0453 11.9713 15.9356C12.1083 15.826 12.2026 15.6718 12.2376 15.4998C12.3695 15.0264 12.6528 14.6091 13.0442 14.3118C13.4356 14.0145 13.9136 13.8536 14.4051 13.8536C14.8966 13.8536 15.3745 14.0145 15.7659 14.3118C16.1573 14.6091 16.4406 15.0264 16.5725 15.4998C16.6075 15.6718 16.7018 15.826 16.8388 15.9356C16.9759 16.0453 17.147 16.1034 17.3225 16.0998H19.2499C19.4488 16.0998 19.6396 16.0208 19.7802 15.8802C19.9208 15.7395 19.9999 15.5488 19.9999 15.3499V12.7249C20.0049 12.5741 19.9795 12.4238 19.9252 12.2829C19.871 12.1421 19.7889 12.0136 19.6839 11.9051C19.579 11.7967 19.4532 11.7104 19.3142 11.6516C19.1753 11.5927 19.0258 11.5624 18.8749 11.5625ZM11.1877 10.8125C11.1877 11.0114 11.1087 11.2022 10.968 11.3428C10.8274 11.4835 10.6366 11.5625 10.4377 11.5625H7.94778C7.88307 11.5629 7.81935 11.5465 7.76284 11.5149C7.70633 11.4834 7.65895 11.4378 7.62529 11.3825C7.5937 11.3278 7.57706 11.2657 7.57706 11.2025C7.57706 11.1393 7.5937 11.0772 7.62529 11.0225L8.08278 10.1C8.14567 9.97521 8.2422 9.87045 8.36146 9.79756C8.48073 9.72468 8.61799 9.68658 8.75775 9.68755H10.4527C10.6516 9.68755 10.8424 9.76656 10.983 9.90721C11.1237 10.0479 11.2027 10.2386 11.2027 10.4375L11.1877 10.8125Z" fill="white"/>
<path d="M12.875 16.0623C12.875 16.4601 13.033 16.8417 13.3143 17.1229C13.5956 17.4042 13.9771 17.5623 14.3749 17.5623C14.7728 17.5623 15.1543 17.4042 15.4356 17.1229C15.7169 16.8417 15.8749 16.4601 15.8749 16.0623C15.8749 15.6645 15.7169 15.283 15.4356 15.0017C15.1543 14.7204 14.7728 14.5624 14.3749 14.5624C13.9771 14.5624 13.5956 14.7204 13.3143 15.0017C13.033 15.283 12.875 15.6645 12.875 16.0623Z" fill="white"/>
</g>
</svg>
