<svg width="22" height="22" viewBox="0 0 22 22" fill="none" xmlns="http://www.w3.org/2000/svg">
<g opacity="0.5">
<path fill-rule="evenodd" clip-rule="evenodd" d="M13.0605 5.31059C12.8978 5.92903 12.8301 6.64903 12.8262 7.43282H16.5173C16.5811 6.78704 16.5485 6.22458 16.4457 5.72332C16.1553 4.30286 15.6476 3.90706 14.6594 3.00089C13.8612 3.799 13.3652 4.15834 13.0605 5.31059ZM5.59499 5.31059C5.43224 5.92903 5.36454 6.64903 5.36063 7.43282H9.05174C9.11553 6.78704 9.08298 6.22458 8.98013 5.72332C8.69109 4.30286 8.18202 3.90706 7.19381 3.00089C6.3957 3.799 5.89965 4.15834 5.59499 5.31059ZM5.38537 18.0296H5.42573V16.9958H5.28251C5.0117 16.9958 4.78906 16.7732 4.78906 16.5024V8.99128C4.78906 8.72047 5.0104 8.49783 5.28251 8.49783H9.16501C9.43582 8.49783 9.65846 8.72047 9.65846 8.99128V16.5024C9.65846 16.7732 9.43582 16.9958 9.16501 16.9958H9.02179V18.0296H9.06215C9.32906 18.0296 9.54779 18.2483 9.54779 18.5152C9.54779 18.7822 9.32906 19.0009 9.06215 19.0009H5.38537C5.11846 19.0009 4.89973 18.7822 4.89973 18.5152C4.90103 18.247 5.11846 18.0296 5.38537 18.0296ZM12.8509 18.0296H12.8913V16.9958H12.7481C12.4772 16.9958 12.2546 16.7732 12.2546 16.5024V8.99128C12.2546 8.72047 12.4759 8.49783 12.7481 8.49783H16.6305C16.9014 8.49783 17.124 8.72047 17.124 8.99128V16.5024C17.124 16.7732 16.9014 16.9958 16.6305 16.9958H16.4873V18.0296H16.5277C16.7946 18.0296 17.0133 18.2483 17.0133 18.5152C17.0133 18.7822 16.7946 19.0009 16.5277 19.0009H12.8509C12.584 19.0009 12.3653 18.7822 12.3653 18.5152C12.3653 18.247 12.584 18.0296 12.8509 18.0296Z" fill="white"/>
</g>
</svg>
