<svg width="22" height="22" viewBox="0 0 22 22" fill="none" xmlns="http://www.w3.org/2000/svg">
<path d="M15.6309 18.59C14.7325 19.4608 13.7517 19.3233 12.8075 18.9108C11.8084 18.4892 10.8917 18.4708 9.83753 18.9108C8.51753 19.4792 7.82086 19.3142 7.03253 18.59C2.5592 13.9792 3.2192 6.9575 8.29753 6.70083C9.53503 6.765 10.3967 7.37917 11.1209 7.43417C12.2025 7.21417 13.2384 6.58167 14.3934 6.66417C15.7775 6.77417 16.8225 7.32417 17.51 8.31417C14.65 10.0283 15.3284 13.7958 17.95 14.85C17.4275 16.225 16.7492 17.5908 15.6217 18.5992L15.6309 18.59ZM11.0292 6.64583C10.8917 4.60167 12.5509 2.915 14.4575 2.75C14.7234 5.115 12.3125 6.875 11.0292 6.64583Z" fill="#D4D4D5"/>
</svg>
