<svg width="22" height="22" viewBox="0 0 22 22" fill="none" xmlns="http://www.w3.org/2000/svg">
<g opacity="0.5">
<path d="M8.26958 7.97192L3.62406 8.64547L3.54175 8.66221C3.00002 8.80601 2.8171 9.48242 3.21252 9.87967C3.21544 9.8826 3.21844 9.88552 3.22136 9.88838L6.58684 13.1643L5.79315 17.7917L5.7837 17.8718C5.75057 18.4313 6.33563 18.8169 6.83676 18.5658C6.84111 18.5636 6.84539 18.5614 6.84975 18.5591L11.0045 16.3747L15.1498 18.5591L15.2226 18.5926C15.7442 18.798 16.2925 18.3619 16.2096 17.8075C16.2088 17.8022 16.208 17.7969 16.2071 17.7917L15.4127 13.1643L18.7797 9.8877L18.8364 9.8258C19.1897 9.39059 18.9394 8.73615 18.3859 8.64779C18.3825 8.64724 18.379 8.6467 18.3755 8.64615L13.7299 7.97192L11.6533 3.76323C11.4055 3.26048 10.7063 3.21443 10.3948 3.68038C10.3771 3.70691 10.3611 3.73459 10.347 3.76323L8.26958 7.97192Z" fill="white"/>
</g>
</svg>
