<svg width="70" height="24" viewBox="0 0 70 24" fill="none" xmlns="http://www.w3.org/2000/svg">
<path d="M16.577 8.08789C16.602 8.0882 16.6267 8.08901 16.6516 8.09191C16.7688 8.10553 16.8806 8.16548 16.9518 8.26077C16.9926 8.31548 17.0141 8.38143 17.0005 8.44937C16.9807 8.54857 16.9162 8.59286 16.8354 8.64472C16.7149 8.60725 16.5669 8.56952 16.4714 8.48359C16.4046 8.42359 16.3929 8.38306 16.3848 8.29809C16.4269 8.1904 16.4814 8.14967 16.577 8.08789Z" fill="#737373"/>
<path d="M33.8375 14.6974C34.0327 14.5304 34.0204 14.2212 34.2371 14.0704C34.271 14.0469 34.2866 14.0583 34.3251 14.0656L34.3543 14.1504C34.3467 14.314 34.2137 14.4949 34.0987 14.6057C34.1164 14.7117 34.0087 14.8433 33.9914 14.9525C33.9653 15.1174 34.0098 15.2862 33.9786 15.456C33.9123 15.5015 33.8884 15.4941 33.8098 15.4945C33.7403 15.3295 33.7817 15.0792 33.7626 14.8981C33.7406 14.6893 33.4687 14.2366 33.331 14.0727L33.3242 14.0648L33.5051 14.0542C33.5518 14.0748 33.5895 14.1024 33.6238 14.1405C33.7434 14.2735 33.8428 14.5184 33.8375 14.6974Z" fill="#737373"/>
<path d="M10.867 5.36089C10.9922 5.35306 11.136 5.33552 11.2604 5.34945C11.3438 5.35876 11.408 5.39084 11.4609 5.45557C11.467 5.54282 11.4576 5.58452 11.3981 5.65454C11.2124 5.87313 10.849 6.02516 10.5712 6.04809C10.3874 6.02791 10.1558 5.98545 10.0024 5.87684C9.95017 5.83982 9.90939 5.79462 9.90013 5.72964C9.89189 5.67233 9.89561 5.63547 9.93232 5.58833C10.0781 5.40101 10.6446 5.3883 10.867 5.36089Z" fill="#737373"/>
<path d="M43.6426 13.1172C43.7687 13.0963 43.9211 13.0819 44.0457 13.1116C44.0819 13.4123 44.1024 15.3063 44.005 15.4869C43.9236 15.5264 43.8275 15.5117 43.7396 15.5069C43.5569 15.354 43.8083 13.4916 43.6426 13.1172Z" fill="#737373"/>
<path d="M20.6663 1.94141C20.8593 2.46593 21.0877 2.97912 21.3043 3.49425C21.3 3.51617 21.2957 3.54022 21.2863 3.56058C21.2585 3.62115 21.2198 3.65331 21.1596 3.6783C20.876 3.79606 20.3402 3.81363 20.0617 3.68839L20.041 3.44398C20.2267 2.93624 20.4497 2.43661 20.6663 1.94141Z" fill="#737373"/>
<path d="M6.84912 7.30908C6.86837 7.31007 6.88754 7.31198 6.90663 7.31483C7.07676 7.34066 7.52808 7.45796 7.62444 7.59749C7.65927 7.64793 7.66786 7.70457 7.65205 7.76386C7.57456 8.05395 6.89244 8.36508 6.64969 8.50476C6.52069 8.56669 6.36261 8.5971 6.21958 8.59847C6.12337 8.59944 6.08569 8.56364 6.02081 8.5011C5.97927 8.37815 5.99249 8.2794 6.04252 8.16006C6.17595 7.84156 6.52593 7.4392 6.84912 7.30908Z" fill="#737373"/>
<path d="M32.3185 14.0648C32.4631 14.052 32.6133 14.0467 32.7584 14.0464C32.9232 14.046 33.1541 14.0781 33.2726 14.2025C33.3253 14.2579 33.3502 14.3286 33.3474 14.4047C33.342 14.5501 33.2891 14.6313 33.1861 14.7246L33.1757 14.7338C33.1944 14.8568 33.3555 14.9143 33.3624 15.0447C33.3676 15.1411 33.317 15.2146 33.2569 15.2835C33.2555 15.3357 33.2516 15.3599 33.2132 15.3992C33.0569 15.5589 32.507 15.5002 32.293 15.4986C32.2957 15.4932 32.2984 15.4877 32.3013 15.4824C32.3045 15.4763 32.3081 15.4704 32.3113 15.4643C32.4096 15.2794 32.3768 14.2649 32.3185 14.0648ZM32.5124 14.8772C32.5607 14.9894 32.5954 15.1093 32.5464 15.2277C32.5402 15.2427 32.5332 15.257 32.5259 15.2715C32.6548 15.2723 32.9276 15.3058 33.033 15.2392L33.0446 15.2155C33.0991 15.1506 33.1294 15.1099 33.1416 15.0246C33.1098 14.95 33.0969 14.9283 33.0214 14.8962C32.8704 14.832 32.6706 14.8629 32.5124 14.8772ZM32.5121 14.2678C32.561 14.38 32.5926 14.4976 32.546 14.6166C32.5404 14.6309 32.534 14.6446 32.5274 14.6584C32.6286 14.6577 32.9188 14.6812 32.9919 14.6205C32.997 14.6162 33.001 14.6109 33.0056 14.6062C33.0727 14.5436 33.0978 14.5033 33.1184 14.4137C33.0828 14.3342 33.0594 14.3063 32.9748 14.2773C32.8303 14.2279 32.6599 14.2412 32.5121 14.2678Z" fill="#737373"/>
<path d="M8.6477 5.99617C8.7164 5.99372 8.78657 5.99327 8.85485 6.00186C9.09841 6.03252 9.59957 6.2115 9.74738 6.40742C9.75994 6.46971 9.77499 6.50962 9.75084 6.5714C9.6376 6.86062 8.90362 7.17537 8.62274 7.29903C8.36677 7.31464 7.99345 7.23583 7.76631 7.10825C7.6728 7.05578 7.58387 6.97696 7.5583 6.8685C7.53613 6.77449 7.56511 6.68235 7.61774 6.60389C7.79316 6.34249 8.34658 6.05911 8.6477 5.99617Z" fill="#737373"/>
<path d="M48.3848 13.1171C48.5112 13.0954 48.6463 13.0966 48.7746 13.0897C48.9377 13.4779 48.7178 14.3355 48.8466 14.8042C48.8808 14.9287 48.9449 15.0464 49.0626 15.1089C49.1883 15.1757 49.3502 15.1659 49.4823 15.1239C50.1146 14.9232 49.5823 13.6002 49.8217 13.1354C49.8883 13.0809 49.9072 13.0682 49.993 13.061C50.0802 13.0986 50.1125 13.1287 50.1578 13.2122C50.1622 13.3112 50.1464 13.368 50.1004 13.4555C50.1151 13.4792 50.129 13.5041 50.1388 13.5304C50.2368 13.7932 50.178 14.804 50.0592 15.0681C49.973 15.2598 49.8413 15.3992 49.6405 15.473C49.3934 15.5639 49.1034 15.544 48.8657 15.4332C48.0655 15.0604 48.6333 13.7386 48.3932 13.1369C48.3905 13.1302 48.3876 13.1237 48.3848 13.1171Z" fill="#737373"/>
<path d="M41.5801 13.1173C41.6869 13.0987 41.8876 13.0676 41.9837 13.1189C42.0134 13.3575 42.0566 13.9161 41.9382 14.1136C42.2544 14.1212 42.5718 14.1156 42.888 14.1147C43.0105 13.9379 42.9413 13.3174 42.9152 13.0992L43.2817 13.0964C43.2972 13.1587 43.3094 13.2226 43.3131 13.2869C43.3321 13.6175 43.3833 15.3508 43.2428 15.5107L42.9154 15.5084C42.9607 15.2529 42.9967 14.699 42.8912 14.461L41.9368 14.4623C42.0541 14.6563 42.0166 15.2559 41.9802 15.4869C41.9166 15.5308 41.7991 15.5108 41.7231 15.5072C41.6664 15.467 41.6396 15.4515 41.6207 15.3803C41.5845 15.2443 41.6157 15.0482 41.6191 14.9057C41.6282 14.5258 41.7024 13.4103 41.5801 13.1173Z" fill="#737373"/>
<path d="M15.0159 6.59645C15.0743 6.59487 15.1354 6.5935 15.1936 6.60112C15.4808 6.6389 15.8847 6.97806 16.0564 7.20199C16.1395 7.31045 16.2027 7.43604 16.1815 7.57648C16.1635 7.69592 16.0813 7.78882 15.9844 7.85517C15.76 8.00889 15.5178 8.05277 15.2526 8.00426C14.9926 7.90536 14.1132 7.65738 14.0031 7.40131C13.9758 7.33785 13.9751 7.28365 14.0035 7.21984C14.1099 6.97973 14.7723 6.69712 15.0159 6.59645Z" fill="#737373"/>
<path d="M47.1252 13.0831C47.2851 13.0611 47.4431 13.0566 47.5969 13.113C47.7912 13.1841 48.0451 13.377 48.1275 13.573C48.1591 13.6483 48.1486 13.6871 48.1203 13.7607C48.0318 13.8207 47.9096 13.7944 47.808 13.7864C47.7276 13.6586 47.6356 13.5384 47.494 13.4752C47.3899 13.4287 47.2728 13.4193 47.1662 13.4637C47.0393 13.5166 46.9474 13.6325 46.8971 13.7577C46.7783 14.0532 46.7893 14.6128 46.9197 14.907C46.9649 15.009 47.0313 15.099 47.1387 15.1393C47.2517 15.1816 47.4371 15.1546 47.5421 15.0991C47.6659 15.0339 47.8126 14.8554 47.8512 14.7218C47.847 14.6963 47.847 14.6616 47.8316 14.6408C47.7314 14.5049 47.5296 14.528 47.3798 14.5053C47.3364 14.4988 47.3086 14.4387 47.2827 14.4034C47.2973 14.3634 47.3263 14.2495 47.3537 14.2232C47.4894 14.0934 47.9453 14.16 48.137 14.1589C48.1447 14.1731 48.152 14.1876 48.1581 14.2026C48.2431 14.4103 48.2148 14.8049 48.1238 15.008C48.1117 15.0348 48.0983 15.061 48.0836 15.0865C48.069 15.1121 48.0531 15.1368 48.0359 15.1608C48.0188 15.1847 48.0005 15.2077 47.9811 15.2299C47.9616 15.252 47.9412 15.2731 47.9196 15.2932C47.8981 15.3133 47.8757 15.3323 47.8523 15.3502C47.8289 15.3681 47.8046 15.3847 47.7796 15.4002C47.7545 15.4157 47.7287 15.4298 47.7023 15.4428C47.6758 15.4556 47.6488 15.4672 47.6212 15.4774C47.4037 15.5592 47.148 15.5592 46.9368 15.4581C46.7264 15.3572 46.5815 15.1654 46.5094 14.9468C46.4112 14.649 46.4074 13.8118 46.5559 13.5245C46.6757 13.2926 46.8831 13.1607 47.1252 13.0831Z" fill="#737373"/>
<path d="M45.7432 14.8131C45.9767 14.4206 45.7056 13.6003 45.8401 13.1175C45.9418 13.0972 46.0284 13.1076 46.1302 13.122L46.1631 13.1682C46.1977 13.4093 46.2106 15.2507 46.1311 15.3852C46.1446 15.431 46.1489 15.459 46.1367 15.5056C46.0544 15.52 45.9738 15.5316 45.8959 15.4935C45.4361 15.2683 45.1283 14.112 44.6706 13.7922C44.7795 14.0723 44.763 14.8832 44.7336 15.2102C44.723 15.3266 44.6953 15.4676 44.6001 15.5441C44.5577 15.5783 44.5441 15.5691 44.4919 15.5628C44.1487 15.3087 44.5355 13.6134 44.3256 13.1367C44.3227 13.13 44.3195 13.1235 44.3164 13.1169C44.3923 13.1051 44.4689 13.0938 44.5459 13.0938C44.6098 13.0937 44.6815 13.0931 44.7286 13.1423C44.8902 13.3114 45.7465 14.6346 45.7432 14.8131Z" fill="#737373"/>
<path d="M50.3691 13.1171C50.431 13.1079 50.4951 13.0971 50.5577 13.0947C50.6379 13.0916 50.7328 13.0897 50.7926 13.1508C50.9592 13.3207 51.8069 14.6325 51.8013 14.8131C51.9767 14.5239 51.8277 13.6542 51.8577 13.2829C51.8643 13.1969 51.9096 13.1615 51.9691 13.1068C52.0667 13.0834 52.0967 13.079 52.1938 13.1057C52.2375 13.1704 52.2355 13.2511 52.2401 13.3267C52.2548 13.566 52.2848 15.3259 52.2263 15.4329C52.2126 15.4579 52.1765 15.4901 52.1567 15.5124C52.0748 15.516 51.9818 15.5264 51.9091 15.4806C51.5302 15.241 51.1372 14.1357 50.7306 13.7725C50.7859 13.849 50.7885 13.9403 50.791 14.0314C50.7985 14.2995 50.8545 15.3162 50.6917 15.4889C50.5936 15.5274 50.5729 15.5314 50.4692 15.5153C50.292 15.3374 50.5555 13.515 50.3789 13.1369C50.3758 13.1302 50.3724 13.1237 50.3691 13.1171Z" fill="#737373"/>
<path d="M10.9526 9.00777C11.2412 8.99333 12.2069 9.33563 12.4213 9.52661C12.497 9.59414 12.5076 9.65012 12.514 9.74551C12.3925 10.0426 11.6916 10.3242 11.3973 10.4611C10.9902 10.4786 10.3593 10.2543 10.0001 10.0691C9.88679 10.0106 9.80569 9.94778 9.76562 9.82417C9.76674 9.77139 9.77137 9.72289 9.8001 9.67707C9.93068 9.46865 10.7111 9.06772 10.9526 9.00777Z" fill="#737373"/>
<path d="M10.6739 6.77393C10.6799 6.77398 10.686 6.77393 10.692 6.77408C10.9455 6.77896 12.0277 7.2013 12.2001 7.37794C12.2258 7.45452 12.2314 7.4771 12.1929 7.54945C12.0689 7.78254 11.2797 8.18718 11.0267 8.2694C10.9405 8.27037 10.8498 8.27169 10.7646 8.25679C10.5428 8.21794 9.54536 7.83679 9.43588 7.68501C9.42861 7.60599 9.42597 7.57299 9.46822 7.5016C9.63103 7.22662 10.3715 6.85254 10.6739 6.77393Z" fill="#737373"/>
<path d="M12.9543 7.79401C13.0205 7.78747 13.0869 7.78403 13.1535 7.78369C13.4328 7.78344 14.391 8.1471 14.5802 8.3512C14.6448 8.42091 14.6491 8.47517 14.643 8.56395C14.5193 8.77379 13.7804 9.12001 13.5355 9.23651C13.4353 9.24169 13.3299 9.24571 13.2301 9.2331C12.9685 9.20005 12.0729 8.87915 11.9249 8.67042C11.8703 8.59323 11.883 8.54518 11.8964 8.45834C12.0792 8.16459 12.6447 7.94742 12.9543 7.79401Z" fill="#737373"/>
<path d="M8.59198 8.02734C8.64086 8.02958 8.68947 8.03445 8.73781 8.04194C8.95285 8.07575 9.98856 8.47862 10.1006 8.63207C10.1077 8.71775 10.1056 8.751 10.0544 8.82468C9.87918 9.07658 9.15029 9.45387 8.854 9.51392C8.85085 9.51397 8.84769 9.51407 8.84449 9.51397C8.47707 9.50777 7.74705 9.23497 7.43378 9.04429C7.34861 8.99248 7.32268 8.96929 7.29883 8.87278C7.31134 8.82814 7.32624 8.78258 7.35288 8.74414C7.52546 8.49555 8.29452 8.08963 8.59198 8.02734Z" fill="#737373"/>
<path d="M15.4492 8.77319C15.5667 8.76643 15.6827 8.76272 15.7974 8.79399C16.0301 8.8575 16.6673 9.07299 16.7779 9.2778C16.8504 9.41214 16.8342 9.58024 16.7889 9.72058C16.7121 9.9588 16.5361 10.2126 16.3061 10.3241C16.1468 10.4013 15.9846 10.3574 15.8286 10.3002C15.5464 10.1894 14.4641 9.84358 14.3617 9.62097C14.3331 9.55863 14.3331 9.50753 14.3586 9.44407C14.4589 9.19523 15.1969 8.87336 15.4492 8.77319Z" fill="#737373"/>
<path d="M12.7458 5.52593C13.1209 5.49176 13.6449 5.6857 13.987 5.83575C14.1037 5.8869 14.279 5.98148 14.32 6.10915C14.3437 6.18268 14.3337 6.24446 14.3015 6.31285C14.1639 6.60538 13.4395 6.91763 13.1448 7.02817C13.068 7.03641 12.9885 7.04282 12.9119 7.03061C12.6245 6.98505 11.7439 6.66553 11.578 6.43763C11.561 6.36044 11.5473 6.31758 11.5826 6.24238C11.7143 5.96195 12.4605 5.63754 12.7458 5.52593Z" fill="#737373"/>
<path d="M6.33037 9.3125C6.44534 9.3035 6.57073 9.30386 6.68386 9.32887C6.92834 9.38293 7.77647 9.65704 7.895 9.85647C7.93105 9.91708 7.93796 9.96894 7.91844 10.0369C7.84476 10.2932 6.91761 10.7228 6.68305 10.8593C6.44656 10.9644 6.23834 10.9268 6.00439 10.8413C5.74903 10.748 5.32364 10.5831 5.20578 10.3141C5.16683 10.2251 5.16581 10.131 5.20273 10.0412C5.34154 9.70377 6.0111 9.45248 6.33037 9.3125Z" fill="#737373"/>
<path d="M36.696 14.6508C36.9536 14.4451 37.1269 13.4612 37.3884 13.1512C37.4523 13.0756 37.6276 13.0952 37.7209 13.0903C37.828 13.4041 37.7931 15.1417 37.7408 15.5233C37.6152 15.5047 37.4736 15.5126 37.3459 15.5097C37.3527 15.4906 37.3588 15.4715 37.3635 15.4517C37.4056 15.2752 37.4238 14.9661 37.3288 14.8087C37.3371 14.7961 37.3449 14.7839 37.3519 14.7704C37.4359 14.6078 37.4007 14.2027 37.3434 14.0341C37.3548 14.2039 37.0374 14.8661 36.9183 15.0238C36.8627 15.0972 36.7943 15.1668 36.6988 15.1774C36.445 15.2055 36.245 14.2113 35.9981 14.0186C35.9953 14.0164 35.9924 14.0143 35.9896 14.0121C35.991 14.0155 35.9925 14.0188 35.9938 14.0222C36.1226 14.3462 36.111 15.1759 36.0235 15.5105L35.6321 15.5061C35.6959 15.1737 35.6983 13.4159 35.625 13.1169C35.7443 13.0952 35.9269 13.0675 36.0349 13.1326C36.2164 13.4135 36.6493 14.3428 36.696 14.6508Z" fill="#737373"/>
<path d="M13.3434 9.98981C13.4108 9.98392 13.4801 9.98122 13.5476 9.98742C13.7929 10.0098 15.1403 10.5275 15.2773 10.6963C15.2889 10.7626 15.2954 10.7892 15.2647 10.8499C15.13 11.1162 14.4187 11.4515 14.1396 11.5411C13.994 11.5585 13.8583 11.5414 13.7186 11.5004C13.4417 11.419 12.3576 11.0414 12.2505 10.8327C12.2183 10.7699 12.2132 10.7145 12.2396 10.6478C12.3343 10.408 13.0967 10.0951 13.3434 9.98981Z" fill="#737373"/>
<path d="M8.74286 10.2615C8.769 10.2588 8.79515 10.2565 8.82132 10.2544C8.90806 10.2478 8.99069 10.2453 9.07652 10.2636C9.2762 10.3063 10.2306 10.6538 10.3431 10.7577C10.4025 10.8126 10.4051 10.8393 10.4069 10.9183C10.2631 11.2311 9.31794 11.7152 8.97661 11.8462C8.92332 11.8582 8.8685 11.8691 8.81384 11.8715C8.56042 11.8828 7.57296 11.521 7.39316 11.3435C7.32737 11.2785 7.31593 11.2396 7.31445 11.1515C7.48316 10.8962 8.43396 10.3881 8.74286 10.2615Z" fill="#737373"/>
<path d="M11.2053 11.2063C11.2567 11.2018 11.3077 11.1999 11.3593 11.1997C11.6403 11.1985 12.9183 11.6771 13.1082 11.8822C13.1699 11.9489 13.1741 11.9855 13.1697 12.0713C12.9891 12.3119 12.0366 12.7805 11.7295 12.9223C11.7026 12.9255 11.6756 12.928 11.6485 12.9296C11.3354 12.948 10.0885 12.497 9.8563 12.2769C9.78547 12.2097 9.77215 12.1601 9.77148 12.0675C9.92987 11.8454 10.9186 11.3317 11.2053 11.2063Z" fill="#737373"/>
<path d="M40.3783 13.0831C40.7169 13.0354 41.0562 13.106 41.3319 13.3108C41.3326 13.3235 41.3332 13.3273 41.3321 13.3412C41.323 13.452 41.219 13.5588 41.1367 13.6246C41.0629 13.566 40.9662 13.5235 40.8761 13.4959C40.7062 13.4436 40.4534 13.4168 40.2937 13.5073C40.236 13.54 40.1937 13.5924 40.1788 13.6575C40.1596 13.7412 40.1724 13.8529 40.2217 13.9246C40.3292 14.0804 40.6134 14.1041 40.7856 14.1418C40.9877 14.1861 41.2277 14.2346 41.3435 14.427C41.4084 14.5348 41.4415 14.694 41.4138 14.8163C41.4525 14.9257 41.4278 15.0507 41.3771 15.1526C41.293 15.3217 41.1274 15.4191 40.953 15.4743C40.4718 15.6267 40.1485 15.4755 39.7269 15.259L39.6846 15.2745C39.6908 15.3495 39.702 15.4255 39.6861 15.4999C39.6534 15.491 39.6215 15.4812 39.5878 15.4768L39.5785 15.5215C39.3291 15.4604 38.3812 15.5104 38.0674 15.5104C38.0757 15.4971 38.0832 15.4837 38.0878 15.4686C38.1101 15.3972 38.0856 13.4871 38.0727 13.2706C38.069 13.2087 38.0527 13.1569 38.0254 13.1014L38.6029 13.0959C38.9326 13.0941 39.3354 13.0473 39.6557 13.1101L39.6924 13.1734C39.6945 13.2484 39.7101 13.3569 39.6702 13.4218C39.2925 13.4953 38.8293 13.4414 38.443 13.4417C38.4609 13.4671 38.4756 13.4941 38.4837 13.5243C38.5267 13.6846 38.5307 13.9726 38.4441 14.1154C38.7799 14.1247 39.1382 14.0702 39.4682 14.1309C39.4818 14.1496 39.4924 14.1681 39.4959 14.1915C39.5092 14.2807 39.4918 14.3679 39.4442 14.4408C39.2987 14.5134 38.64 14.4597 38.4452 14.4612C38.4613 14.4861 38.4748 14.5114 38.484 14.5397C38.5362 14.6996 38.5197 15.0124 38.4456 15.1609L39.6595 15.1615C39.7538 15.1141 39.8342 15.0153 39.8861 14.925C40.1355 15.0594 40.3957 15.1893 40.6877 15.1534C40.846 15.1339 40.9442 15.0642 41.0363 14.9373C41.0928 14.8596 41.0974 14.8089 41.0826 14.7188C40.8843 14.4552 40.3965 14.4985 40.1136 14.3364C39.9637 14.2506 39.8443 14.1219 39.8022 13.9509C39.7599 13.7785 39.8014 13.5455 39.8967 13.3944C40.0105 13.2138 40.1788 13.1305 40.3783 13.0831Z" fill="#737373"/>
<path d="M54.8788 7.56562C54.9442 7.55772 55.0098 7.5527 55.0755 7.55057C55.7096 7.53399 56.9788 7.47374 57.532 7.60604C57.7511 7.65852 57.9606 7.75813 58.1238 7.91616C58.462 8.24357 58.5052 8.71869 58.5093 9.16411C58.5144 9.72318 58.5677 10.4799 58.1396 10.9106C57.7028 11.3498 56.9813 11.2715 56.4123 11.2713C56.4321 11.3028 56.4499 11.3355 56.4601 11.3714C56.4998 11.5103 56.483 11.6712 56.4138 11.797C56.4352 11.8283 56.4525 11.8617 56.4606 11.8989C56.512 12.1288 56.5191 13.6534 56.426 13.8157C55.8998 13.8076 55.372 13.8142 54.8457 13.8136C54.8788 13.7608 54.8869 13.7156 54.8894 13.6537C54.9443 12.362 54.895 11.0443 54.895 9.74936C54.895 9.12999 54.9566 8.12275 54.8788 7.56562ZM56.4311 8.61501C56.515 8.81723 56.512 9.96176 56.4352 10.1534C56.4327 10.1609 56.4291 10.1681 56.426 10.1756C56.423 10.1824 56.4205 10.1892 56.4179 10.196C56.5898 10.1983 56.7927 10.2207 56.9559 10.1641L57.0088 10.1044C57.1893 9.89753 57.1501 9.37411 57.1318 9.10264C57.1211 8.94796 57.1003 8.80798 57.0154 8.6745C56.8816 8.5604 56.5949 8.60642 56.4311 8.61501Z" fill="#F7A100"/>
<path d="M39.247 3.50349L39.4473 3.48779C39.5079 3.52968 39.5312 3.54721 39.5439 3.62222C39.5711 3.7816 39.5327 4.00672 39.5331 4.17445L39.5356 6.03397C39.5366 8.11165 39.5876 10.2026 39.5346 12.2789C39.5318 12.3869 39.532 12.4692 39.4706 12.5627C38.8971 12.4661 38.4457 12.3015 37.9506 12.0005C37.9007 11.8327 37.3949 11.4279 37.2882 10.9465C37.0918 10.0603 37.1798 8.80536 37.18 7.88263C37.1802 7.0831 37.1254 6.22587 37.2371 5.43427C37.2823 5.11424 37.3608 4.82267 37.5358 4.54947C37.9306 3.93309 38.5561 3.65507 39.247 3.50349Z" fill="#737373"/>
<path d="M40.2176 3.50363C40.4198 3.46483 40.6751 3.5205 40.8696 3.57822C41.4904 3.76237 42.0169 4.07038 42.3316 4.65824C42.3624 4.71665 42.3906 4.77627 42.4163 4.83711C42.442 4.89795 42.465 4.95978 42.4853 5.0226C42.5057 5.08542 42.5233 5.149 42.5382 5.21334C42.5531 5.27767 42.5652 5.34254 42.5745 5.40793C42.6931 6.21615 42.6424 7.06159 42.6428 7.87591C42.6433 8.75867 42.748 10.166 42.4949 10.9968C42.4062 11.288 42.2174 11.7139 41.9356 11.8647C41.9265 11.8891 41.9153 11.9125 41.8979 11.9322C41.5089 12.3729 40.7657 12.5172 40.209 12.5627C40.2264 12.5325 40.2399 12.5013 40.2499 12.4678C40.3224 12.2238 40.2672 10.4918 40.2673 10.0846C40.2678 7.96545 40.3153 5.83464 40.2652 3.71671C40.2633 3.63449 40.2571 3.57695 40.2176 3.50363Z" fill="#737373"/>
<path d="M58.7693 7.56552C59.26 7.498 60.7946 7.51579 61.2863 7.57803C61.5019 7.60529 61.7607 7.65247 61.9493 7.76617C62.1695 7.89847 62.3053 8.14127 62.3673 8.38412C62.4827 8.83549 62.499 9.68459 62.2508 10.0899C62.081 10.3672 61.7907 10.4282 61.4983 10.4987C61.6946 10.5255 61.9031 10.5737 62.0739 10.6773C62.2702 10.7968 62.3632 10.9552 62.4161 11.1731C62.4934 11.4938 62.559 13.5798 62.4146 13.816C61.9142 13.8058 61.4119 13.8154 60.9115 13.8161C60.9237 13.7965 60.9329 13.7775 60.939 13.7552C60.9812 13.6083 60.9715 13.3853 60.8947 13.2524C61.0269 13.04 60.9654 11.5848 60.9456 11.2789C60.9385 11.166 60.8998 11.0529 60.8108 10.9785C60.7153 10.8989 60.5841 10.8794 60.4641 10.8888C60.191 11.1078 60.5225 13.4264 60.3181 13.7958C60.3151 13.8017 60.3115 13.8074 60.308 13.8133L58.75 13.8154C58.7688 13.7769 58.7851 13.7361 58.7886 13.6932C58.812 13.4178 58.7917 13.1241 58.7917 12.8472L58.7927 11.1485L58.7983 8.59544C58.7968 8.27378 58.8425 7.87193 58.7693 7.56552ZM60.31 8.581C60.458 8.83005 60.2307 9.89225 60.4829 9.94839C60.5347 9.95998 60.7066 9.92225 60.7498 9.89149C60.7742 9.87425 60.788 9.85956 60.8022 9.83352C60.9598 9.70585 60.9598 9.53866 60.9802 9.35022C61.0041 9.12588 60.9827 8.88303 60.8388 8.69825C60.7758 8.6171 60.6842 8.56325 60.581 8.55588C60.4931 8.54963 60.3959 8.5602 60.31 8.581Z" fill="#F7A100"/>
<path d="M64.4235 7.43023C64.9986 7.37405 65.6841 7.43471 66.1508 7.8094C66.5063 8.0945 66.6374 8.53586 66.6842 8.97493C66.7422 9.51223 66.7061 10.084 66.7066 10.6251C66.7071 11.2529 66.762 11.9446 66.6619 12.5636C66.6171 12.8388 66.5352 13.1172 66.3578 13.3365C66.0105 13.7656 65.5402 13.8819 65.0149 13.9363C64.5263 13.9836 63.9288 13.9219 63.5179 13.6364C63.1564 13.3856 62.9724 12.9975 62.8991 12.573C62.801 12.0046 62.803 9.34042 62.8981 8.78852C62.9454 8.51669 63.039 8.25096 63.2002 8.02525C63.4813 7.63276 63.973 7.50615 64.4235 7.43023ZM64.659 8.47957C64.5461 8.57013 64.508 8.60913 64.4927 8.75323C64.4291 9.36101 64.4759 10.0195 64.4749 10.6319C64.4744 11.2658 64.4246 11.9433 64.4891 12.5725C64.4973 12.6546 64.511 12.7301 64.5644 12.7957C64.6102 12.8521 64.6971 12.888 64.7693 12.8907C64.7835 12.8913 64.7973 12.8892 64.8115 12.8864C64.8964 12.8648 64.9747 12.8461 65.0235 12.7669C65.1095 12.6273 65.1247 8.96201 65.053 8.661C65.0496 8.64622 65.0447 8.63193 65.0383 8.61813C65.0322 8.60434 65.0246 8.5913 65.0154 8.57903C65.0066 8.56679 64.9966 8.55554 64.9854 8.54527C64.9742 8.53503 64.9622 8.526 64.9493 8.51817C64.8593 8.46406 64.7591 8.47123 64.659 8.47957Z" fill="#F7A100"/>
<path d="M48.375 3.50333C49.0293 3.41237 49.8609 3.47774 50.5305 3.47882C50.5555 3.50742 50.5778 3.53814 50.5931 3.57325C50.7228 3.87263 51.1117 6.34911 51.126 6.75294C51.1285 6.82911 51.1102 6.90279 51.0822 6.97311C51.1137 6.93055 51.1493 6.88489 51.1702 6.83618C51.2612 6.62593 51.4137 5.44047 51.4727 5.12679C51.5668 4.62576 51.7259 4.09142 51.7753 3.58809C51.7788 3.55263 51.7676 3.51638 51.7549 3.48357C52.4841 3.46948 53.2153 3.48099 53.9439 3.48045C53.947 3.49281 53.949 3.49715 53.95 3.509C53.9668 3.67873 52.777 7.69688 52.6427 7.86986C52.6448 7.87586 52.6468 7.88186 52.6483 7.88796C52.7027 8.09272 52.3275 8.92474 52.2863 9.20277C52.2004 9.77994 52.3783 12.2771 52.1953 12.5612C51.4727 12.5379 50.7423 12.5588 50.0187 12.5581C50.0496 12.5112 50.0644 12.4677 50.069 12.4114C50.1136 11.8747 50.0754 11.3029 50.0748 10.7631C50.0744 10.2998 50.1194 9.78371 50.0583 9.3276C50.0047 8.92708 48.4837 3.63133 48.375 3.50333Z" fill="#737373"/>
<path d="M16.2261 10.8999C16.2695 11.0457 15.4254 12.9191 15.3234 13.1646L17.9015 13.1633C17.8665 13.3828 17.8194 13.5996 17.7603 13.8138C17.7012 14.028 17.6304 14.2383 17.5478 14.4446C17.5275 14.4953 17.5065 14.5457 17.4848 14.596C17.4632 14.6462 17.441 14.6961 17.4181 14.7457C17.3953 14.7954 17.3718 14.8447 17.3478 14.8938C17.3237 14.9428 17.299 14.9916 17.2737 15.04C17.2484 15.0885 17.2225 15.1366 17.196 15.1844C17.1696 15.2322 17.1425 15.2797 17.1148 15.3268C17.0872 15.374 17.0589 15.4207 17.0301 15.4672C17.0013 15.5136 16.9719 15.5597 16.9419 15.6054C16.912 15.6511 16.8815 15.6964 16.8504 15.7414C16.8193 15.7863 16.7877 15.8309 16.7555 15.8751C16.7233 15.9192 16.6906 15.963 16.6573 16.0063C16.624 16.0497 16.5902 16.0926 16.5559 16.1352C16.5216 16.1777 16.4867 16.2197 16.4513 16.2614C16.416 16.303 16.3801 16.3442 16.3437 16.385C16.3073 16.4258 16.2704 16.4661 16.233 16.5059C16.1956 16.5458 16.1577 16.5851 16.1193 16.6241C16.081 16.663 16.0421 16.7014 16.0028 16.7393C15.9634 16.7773 15.9236 16.8147 15.8834 16.8517C15.8431 16.8886 15.8024 16.9251 15.7613 16.961C15.7201 16.997 15.6785 17.0324 15.6365 17.0673C15.5944 17.1023 15.552 17.1366 15.5091 17.1705C15.4662 17.2044 15.4229 17.2377 15.3792 17.2705C15.3355 17.3033 15.2914 17.3355 15.2469 17.3672C15.2023 17.3989 15.1574 17.43 15.1122 17.4606C15.0669 17.4912 15.0212 17.5212 14.9752 17.5506C14.9292 17.5801 14.8828 17.609 14.836 17.6373C14.7893 17.6656 14.7422 17.6933 14.6948 17.7204C14.6474 17.7476 14.5996 17.7741 14.5515 17.8001C14.5034 17.826 14.455 17.8513 14.4063 17.8761C14.3576 17.9009 14.3086 17.925 14.2592 17.9485C14.2099 17.9721 14.1603 17.995 14.1104 18.0173C14.0606 18.0396 14.0104 18.0613 13.96 18.0823C13.2934 18.3898 12.5667 18.4931 11.8457 18.5816L11.8469 13.3616L16.2261 10.8999Z" fill="#737373"/>
<path d="M23.5574 3.48477C24.5689 3.46531 26.6791 3.39088 27.5846 3.6305C27.7837 3.68316 27.9622 3.77687 28.1221 3.90627C28.5811 4.27762 28.7485 4.83752 28.8075 5.40463C28.8683 5.98897 28.9095 6.96483 28.5207 7.43634C28.2686 7.74199 27.8498 7.7878 27.4816 7.82029C27.7363 7.86488 28.007 7.94395 28.2293 8.07875C28.5083 8.24797 28.6664 8.47078 28.7429 8.7871C28.8424 9.19805 28.9069 12.3372 28.7709 12.5615C28.0446 12.5425 27.3136 12.5594 26.5868 12.559C26.6022 12.5365 26.6151 12.5126 26.6215 12.4861C26.6603 12.326 26.6627 12.0392 26.5751 11.8986C26.5906 11.8738 26.6037 11.8492 26.6134 11.8215C26.6837 11.6208 26.6477 9.50929 26.6223 9.16927C26.6096 8.99807 26.5939 8.81319 26.5216 8.65536C26.3531 8.47546 26.1193 8.48766 25.8906 8.46982C25.9346 8.59312 25.9558 12.0643 25.9303 12.3579C25.9222 12.4508 25.9044 12.4975 25.8334 12.5562L25.7624 12.5433C25.5644 12.2278 23.6081 7.53473 23.5792 7.34293C23.5138 6.90885 23.5522 6.42758 23.5526 5.98683L23.5574 3.48477ZM25.875 5.09405C26.0824 5.5169 25.7782 6.56227 25.9449 7.01222C26.0968 7.04904 26.2717 7.05331 26.4128 6.97495C26.4414 6.95909 26.4607 6.93443 26.4738 6.90504C26.5708 6.83522 26.5872 6.7348 26.6057 6.62349C26.6642 6.26965 26.7407 5.56719 26.5232 5.26902C26.4499 5.16839 26.3564 5.0937 26.2309 5.07491C26.1177 5.05798 25.9883 5.08137 25.875 5.09405Z" fill="#737373"/>
<path d="M43.0959 3.50362C43.1141 3.50008 43.1325 3.49713 43.1509 3.49475C43.5396 3.44336 43.9766 3.47821 44.37 3.48002C45.2132 3.4839 46.1601 3.41678 46.9868 3.59045C47.253 3.64639 47.5066 3.75205 47.7208 3.92192C48.1644 4.27372 48.3255 4.78702 48.3865 5.33129C48.4496 5.89356 48.4995 6.97336 48.128 7.42407C47.8712 7.73556 47.4454 7.78428 47.0704 7.81992C47.3263 7.87916 47.5815 7.94327 47.8089 8.08005C48.0599 8.23102 48.2534 8.45953 48.3234 8.74656C48.424 9.15878 48.5138 12.3245 48.3695 12.5614C47.6359 12.5488 46.9001 12.5594 46.1662 12.5585C46.1844 12.5324 46.1995 12.5047 46.2078 12.4738C46.2506 12.3138 46.2523 12.0406 46.1652 11.8986C46.1989 11.849 46.2143 11.802 46.2191 11.742C46.2554 11.2878 46.2897 8.86183 46.0921 8.63983C45.9428 8.47194 45.6766 8.48383 45.4693 8.46985C45.4785 8.48938 45.4859 8.509 45.4914 8.5299C45.5515 8.75958 45.5331 12.0379 45.5047 12.4392C45.5015 12.4848 45.4857 12.5218 45.4632 12.5607L43.0859 12.5575C43.099 12.5362 43.1108 12.5145 43.1195 12.491C43.1781 12.3344 43.1679 4.4945 43.1402 3.68996C43.1379 3.62079 43.1246 3.56662 43.0959 3.50362ZM45.4653 5.06074C45.6332 5.43812 45.4209 6.52951 45.5255 7.01409C45.6488 7.06143 45.8391 7.04434 45.9591 6.99314C46.0062 6.97311 46.0507 6.94046 46.07 6.89129C46.1623 6.82509 46.1761 6.70727 46.1932 6.60227C46.2526 6.23724 46.3291 5.57678 46.1021 5.26443C46.0366 5.17438 45.9353 5.08636 45.8216 5.07035C45.7088 5.05449 45.5791 5.0536 45.4653 5.06074Z" fill="#737373"/>
<path d="M20.0402 3.44434L20.0609 3.68874C20.3394 3.81399 20.8752 3.79642 21.1588 3.67866C21.219 3.65367 21.2577 3.62151 21.2855 3.56093C21.2949 3.54058 21.2992 3.51652 21.3035 3.49461C21.6843 4.40093 25.0753 12.348 25.0524 12.5586C24.2525 12.5588 23.4367 12.594 22.6387 12.5558C22.1638 12.5335 21.6774 12.5532 21.2012 12.553C20.3614 12.5492 19.5216 12.5515 18.6818 12.56L16.2207 12.5571L18.3577 7.4399C18.9093 6.10417 19.4702 4.77232 20.0402 3.44434ZM20.6574 7.66261C20.4972 8.12903 20.2854 8.589 20.0993 9.04627C19.6241 10.2147 19.1239 11.379 18.6818 12.56C19.5216 12.5515 20.3614 12.5492 21.2012 12.553C21.6774 12.5532 22.1638 12.5335 22.6387 12.5558C21.9959 10.9186 21.3185 9.29268 20.6574 7.66261Z" fill="#737373"/>
<path d="M18.6814 12.5598C19.5212 12.5513 20.3609 12.5489 21.2007 12.5528C21.677 12.553 22.1634 12.5333 22.6383 12.5556C22.6346 12.6349 22.6301 12.7142 22.6247 12.7935C22.6193 12.8727 22.6131 12.9519 22.606 13.031C22.5989 13.1101 22.591 13.1891 22.5823 13.2681C22.5735 13.347 22.5639 13.4259 22.5534 13.5046C22.543 13.5834 22.5317 13.662 22.5196 13.7405C22.5074 13.819 22.4945 13.8974 22.4807 13.9756C22.4669 14.0538 22.4522 14.1318 22.4367 14.2097C22.4213 14.2877 22.405 14.3654 22.3878 14.443C22.3707 14.5205 22.3527 14.5979 22.334 14.675C22.3152 14.7522 22.2955 14.8292 22.2751 14.9059C22.2547 14.9827 22.2334 15.0593 22.2114 15.1356C22.1893 15.2119 22.1664 15.2879 22.1427 15.3637C22.119 15.4396 22.0945 15.5151 22.0693 15.5904C22.0439 15.6657 22.0178 15.7407 21.9909 15.8154C21.964 15.8901 21.9363 15.9646 21.9078 16.0387C21.8793 16.1129 21.85 16.1867 21.8199 16.2602C21.7898 16.3337 21.759 16.4069 21.7274 16.4797C21.6957 16.5526 21.6633 16.6251 21.6301 16.6973C21.5969 16.7694 21.5629 16.8412 21.5282 16.9126C21.4935 16.9841 21.458 17.0551 21.4218 17.1258C21.3855 17.1965 21.3485 17.2667 21.3108 17.3366C21.273 17.4065 21.2345 17.476 21.1953 17.545C21.1561 17.6141 21.1161 17.6828 21.0754 17.751C21.0347 17.8192 20.9933 17.8869 20.9511 17.9543C20.909 18.0215 20.8661 18.0884 20.8225 18.1548C20.779 18.2212 20.7347 18.2871 20.6897 18.3526C20.6447 18.418 20.5991 18.483 20.5527 18.5475C20.5063 18.612 20.4592 18.6759 20.4115 18.7394C20.3637 18.8029 20.3153 18.8658 20.2663 18.9283C20.2172 18.9907 20.1674 19.0526 20.117 19.114C20.0666 19.1754 20.0156 19.2362 19.9639 19.2965C19.9121 19.3568 19.8598 19.4165 19.8068 19.4757C17.7206 21.8249 14.9488 23.0364 11.8418 23.219L11.8446 19.2533C11.9368 19.2483 12.0288 19.2415 12.1207 19.2329C12.2126 19.2243 12.3043 19.214 12.3958 19.2019C12.4873 19.1898 12.5786 19.176 12.6695 19.1604C12.7605 19.1448 12.8511 19.1275 12.9414 19.1084C13.0317 19.0893 13.1216 19.0685 13.2112 19.0459C13.3007 19.0234 13.3897 18.9992 13.4783 18.9732C13.5669 18.9473 13.6549 18.9196 13.7424 18.8903C13.8299 18.861 13.9169 18.83 14.0032 18.7973C14.0895 18.7646 14.1752 18.7303 14.2602 18.6943C14.3452 18.6584 14.4295 18.6208 14.5131 18.5816C14.5966 18.5424 14.6794 18.5016 14.7614 18.4592C14.8434 18.4168 14.9246 18.3729 15.0049 18.3274C15.0852 18.2819 15.1646 18.2348 15.2431 18.1863C15.3216 18.1377 15.3992 18.0877 15.4758 18.0362C15.5523 17.9846 15.6279 17.9317 15.7025 17.8772C15.777 17.8228 15.8505 17.7669 15.9229 17.7097C17.5757 16.409 18.4342 14.6192 18.6814 12.5598Z" fill="#737373"/>
<path d="M33.525 3.48088L36.5898 3.4797C36.6113 3.51598 36.6289 3.55357 36.638 3.59501C36.7065 3.90651 36.6503 5.68714 36.6504 6.12748L36.6505 10.2332C36.6503 10.9361 36.6704 11.646 36.6471 12.3483C36.6444 12.4312 36.6345 12.4891 36.59 12.561L34.5481 12.5585C34.5636 12.5285 34.5771 12.4975 34.5853 12.4647C34.6413 12.2388 34.5897 10.9291 34.5888 10.6088C34.5859 9.49211 34.6383 8.35623 34.5894 7.2417C34.5862 7.17041 34.5722 7.11834 34.5339 7.05728C34.6123 6.93738 34.6078 6.80421 34.5804 6.6688C34.4553 7.07812 34.4405 7.59941 34.3855 8.02628C34.3167 8.55972 33.8432 12.4102 33.7311 12.5614L32.2594 12.5571C32.2676 12.5398 32.2727 12.5273 32.2763 12.5084C32.3108 12.3279 31.5772 7.44153 31.4923 6.95517C31.4781 6.87356 31.4606 6.80853 31.4151 6.7379L31.4199 6.75916C31.5186 7.22055 31.4433 8.28585 31.4432 8.81075C31.4429 9.99026 31.499 11.1988 31.4372 12.3751C31.4334 12.4471 31.4186 12.4997 31.3792 12.561L29.3125 12.5572C29.3261 12.5371 29.3384 12.5164 29.3471 12.4935C29.4068 12.336 29.3985 4.49625 29.3672 3.66511C29.365 3.60708 29.3502 3.55665 29.3279 3.5033C29.6542 3.4425 30.0438 3.47705 30.3783 3.47714L32.378 3.48055C32.3806 3.48362 32.3834 3.48653 32.3857 3.48976C32.4196 3.53622 32.4391 3.58509 32.4508 3.6412C32.5397 4.07141 33.0586 7.48912 33.0271 7.7009C33.1053 7.45948 33.1119 7.15953 33.1441 6.90631L33.3537 5.25799C33.4194 4.74006 33.5475 4.14077 33.562 3.62711C33.5636 3.57431 33.5486 3.52738 33.525 3.48088Z" fill="#737373"/>
<path d="M10.8931 0.792552C11.0485 0.774552 11.2128 0.780115 11.3693 0.778731C14.232 0.753455 17.1425 1.89467 19.1874 3.9051C19.0332 4.36832 18.8108 4.82749 18.6216 5.27846L17.4859 7.99539C17.4551 7.94909 17.4237 7.90314 17.3918 7.85754C17.3599 7.81195 17.3275 7.76671 17.2946 7.72183C17.2616 7.67698 17.2282 7.63251 17.1943 7.58841C17.1603 7.54434 17.1259 7.50065 17.091 7.45732C17.056 7.414 17.0206 7.3711 16.9847 7.32863C16.9488 7.28612 16.9124 7.24403 16.8755 7.20237C16.8386 7.16071 16.8013 7.11946 16.7634 7.07861C16.7256 7.0378 16.6874 6.99742 16.6486 6.95749C16.6099 6.91756 16.5707 6.87807 16.5311 6.83902C16.4914 6.79997 16.4514 6.76137 16.4109 6.72324C16.3703 6.6851 16.3294 6.64742 16.288 6.6102C16.2466 6.57302 16.2048 6.53631 16.1626 6.50007C16.1204 6.4638 16.0778 6.42803 16.0347 6.39278C15.9917 6.35749 15.9483 6.32271 15.9045 6.28844C15.8606 6.25414 15.8164 6.22036 15.7719 6.1871C15.7273 6.15381 15.6823 6.12105 15.637 6.08881C15.5916 6.05654 15.546 6.02481 15.4999 5.99363C15.4538 5.96241 15.4074 5.93173 15.3606 5.90159C15.3139 5.87142 15.2668 5.84181 15.2194 5.81276C15.1719 5.78368 15.1241 5.75515 15.0761 5.72719C15.028 5.69919 14.9796 5.67175 14.9309 5.64486C14.8821 5.61798 14.8331 5.59166 14.7838 5.5659C14.7345 5.54014 14.6849 5.51495 14.635 5.49034C14.5851 5.4657 14.535 5.44163 14.4845 5.41814C14.4341 5.39464 14.3834 5.37175 14.3324 5.34944C14.2815 5.3271 14.2303 5.30536 14.1788 5.2842C14.1274 5.26305 14.0757 5.24247 14.0237 5.22247C13.9718 5.20251 13.9197 5.18312 13.8673 5.16431C13.815 5.14553 13.7624 5.12734 13.7096 5.10975C13.6568 5.09216 13.6038 5.07517 13.5506 5.05879C13.4975 5.04241 13.4442 5.02663 13.3906 5.01147C13.3371 4.99631 13.2834 4.98175 13.2295 4.96781C13.172 4.95319 13.1143 4.93929 13.0565 4.92608C12.9986 4.91288 12.9406 4.90039 12.8824 4.88861C12.8242 4.87683 12.7659 4.86576 12.7075 4.8554C12.6491 4.84505 12.5905 4.83541 12.5318 4.8265C12.4731 4.81757 12.4144 4.80937 12.3555 4.80189C12.2966 4.79441 12.2376 4.78765 12.1786 4.78162C12.1196 4.77558 12.0605 4.77027 12.0013 4.76568C11.9421 4.76109 11.8829 4.75723 11.8236 4.75409C11.7644 4.75095 11.7051 4.74854 11.6457 4.74685C11.5864 4.74516 11.5271 4.7442 11.4677 4.74397C11.4084 4.74374 11.349 4.74423 11.2897 4.74545C11.2304 4.74667 11.171 4.74862 11.1117 4.75129C11.0525 4.75396 10.9932 4.75736 10.934 4.76149C10.8748 4.76561 10.8157 4.77046 10.7566 4.77603C10.6975 4.7816 10.6385 4.7879 10.5795 4.79491C10.5206 4.80193 10.4618 4.80967 10.403 4.81813C10.3443 4.82659 10.2856 4.83576 10.2271 4.84565C10.1686 4.85555 10.1102 4.86616 10.0519 4.87748C9.9937 4.88881 9.9356 4.90085 9.87763 4.91359C9.81966 4.92634 9.76185 4.9398 9.70419 4.95396C9.64656 4.96812 9.58912 4.98299 9.53187 4.99856C9.47458 5.01413 9.41749 5.0304 9.36061 5.04737C9.30373 5.06433 9.24707 5.08199 9.19063 5.10034C9.13419 5.11871 9.07798 5.13776 9.02202 5.15749C8.96605 5.17722 8.91032 5.19763 8.85483 5.21871C8.79937 5.23983 8.74417 5.26161 8.68922 5.28405C8.63427 5.30649 8.57961 5.32961 8.52524 5.35341C8.47087 5.37717 8.41678 5.40161 8.36298 5.42673C8.30922 5.45185 8.25576 5.47763 8.20261 5.50407C8.14946 5.53047 8.09665 5.55754 8.04417 5.58527C7.99166 5.61297 7.93951 5.64131 7.88771 5.67029C7.83592 5.69931 7.78449 5.72893 7.73344 5.75917C5.96873 6.83144 4.98187 8.28354 4.38272 10.2338C3.13769 9.8078 1.8825 9.31188 0.664062 8.81292C1.14947 7.31475 1.84538 5.96749 2.86232 4.75855C2.91207 4.69974 2.96241 4.64145 3.01335 4.58368C3.0643 4.52591 3.11583 4.46867 3.16795 4.41197C3.22007 4.35526 3.27277 4.29909 3.32605 4.24347C3.37932 4.18784 3.43317 4.13277 3.48758 4.07825C3.54199 4.02374 3.59695 3.96979 3.65247 3.91641C3.70799 3.86302 3.76405 3.81021 3.82066 3.75798C3.87726 3.70575 3.9344 3.65411 3.99207 3.60305C4.04973 3.552 4.10792 3.50154 4.16663 3.45169C4.22533 3.40183 4.28455 3.35258 4.34426 3.30394C4.40398 3.2553 4.4642 3.20728 4.5249 3.15989C4.58561 3.11249 4.6468 3.06572 4.70847 3.01958C4.77013 2.97344 4.83227 2.92794 4.89488 2.88308C4.95748 2.83822 5.02054 2.79401 5.08405 2.75044C5.14757 2.70688 5.21153 2.66398 5.27593 2.62173C5.34031 2.57948 5.40512 2.53791 5.47037 2.49699C5.53563 2.45608 5.60131 2.41585 5.66741 2.37628C5.73348 2.33672 5.79995 2.29785 5.86683 2.25966C5.93371 2.22147 6.00098 2.18397 6.06865 2.14716C6.13627 2.11035 6.20429 2.07424 6.2727 2.03883C6.3411 2.00343 6.40985 1.96873 6.47893 1.93474C6.54805 1.90075 6.61751 1.86747 6.68731 1.8349C6.7571 1.80234 6.82722 1.7705 6.89766 1.73938C6.9681 1.70826 7.03887 1.67787 7.10995 1.64821C7.181 1.61854 7.25236 1.58961 7.32402 1.56142C7.39571 1.53323 7.46766 1.50577 7.53987 1.47906C7.6121 1.45235 7.68461 1.42638 7.75739 1.40116C7.83014 1.37594 7.90315 1.35147 7.97644 1.32775C8.0497 1.30403 8.1232 1.28107 8.19697 1.25887C8.2707 1.23666 8.34466 1.21522 8.41887 1.19454C8.49304 1.17386 8.56741 1.15394 8.64198 1.13479C8.71659 1.11563 8.79139 1.09725 8.86637 1.07964C8.94132 1.06203 9.01646 1.04519 9.09178 1.02912C9.68898 0.902682 10.2862 0.845387 10.8931 0.792552Z" fill="#737373"/>
</svg>
