<svg width="44" height="44" viewBox="0 0 44 44" fill="none" xmlns="http://www.w3.org/2000/svg">
<g clip-path="url(#clip0_42_4008)">
<path d="M37.6128 13.0044L29.8067 16.0033L22 19.0015L14.1939 16.0033L6.38721 13.0044L22 7.00671L37.6128 13.0044Z" stroke="white" stroke-width="1.6" stroke-miterlimit="1.5"/>
<path d="M37.6128 19.0014L29.8067 22.0002L22 24.9985L14.1939 22.0002L6.38721 19.0014L14.1939 16.0032L22 19.0014L29.8067 16.0032L37.6128 19.0014Z" stroke="white" stroke-width="1.6" stroke-miterlimit="1.5"/>
<path d="M37.6128 24.9984L29.8067 27.9972L22 30.996L14.1939 27.9972L6.38721 24.9984L14.1939 22.0001L22 24.9984L29.8067 22.0001L37.6128 24.9984Z" stroke="white" stroke-width="1.6" stroke-miterlimit="1.5"/>
<path d="M37.6128 30.9961L22 36.9932L6.38721 30.9961L14.1939 27.9973L22 30.9961L29.8067 27.9973L37.6128 30.9961Z" stroke="white" stroke-width="1.6" stroke-miterlimit="1.5"/>
</g>
<defs>
<clipPath id="clip0_42_4008">
<rect width="32" height="32" fill="white" transform="translate(6 6)"/>
</clipPath>
</defs>
</svg>
