<svg width="22" height="22" viewBox="0 0 22 22" fill="none" xmlns="http://www.w3.org/2000/svg">
<path d="M16.933 12.6289H12.3074V16.5383H16.933V12.6289Z" fill="#95979A"/>
<path d="M10.497 12.688H5.06714V13.2818H10.497V12.688Z" fill="#95979A"/>
<path d="M10.497 15.8853H5.06714V16.4791H10.497V15.8853Z" fill="#95979A"/>
<path d="M10.497 14.2868H5.06714V14.8806H10.497V14.2868Z" fill="#95979A"/>
<path d="M16.64 2.00009H5.36023C3.50423 2.0004 2.00056 3.48061 2 5.30703V15.8149C2.00088 17.9692 3.77409 19.715 5.96359 19.7156H16.0367C18.2259 19.715 19.9994 17.9695 20 15.8149V5.30703C19.9997 3.48061 18.4957 2.0004 16.64 2.00009ZM18.3408 15.8149C18.3405 16.4429 18.0839 17.006 17.6659 17.4183C17.2469 17.8297 16.6748 18.0823 16.0367 18.0826H5.96359C5.3255 18.0823 4.75305 17.8297 4.33416 17.4183C3.91609 17.006 3.6598 16.4429 3.65923 15.8149V6.10697H18.3408V15.8149H18.3408Z" fill="#95979A"/>
<path d="M5.12739 11.2699H6.3432C7.03613 11.2699 7.45562 10.973 7.45562 10.3513C7.45562 9.97581 7.23881 9.71574 7.02671 9.63685V9.62758C7.23884 9.5116 7.39909 9.29821 7.39909 8.95521C7.39909 8.45387 7.07386 8.11551 6.37653 8.11551H5.12739C5.09941 8.11551 5.08057 8.13406 5.08057 8.16187V11.2232C5.08057 11.2513 5.09941 11.2699 5.12739 11.2699ZM5.7735 8.69511C5.7735 8.67684 5.78232 8.66729 5.80176 8.66729H6.29198C6.55565 8.66729 6.71122 8.80182 6.71122 9.03351C6.71122 9.26575 6.55565 9.40492 6.29198 9.40492H5.80176C5.78232 9.40492 5.7735 9.39565 5.7735 9.3771V8.69511ZM5.7735 9.95667C5.7735 9.9384 5.78232 9.92916 5.80176 9.92916H6.32911C6.6125 9.92916 6.76304 10.0822 6.76304 10.3238C6.76304 10.5694 6.6125 10.7181 6.32911 10.7181H5.80176C5.78232 10.7181 5.7735 10.7086 5.7735 10.69V9.95667Z" fill="#95979A"/>
<path d="M8.38158 11.2699H10.47C10.498 11.2699 10.5168 11.2513 10.5168 11.2232V10.7085C10.5168 10.6804 10.498 10.6621 10.47 10.6621H9.05588C9.03675 10.6621 9.02761 10.6528 9.02761 10.634V8.16187C9.02761 8.13406 9.00905 8.11551 8.98047 8.11551H8.38154C8.35324 8.11551 8.33472 8.13406 8.33472 8.16187V11.2232C8.33472 11.2513 8.35328 11.2699 8.38158 11.2699Z" fill="#95979A"/>
<path d="M12.2905 11.3206C12.8517 11.3206 13.2945 11.0657 13.4595 10.5554C13.5302 10.3373 13.5488 10.161 13.5488 9.69248C13.5488 9.22391 13.5302 9.04762 13.4595 8.82956C13.2945 8.31958 12.8517 8.06439 12.2905 8.06439C11.7296 8.06439 11.2865 8.31958 11.1218 8.82956C11.0508 9.04762 11.032 9.22391 11.032 9.69248C11.032 10.161 11.0508 10.3373 11.1218 10.5554C11.2865 11.0657 11.7296 11.3206 12.2905 11.3206ZM11.7862 9.01516C11.8569 8.79714 12.0269 8.66725 12.2905 8.66725C12.5545 8.66725 12.7242 8.79714 12.7949 9.01516C12.8326 9.12679 12.8467 9.27931 12.8467 9.69251C12.8467 10.1051 12.8325 10.2585 12.7949 10.3696C12.7242 10.5879 12.5545 10.7181 12.2905 10.7181C12.0268 10.7181 11.8569 10.5879 11.7862 10.3696C11.7487 10.2585 11.7343 10.1051 11.7343 9.69251C11.7343 9.27931 11.7487 9.12679 11.7862 9.01516Z" fill="#95979A"/>
<path d="M15.6392 11.3206C16.2045 11.3206 16.6476 11.0378 16.8082 10.5319C16.8644 10.3605 16.8877 10.1007 16.8877 9.82237V9.56228C16.8877 9.53501 16.8689 9.51615 16.8409 9.51615H15.7382C15.7096 9.51615 15.6908 9.53501 15.6908 9.56228V10.0082C15.6908 10.0358 15.7096 10.0543 15.7382 10.0543H16.1715C16.1904 10.0543 16.1998 10.0639 16.1998 10.0822C16.1998 10.2164 16.1857 10.3141 16.1621 10.3933C16.0961 10.6018 15.8887 10.718 15.6483 10.718C15.3702 10.718 15.1955 10.5878 15.1248 10.3695C15.0874 10.2585 15.0733 10.1051 15.0733 9.69248C15.0733 9.27931 15.0874 9.13115 15.1248 9.0198C15.1955 8.80174 15.3655 8.66721 15.6392 8.66721C15.9029 8.66721 16.0628 8.77856 16.1904 8.99194C16.1998 9.01513 16.2234 9.02444 16.2567 9.01513L16.7607 8.80638C16.7887 8.79247 16.794 8.76465 16.7796 8.73652C16.6284 8.35608 16.2375 8.06439 15.6391 8.06439C15.0685 8.06439 14.6254 8.31958 14.4605 8.82956C14.3897 9.04762 14.3706 9.22391 14.3706 9.69248C14.3706 10.161 14.3898 10.3373 14.4605 10.5554C14.6255 11.0657 15.0686 11.3206 15.6392 11.3206Z" fill="#95979A"/>
</svg>
