<svg width="22" height="22" viewBox="0 0 22 22" fill="none" xmlns="http://www.w3.org/2000/svg">
<g opacity="0.5">
<path d="M8.32593 19.6047C6.65925 19.6047 5.2426 19.0147 4.07593 17.8347C2.90926 16.6547 2.32593 15.2314 2.32593 13.5647C2.32593 11.8981 2.90593 10.4881 4.06593 9.33474C5.22593 8.18142 6.63925 7.60474 8.30593 7.60474H8.54593L9.68593 5.60474L11.5059 6.66474L11.6059 6.50474C11.9126 5.98474 12.3559 5.64806 12.9359 5.49474C13.5159 5.3414 14.0726 5.41142 14.6059 5.70474L15.1259 6.00474L14.5259 7.04474L14.0059 6.74474C13.7659 6.59806 13.5092 6.56142 13.2359 6.63474C12.9626 6.70806 12.7592 6.86474 12.6259 7.10474L12.5459 7.26474L14.5259 8.40474L13.4059 10.4047C13.7126 10.8847 13.9426 11.3947 14.0959 11.9347C14.2492 12.4747 14.3259 13.0314 14.3259 13.6047C14.3259 15.2714 13.7426 16.6881 12.5759 17.8547C11.4092 19.0214 9.99261 19.6047 8.32593 19.6047ZM17.8059 8.20474V7.00474H19.8059V8.20474H17.8059ZM13.2059 3.60474V1.60474H14.4059V3.60474H13.2059ZM17.1059 5.14474L16.2659 4.30474L17.6859 2.88474L18.5259 3.72474L17.1059 5.14474Z" fill="white"/>
</g>
</svg>
