<svg width="18" height="18" viewBox="0 0 18 18" fill="none" xmlns="http://www.w3.org/2000/svg">
<g opacity="0.5" clip-path="url(#clip0_2_2915)">
<path fill-rule="evenodd" clip-rule="evenodd" d="M0.964286 1.92857H2.75914L3.24643 3.78C3.25038 3.79467 3.25466 3.80924 3.25929 3.82371L4.50386 10.053C4.50725 10.0867 4.5124 10.1201 4.51929 10.1533L5.05929 12.8533V12.8571C5.13338 13.2202 5.33063 13.5464 5.61764 13.7807C5.90465 14.015 6.26379 14.1429 6.63428 14.1429H14.4643C14.72 14.1429 14.9653 14.0413 15.1461 13.8604C15.327 13.6796 15.4286 13.4343 15.4286 13.1786C15.4286 12.9228 15.327 12.6776 15.1461 12.4967C14.9653 12.3159 14.72 12.2143 14.4643 12.2143H6.89786L6.57643 10.6071H15.5571H15.57H15.5713C15.6163 10.6071 15.7449 10.611 15.8631 10.5917C16.0752 10.5558 16.275 10.4679 16.4447 10.3357C16.6143 10.2035 16.7485 10.0313 16.8351 9.83443C16.9046 9.675 16.9393 9.47314 16.9509 9.40629L16.9547 9.38828L17.9717 4.42286L17.9743 4.41C18.0079 4.22505 18.0006 4.03499 17.9529 3.85317C17.9052 3.67135 17.8182 3.50219 17.6981 3.35758C17.578 3.21297 17.4277 3.09642 17.2577 3.01614C17.0878 2.93585 16.9023 2.89377 16.7143 2.89286H16.7117H5.00529L4.57714 1.25357C4.49686 0.897576 4.2978 0.579505 4.01272 0.351673C3.72764 0.123842 3.37351 -0.000182304 3.00857 2.01132e-07H0.964286C0.708541 2.01132e-07 0.463271 0.101594 0.282433 0.282433C0.101594 0.463272 0 0.708541 0 0.964286C0 1.22003 0.101594 1.4653 0.282433 1.64614C0.463271 1.82698 0.708541 1.92857 0.964286 1.92857ZM14.9529 16.4571C14.9529 16.0653 14.7972 15.6896 14.5202 15.4125C14.2431 15.1355 13.8674 14.9799 13.4756 14.9799C13.0838 14.9799 12.708 15.1355 12.431 15.4125C12.1539 15.6896 11.9983 16.0653 11.9983 16.4571C12.0096 16.8412 12.1702 17.2058 12.4459 17.4735C12.7215 17.7411 13.0907 17.8909 13.4749 17.8909C13.8592 17.8909 14.2283 17.7411 14.504 17.4735C14.7797 17.2058 14.9402 16.8412 14.9516 16.4571H14.9529ZM7.04571 14.9811C7.2433 14.9753 7.44004 15.0092 7.62429 15.0808C7.80854 15.1524 7.97655 15.2602 8.11837 15.3979C8.26019 15.5356 8.37293 15.7003 8.44992 15.8824C8.52691 16.0645 8.56658 16.2601 8.56658 16.4578C8.56658 16.6555 8.52691 16.8511 8.44992 17.0332C8.37293 17.2152 8.26019 17.38 8.11837 17.5177C7.97655 17.6554 7.80854 17.7632 7.62429 17.8348C7.44004 17.9064 7.2433 17.9403 7.04571 17.9344C6.66163 17.9231 6.29707 17.7625 6.0294 17.4869C5.76173 17.2112 5.61201 16.842 5.61201 16.4578C5.61201 16.0735 5.76173 15.7044 6.0294 15.4287C6.29707 15.153 6.66163 14.9925 7.04571 14.9811Z" fill="white"/>
</g>
<defs>
<clipPath id="clip0_2_2915">
<rect width="18" height="18" fill="white"/>
</clipPath>
</defs>
</svg>
