<svg width="22" height="22" viewBox="0 0 22 22" fill="none" xmlns="http://www.w3.org/2000/svg">
<g opacity="0.5">
<path d="M3 15.2856C3 15.816 3.21071 16.3247 3.58578 16.6998C3.96085 17.0749 4.46956 17.2855 5 17.2855H17C17.5304 17.2855 18.0391 17.0749 18.4142 16.6998C18.7893 16.3247 19 15.816 19 15.2856V9.78558H3V15.2856ZM5.35714 12.5713C5.35714 12.2871 5.47003 12.0146 5.67095 11.8137C5.8719 11.6127 6.14446 11.4998 6.42857 11.4998H8.14286C8.42697 11.4998 8.69952 11.6127 8.90048 11.8137C9.10139 12.0146 9.21429 12.2871 9.21429 12.5713V13.2855C9.21429 13.5697 9.10139 13.8422 8.90048 14.0432C8.69952 14.2441 8.42697 14.357 8.14286 14.357H6.42857C6.14446 14.357 5.8719 14.2441 5.67095 14.0432C5.47003 13.8422 5.35714 13.5697 5.35714 13.2855V12.5713Z" fill="white"/>
<path d="M17 4.71445H5C4.46956 4.71445 3.96085 4.92516 3.58578 5.30023C3.21071 5.6753 3 6.184 3 6.71445V7.64298H19V6.71445C19 6.184 18.7893 5.6753 18.4142 5.30023C18.0391 4.92516 17.5304 4.71445 17 4.71445Z" fill="white"/>
</g>
</svg>
