<svg width="20" height="20" viewBox="0 0 20 20" fill="none" xmlns="http://www.w3.org/2000/svg">
<path d="M8.29462 16.998C7.85962 16.998 7.44762 16.795 7.18362 16.445L3.61062 11.724C3.50016 11.5782 3.41951 11.412 3.37329 11.235C3.32707 11.0581 3.31619 10.8737 3.34127 10.6925C3.36634 10.5113 3.42688 10.3368 3.51943 10.1791C3.61198 10.0213 3.73471 9.88328 3.88062 9.77296C4.02648 9.66218 4.19277 9.58128 4.36995 9.53489C4.54714 9.4885 4.73173 9.47753 4.91316 9.50261C5.09459 9.52769 5.26929 9.58834 5.42724 9.68106C5.58519 9.77378 5.72329 9.89677 5.83362 10.043L8.18462 13.147L14.0956 3.65496C14.2917 3.34156 14.604 3.11871 14.9641 3.03529C15.3242 2.95186 15.7028 3.01468 16.0166 3.20996C16.6696 3.61596 16.8706 4.47596 16.4626 5.12996L9.47862 16.34C9.3594 16.5322 9.19507 16.6924 8.9999 16.8067C8.80472 16.921 8.5846 16.986 8.35862 16.996C8.33662 16.998 8.31662 16.998 8.29462 16.998Z" fill="#F29314"/>
</svg>
