<svg width="22" height="22" viewBox="0 0 22 22" fill="none" xmlns="http://www.w3.org/2000/svg">
<g opacity="0.5">
<path d="M3.67844 10.3342C3.8342 10.3373 3.98614 10.2857 4.1078 10.1884C4.22946 10.0911 4.31314 9.95416 4.34427 9.8015C4.35182 9.76445 4.37176 9.73108 4.40081 9.70688C4.42985 9.68267 4.46627 9.66908 4.50407 9.66833H13.0001C13.0884 9.66833 13.1731 9.63325 13.2355 9.57082C13.298 9.50839 13.333 9.42371 13.333 9.33541V5.3404C13.333 5.25211 13.298 5.16743 13.2355 5.10499C13.1731 5.04256 13.0884 5.00749 13.0001 5.00749H4.49075C4.4553 5.00389 4.42193 4.98902 4.39556 4.96504C4.3692 4.94107 4.35122 4.90927 4.34427 4.87432C4.32661 4.69773 4.23953 4.53539 4.10217 4.423C3.96481 4.31062 3.78844 4.25741 3.61185 4.27507C3.43526 4.29273 3.27292 4.37981 3.16054 4.51717C3.04816 4.65452 2.99494 4.83089 3.0126 5.00749V9.66833C3.0126 9.84492 3.08275 10.0143 3.20762 10.1391C3.33249 10.264 3.50184 10.3342 3.67844 10.3342Z" fill="white"/>
<path d="M14.3318 9.33542C14.3318 9.42371 14.3669 9.50839 14.4293 9.57083C14.4917 9.63326 14.5764 9.66834 14.6647 9.66834C16.8486 9.66834 18.9926 8.51644 18.9926 7.33791C18.9926 6.15939 16.8486 5.00749 14.6647 5.00749C14.5764 5.00749 14.4917 5.04257 14.4293 5.105C14.3669 5.16744 14.3318 5.25211 14.3318 5.34041V9.33542Z" fill="white"/>
<path d="M18.327 11.6658C18.1712 11.6627 18.0193 11.7143 17.8976 11.8116C17.7759 11.9089 17.6923 12.0458 17.6611 12.1985C17.6536 12.2355 17.6336 12.2689 17.6046 12.2931C17.5756 12.3173 17.5391 12.3309 17.5013 12.3317H9.00528C8.91699 12.3317 8.83231 12.3667 8.76987 12.4292C8.70744 12.4916 8.67236 12.5763 8.67236 12.6646V16.6596C8.67236 16.7479 8.70744 16.8326 8.76987 16.895C8.83231 16.9574 8.91699 16.9925 9.00528 16.9925H17.5147C17.5525 16.9933 17.5889 17.0069 17.6179 17.0311C17.647 17.0553 17.6669 17.0886 17.6745 17.1257C17.6921 17.3023 17.7792 17.4646 17.9166 17.577C18.0539 17.6894 18.2303 17.7426 18.4069 17.7249C18.5835 17.7073 18.7458 17.6202 18.8582 17.4828C18.9706 17.3455 19.0238 17.1691 19.0061 16.9925V12.3317C19.0061 12.2431 18.9885 12.1554 18.9542 12.0737C18.9199 11.9921 18.8697 11.9181 18.8064 11.8561C18.7432 11.7941 18.6682 11.7453 18.5859 11.7126C18.5035 11.68 18.4155 11.6641 18.327 11.6658Z" fill="white"/>
<path d="M7.34038 12.3317C5.15644 12.3317 3.01245 13.4836 3.01245 14.6621C3.01245 15.8406 5.15644 16.9925 7.34038 16.9925C7.42867 16.9925 7.51335 16.9574 7.57579 16.895C7.63822 16.8326 7.6733 16.7479 7.6733 16.6596V12.6646C7.6733 12.5763 7.63822 12.4916 7.57579 12.4292C7.51335 12.3667 7.42867 12.3317 7.34038 12.3317Z" fill="white"/>
</g>
</svg>
