<svg width="30" height="30" viewBox="0 0 30 30" fill="none" xmlns="http://www.w3.org/2000/svg">
<g clip-path="url(#clip0_12_4916)">
<path d="M14.9992 0.600006C7.04466 0.600006 0.597656 7.04701 0.597656 15C0.597459 16.8913 0.969831 18.7641 1.6935 20.5115C2.41718 22.2588 3.47798 23.8465 4.81532 25.1838C6.15266 26.5212 7.74035 27.582 9.48771 28.3057C11.2351 29.0293 13.1079 29.4017 14.9992 29.4015C22.9507 29.4015 29.3992 22.9545 29.3992 15C29.3992 7.04701 22.9507 0.600006 14.9992 0.600006ZM16.3432 5.79901C17.7472 5.79901 18.1597 6.61351 18.1597 7.54501C18.1597 8.70751 17.2297 9.78301 15.6412 9.78301C14.3122 9.78301 13.6792 9.11551 13.7182 8.01001C13.7182 7.07851 14.4967 5.79901 16.3432 5.79901ZM12.7462 23.625C11.7862 23.625 11.0857 23.0415 11.7562 20.484L12.8557 15.9465C13.0462 15.2205 13.0777 14.9295 12.8557 14.9295C12.5692 14.9295 11.3227 15.4305 10.5877 15.9255L10.1092 15.141C12.4417 13.1925 15.1237 12.0495 16.2712 12.0495C17.2312 12.0495 17.3902 13.1835 16.9117 14.9295L15.6517 19.6995C15.4282 20.5425 15.5242 20.8335 15.7477 20.8335C16.0357 20.8335 16.9777 20.4855 17.9047 19.755L18.4477 20.484C16.1782 22.752 13.7047 23.625 12.7462 23.625Z" fill="white"/>
</g>
<defs>
<clipPath id="clip0_12_4916">
<rect width="30" height="30" fill="white"/>
</clipPath>
</defs>
</svg>
