<svg width="18" height="19" viewBox="0 0 18 19" fill="none" xmlns="http://www.w3.org/2000/svg">
<path d="M14.4526 4.4975C13.4551 4.0325 12.3751 3.695 11.2501 3.5C11.2303 3.50028 11.2114 3.50837 11.1976 3.5225C11.0626 3.77 10.9051 4.0925 10.8001 4.34C9.60683 4.16011 8.39335 4.16011 7.20009 4.34C7.09509 4.085 6.93759 3.77 6.79509 3.5225C6.78759 3.5075 6.76509 3.5 6.74259 3.5C5.61759 3.695 4.54509 4.0325 3.54009 4.4975C3.53259 4.4975 3.52509 4.505 3.51759 4.5125C1.47759 7.565 0.915087 10.535 1.19259 13.475C1.19259 13.49 1.20009 13.505 1.21509 13.5125C2.56509 14.5025 3.86259 15.1025 5.14509 15.5C5.16759 15.5075 5.19009 15.5 5.19759 15.485C5.49759 15.0725 5.76759 14.6375 6.00009 14.18C6.01509 14.15 6.00009 14.12 5.97009 14.1125C5.54259 13.9475 5.13759 13.7525 4.74009 13.5275C4.71009 13.5125 4.71009 13.4675 4.73259 13.445C4.81509 13.385 4.89759 13.3175 4.98009 13.2575C4.99509 13.2425 5.01759 13.2425 5.03259 13.25C7.61259 14.4275 10.3951 14.4275 12.9451 13.25C12.9601 13.2425 12.9826 13.2425 12.9976 13.2575C13.0801 13.325 13.1626 13.385 13.2451 13.4525C13.2751 13.475 13.2751 13.52 13.2376 13.535C12.8476 13.7675 12.4351 13.955 12.0076 14.12C11.9776 14.1275 11.9701 14.165 11.9776 14.1875C12.2176 14.645 12.4876 15.08 12.7801 15.4925C12.8026 15.5 12.8251 15.5075 12.8476 15.5C14.1376 15.1025 15.4351 14.5025 16.7851 13.5125C16.8001 13.505 16.8076 13.49 16.8076 13.475C17.1376 10.0775 16.2601 7.13 14.4826 4.5125C14.4751 4.505 14.4676 4.4975 14.4526 4.4975ZM6.39009 11.6825C5.61759 11.6825 4.97259 10.97 4.97259 10.0925C4.97259 9.215 5.60259 8.5025 6.39009 8.5025C7.18509 8.5025 7.81509 9.2225 7.80759 10.0925C7.80759 10.97 7.17759 11.6825 6.39009 11.6825ZM11.6176 11.6825C10.8451 11.6825 10.2001 10.97 10.2001 10.0925C10.2001 9.215 10.8301 8.5025 11.6176 8.5025C12.4126 8.5025 13.0426 9.2225 13.0351 10.0925C13.0351 10.97 12.4126 11.6825 11.6176 11.6825Z" fill="white"/>
</svg>
