<svg width="44" height="44" viewBox="0 0 44 44" fill="none" xmlns="http://www.w3.org/2000/svg">
<path d="M34.5 19.75V29.25C34.5 30.6307 33.3807 31.75 32 31.75H17C15.6193 31.75 14.5 30.6307 14.5 29.25V9.75C14.5 8.36931 15.6193 7.25 17 7.25H27" stroke="white" stroke-width="1.6" stroke-miterlimit="10" stroke-linecap="round" stroke-linejoin="round"/>
<path d="M27 7.25V12.25C27 13.6306 28.1193 14.75 29.5 14.75H34.5L27 7.25Z" stroke="white" stroke-width="1.6" stroke-miterlimit="10" stroke-linecap="round" stroke-linejoin="round"/>
<path d="M14.5 12.25H12C10.6193 12.25 9.5 13.3693 9.5 14.75V34.25C9.5 35.6307 10.6193 36.75 12 36.75H27C28.3807 36.75 29.5 35.6307 29.5 34.25V31.75" stroke="white" stroke-width="1.6" stroke-miterlimit="10" stroke-linecap="round" stroke-linejoin="round"/>
<path d="M29.5 19.75H19.5" stroke="white" stroke-width="1.6" stroke-miterlimit="10" stroke-linecap="round" stroke-linejoin="round"/>
<path d="M29.5 24.75H19.5" stroke="white" stroke-width="1.6" stroke-miterlimit="10" stroke-linecap="round" stroke-linejoin="round"/>
</svg>
