<svg width="22" height="22" viewBox="0 0 22 22" fill="none" xmlns="http://www.w3.org/2000/svg">
<path fill-rule="evenodd" clip-rule="evenodd" d="M2.62617 8.35449L2.02076 13.8031C1.80159 15.7757 3.34567 17.5009 5.33037 17.5009C6.59168 17.5009 7.74472 16.7882 8.30881 15.6601L8.83305 14.6116H13.1669L13.6912 15.6601C14.2552 16.7882 15.4083 17.5009 16.6696 17.5009C18.6544 17.5009 20.1984 15.7757 19.9792 13.8031L19.3738 8.3545C19.1299 6.15968 17.2747 4.49921 15.0664 4.49921H6.93355C4.72522 4.49921 2.87004 6.15968 2.62617 8.35449ZM7.20786 7.20789C7.70651 7.20789 8.11075 7.61212 8.11075 8.11078V8.89341H8.89338C9.39203 8.89341 9.79627 9.29764 9.79627 9.7963C9.79627 10.295 9.39203 10.6992 8.89338 10.6992H8.11075V11.4816C8.11075 11.9802 7.70651 12.3845 7.20786 12.3845C6.70921 12.3845 6.30496 11.9802 6.30496 11.4816V10.6992H5.52258C5.02393 10.6992 4.61969 10.295 4.61969 9.7963C4.61969 9.29764 5.02393 8.89341 5.52258 8.89341H6.30496V8.11078C6.30496 7.61212 6.70921 7.20789 7.20786 7.20789ZM14.273 11.6021C14.7716 11.6021 15.1759 11.1978 15.1759 10.6992C15.1759 10.2005 14.7716 9.7963 14.273 9.7963C13.7743 9.7963 13.3701 10.2005 13.3701 10.6992C13.3701 11.1978 13.7743 11.6021 14.273 11.6021ZM16.9816 8.46065C16.9816 8.95931 16.5774 9.36355 16.0787 9.36355C15.5802 9.36355 15.1759 8.95931 15.1759 8.46065C15.1759 7.962 15.5802 7.55776 16.0787 7.55776C16.5774 7.55776 16.9816 7.962 16.9816 8.46065Z" fill="#95979A"/>
</svg>
