<svg width="18" height="18" viewBox="0 0 18 18" fill="none" xmlns="http://www.w3.org/2000/svg">
<g opacity="0.5" clip-path="url(#clip0_2_2917)">
<path d="M17.7522 6.90581C17.7522 12.3758 9.64167 16.8035 9.29627 16.9863C9.20524 17.0353 9.10348 17.0609 9.00011 17.0609C8.89674 17.0609 8.79498 17.0353 8.70395 16.9863C8.35855 16.8035 0.248047 12.3758 0.248047 6.90581C0.249495 5.6213 0.760402 4.38983 1.66868 3.48155C2.57696 2.57327 3.80844 2.06236 5.09294 2.06091C6.7066 2.06091 8.11943 2.75483 9.00011 3.92776C9.88079 2.75483 11.2936 2.06091 12.9073 2.06091C14.1918 2.06236 15.4233 2.57327 16.3315 3.48155C17.2398 4.38983 17.7507 5.6213 17.7522 6.90581Z" fill="white"/>
</g>
<defs>
<clipPath id="clip0_2_2917">
<rect width="18" height="18" fill="white"/>
</clipPath>
</defs>
</svg>
