<svg width="22" height="22" viewBox="0 0 22 22" fill="none" xmlns="http://www.w3.org/2000/svg">
<g opacity="0.5">
<path fill-rule="evenodd" clip-rule="evenodd" d="M17.1938 10.1273H16.2268C15.9953 10.1273 15.7734 10.2192 15.6097 10.3829C15.446 10.5466 15.3541 10.7685 15.3541 11C15.3541 11.2315 15.446 11.4534 15.6097 11.6171C15.7734 11.7808 15.9953 11.8727 16.2268 11.8727H17.1938C17.0036 13.2167 16.3817 14.4624 15.4219 15.4222C14.4622 16.382 13.2164 17.0038 11.8725 17.194V16.2271C11.8725 15.9956 11.7805 15.7736 11.6169 15.6099C11.4532 15.4463 11.2312 15.3543 10.9998 15.3543C10.7683 15.3543 10.5463 15.4463 10.3826 15.6099C10.219 15.7736 10.127 15.9956 10.127 16.2271V17.194C8.78308 17.0038 7.53735 16.382 6.57756 15.4222C5.61778 14.4624 4.99593 13.2167 4.80572 11.8727H5.7727C6.00416 11.8727 6.22614 11.7808 6.38981 11.6171C6.55348 11.4534 6.64543 11.2315 6.64543 11C6.64543 10.7685 6.55348 10.5466 6.38981 10.3829C6.22614 10.2192 6.00416 10.1273 5.7727 10.1273H4.80572C4.99593 8.78332 5.61778 7.5376 6.57756 6.57781C7.53735 5.61802 8.78308 4.99617 10.127 4.80596V5.77295C10.127 6.00441 10.219 6.22639 10.3826 6.39006C10.5463 6.55372 10.7683 6.64567 10.9998 6.64567C11.2312 6.64567 11.4532 6.55372 11.6169 6.39006C11.7805 6.22639 11.8725 6.00441 11.8725 5.77295V4.80596C13.2164 4.99617 14.4622 5.61802 15.4219 6.57781C16.3817 7.5376 17.0036 8.78332 17.1938 10.1273ZM2.99976 11C2.99976 8.87827 3.84261 6.84344 5.3429 5.34315C6.84319 3.84285 8.87802 3 10.9998 3C13.1215 3 15.1563 3.84285 16.6566 5.34315C18.1569 6.84344 18.9998 8.87827 18.9998 11C18.9998 13.1217 18.1569 15.1566 16.6566 16.6569C15.1563 18.1571 13.1215 19 10.9998 19C8.87802 19 6.84319 18.1571 5.3429 16.6569C3.84261 15.1566 2.99976 13.1217 2.99976 11ZM8.26056 11C8.26056 11.4817 8.65154 11.8727 9.13328 11.8727H10.127V12.8665C10.127 13.0979 10.219 13.3199 10.3826 13.4836C10.5463 13.6473 10.7683 13.7392 10.9998 13.7392C11.2312 13.7392 11.4532 13.6473 11.6169 13.4836C11.7805 13.3199 11.8725 13.0979 11.8725 12.8665V11.8727H12.8662C13.0977 11.8727 13.3197 11.7808 13.4833 11.6171C13.647 11.4534 13.739 11.2315 13.739 11C13.739 10.7685 13.647 10.5466 13.4833 10.3829C13.3197 10.2192 13.0977 10.1273 12.8662 10.1273H11.8725V9.13353C11.8725 8.90207 11.7805 8.68008 11.6169 8.51642C11.4532 8.35275 11.2312 8.2608 10.9998 8.2608C10.7683 8.2608 10.5463 8.35275 10.3826 8.51642C10.219 8.68008 10.127 8.90207 10.127 9.13353V10.1273H9.13328C8.90182 10.1273 8.67984 10.2192 8.51617 10.3829C8.3525 10.5466 8.26056 10.7685 8.26056 11Z" fill="white"/>
</g>
</svg>
