<svg width="22" height="22" viewBox="0 0 22 22" fill="none" xmlns="http://www.w3.org/2000/svg">
<g opacity="0.5">
<path d="M11 3C9.41775 3 7.87103 3.46919 6.55544 4.34824C5.23985 5.22729 4.21447 6.47672 3.60897 7.93853C3.00347 9.40034 2.84504 11.0089 3.15372 12.5607C3.4624 14.1126 4.22433 15.538 5.34315 16.6569C6.46197 17.7757 7.88743 18.5376 9.43928 18.8463C10.9911 19.155 12.5997 18.9965 14.0615 18.391C15.5233 17.7855 16.7727 16.7601 17.6518 15.4446C18.5308 14.129 19 12.5822 19 11C19 8.87827 18.1571 6.84344 16.6569 5.34315C15.1566 3.84285 13.1217 3 11 3ZM11.1667 6.33333C11.3644 6.33333 11.5578 6.39198 11.7222 6.50186C11.8867 6.61174 12.0149 6.76792 12.0905 6.95065C12.1662 7.13337 12.186 7.33444 12.1475 7.52842C12.1089 7.7224 12.0136 7.90059 11.8738 8.04044C11.7339 8.18029 11.5557 8.27553 11.3618 8.31412C11.1678 8.3527 10.9667 8.3329 10.784 8.25721C10.6013 8.18152 10.4451 8.05335 10.3352 7.8889C10.2253 7.72445 10.1667 7.53111 10.1667 7.33333C10.1667 7.06812 10.272 6.81376 10.4596 6.62623C10.6471 6.43869 10.9015 6.33333 11.1667 6.33333ZM12.6667 15.3333H10C9.82319 15.3333 9.65362 15.2631 9.5286 15.1381C9.40357 15.013 9.33333 14.8435 9.33333 14.6667C9.33333 14.4899 9.40357 14.3203 9.5286 14.1953C9.65362 14.0702 9.82319 14 10 14H10.5C10.5442 14 10.5866 13.9824 10.6179 13.9512C10.6491 13.9199 10.6667 13.8775 10.6667 13.8333V10.8333C10.6667 10.7891 10.6491 10.7467 10.6179 10.7155C10.5866 10.6842 10.5442 10.6667 10.5 10.6667H10C9.82319 10.6667 9.65362 10.5964 9.5286 10.4714C9.40357 10.3464 9.33333 10.1768 9.33333 10C9.33333 9.82319 9.40357 9.65362 9.5286 9.52859C9.65362 9.40357 9.82319 9.33333 10 9.33333H10.6667C11.0203 9.33333 11.3594 9.47381 11.6095 9.72386C11.8595 9.9739 12 10.313 12 10.6667V13.8333C12 13.8775 12.0176 13.9199 12.0488 13.9512C12.0801 13.9824 12.1225 14 12.1667 14H12.6667C12.8435 14 13.013 14.0702 13.1381 14.1953C13.2631 14.3203 13.3333 14.4899 13.3333 14.6667C13.3333 14.8435 13.2631 15.013 13.1381 15.1381C13.013 15.2631 12.8435 15.3333 12.6667 15.3333Z" fill="white"/>
</g>
</svg>
