<svg width="16" height="16" viewBox="0 0 16 16" fill="none" xmlns="http://www.w3.org/2000/svg">
<g opacity="0.8">
<path d="M5.20016 1.33362H10.8002C12.9335 1.33362 14.6668 3.06695 14.6668 5.20028V10.8003C14.6668 11.8258 14.2594 12.8093 13.5343 13.5344C12.8092 14.2596 11.8257 14.667 10.8002 14.667H5.20016C3.06683 14.667 1.3335 12.9336 1.3335 10.8003V5.20028C1.3335 4.17478 1.74088 3.19128 2.46602 2.46614C3.19116 1.741 4.17466 1.33362 5.20016 1.33362ZM5.06683 2.66695C4.43031 2.66695 3.81986 2.91981 3.36977 3.3699C2.91969 3.81998 2.66683 4.43043 2.66683 5.06695V10.9336C2.66683 12.2603 3.74016 13.3336 5.06683 13.3336H10.9335C11.57 13.3336 12.1805 13.0808 12.6306 12.6307C13.0806 12.1806 13.3335 11.5701 13.3335 10.9336V5.06695C13.3335 3.74028 12.2602 2.66695 10.9335 2.66695H5.06683ZM11.5002 3.66695C11.7212 3.66695 11.9331 3.75475 12.0894 3.91103C12.2457 4.06731 12.3335 4.27927 12.3335 4.50028C12.3335 4.7213 12.2457 4.93326 12.0894 5.08954C11.9331 5.24582 11.7212 5.33362 11.5002 5.33362C11.2791 5.33362 11.0672 5.24582 10.9109 5.08954C10.7546 4.93326 10.6668 4.7213 10.6668 4.50028C10.6668 4.27927 10.7546 4.06731 10.9109 3.91103C11.0672 3.75475 11.2791 3.66695 11.5002 3.66695ZM8.00016 4.66695C8.88422 4.66695 9.73206 5.01814 10.3572 5.64326C10.9823 6.26838 11.3335 7.11623 11.3335 8.00029C11.3335 8.88434 10.9823 9.73219 10.3572 10.3573C9.73206 10.9824 8.88422 11.3336 8.00016 11.3336C7.11611 11.3336 6.26826 10.9824 5.64314 10.3573C5.01802 9.73219 4.66683 8.88434 4.66683 8.00029C4.66683 7.11623 5.01802 6.26838 5.64314 5.64326C6.26826 5.01814 7.11611 4.66695 8.00016 4.66695ZM8.00016 6.00029C7.46973 6.00029 6.96102 6.211 6.58595 6.58607C6.21088 6.96114 6.00016 7.46985 6.00016 8.00029C6.00016 8.53072 6.21088 9.03943 6.58595 9.4145C6.96102 9.78957 7.46973 10.0003 8.00016 10.0003C8.5306 10.0003 9.0393 9.78957 9.41438 9.4145C9.78945 9.03943 10.0002 8.53072 10.0002 8.00029C10.0002 7.46985 9.78945 6.96114 9.41438 6.58607C9.0393 6.211 8.5306 6.00029 8.00016 6.00029Z" fill="white"/>
</g>
</svg>
