<svg width="18" height="19" viewBox="0 0 18 19" fill="none" xmlns="http://www.w3.org/2000/svg">
<g clip-path="url(#clip0_1_310)">
<g clip-path="url(#clip1_1_310)">
<path d="M6.38241 2.00001H11.6175C11.7919 1.99996 11.9255 1.99993 12.0424 2.01136C12.8732 2.09264 13.5533 2.59218 13.8417 3.26508H4.1582C4.44659 2.59218 5.12666 2.09264 5.95752 2.01136C6.07437 1.99993 6.20805 1.99996 6.38241 2.00001Z" fill="white"/>
<path d="M4.7329 4.04236C3.68993 4.04236 2.83473 4.67217 2.54933 5.5077C2.54339 5.52512 2.53768 5.54263 2.53223 5.56022C2.83084 5.46979 3.14162 5.41071 3.45621 5.37038C4.2665 5.2665 5.2905 5.26655 6.48002 5.26662H11.6491C12.8386 5.26655 13.8626 5.2665 14.6729 5.37038C14.9875 5.41071 15.2983 5.46979 15.5969 5.56022C15.5915 5.54263 15.5858 5.52512 15.5798 5.5077C15.2944 4.67217 14.4392 4.04236 13.3962 4.04236H4.7329Z" fill="white"/>
<path fill-rule="evenodd" clip-rule="evenodd" d="M11.4957 6.15656H6.50429C3.97319 6.15656 2.70763 6.15655 1.99674 6.89668C1.28585 7.6368 1.45311 8.78024 1.78763 11.0672L2.10486 13.2358C2.3672 15.0293 2.49836 15.926 3.17126 16.463C3.84415 17 4.8366 17 6.82151 17H11.1784C13.1634 17 14.1559 17 14.8288 16.463C15.5017 15.926 15.6328 15.0293 15.8951 13.2358L16.2124 11.0672C16.5469 8.78031 16.7141 7.63679 16.0033 6.89668C15.2923 6.15655 14.0268 6.15656 11.4957 6.15656ZM10.9359 12.3457C11.3547 12.0861 11.3547 11.4139 10.9359 11.1544L8.4072 9.58672C8.00018 9.33442 7.5 9.66284 7.5 10.1824V13.3176C7.5 13.8372 8.00018 14.1656 8.4072 13.9133L10.9359 12.3457Z" fill="white"/>
</g>
</g>
<defs>
<clipPath id="clip0_1_310">
<rect width="18" height="19" fill="white"/>
</clipPath>
<clipPath id="clip1_1_310">
<rect width="18" height="19" fill="white"/>
</clipPath>
</defs>
</svg>
