<svg width="18" height="19" viewBox="0 0 18 19" fill="none" xmlns="http://www.w3.org/2000/svg">
<g clip-path="url(#clip0_1_320)">
<g clip-path="url(#clip1_1_320)">
<g clip-path="url(#clip2_1_320)">
<mask id="mask0_1_320" style="mask-type:luminance" maskUnits="userSpaceOnUse" x="0" y="0" width="18" height="19">
<path d="M18 0.5H0V18.5H18V0.5Z" fill="white"/>
</mask>
<g mask="url(#mask0_1_320)">
<path d="M8.24969 15.41C8.42343 15.408 8.58938 15.3376 8.71154 15.2141C8.83369 15.0905 8.9022 14.9238 8.90219 14.75V11.375C8.91801 11.1314 8.88367 10.8871 8.80132 10.6572C8.71896 10.4274 8.59032 10.2169 8.42337 10.0387C8.25641 9.8606 8.05469 9.71859 7.83067 9.62152C7.60664 9.52444 7.36509 9.47437 7.12094 9.47437C6.87679 9.47437 6.63523 9.52444 6.41121 9.62152C6.18719 9.71859 5.98546 9.8606 5.81851 10.0387C5.65155 10.2169 5.52292 10.4274 5.44056 10.6572C5.3582 10.8871 5.32387 11.1314 5.33969 11.375V14.75C5.32983 14.8421 5.33946 14.9352 5.36795 15.0233C5.39643 15.1114 5.44314 15.1925 5.50504 15.2614C5.56693 15.3303 5.64263 15.3854 5.7272 15.4231C5.81178 15.4608 5.90334 15.4803 5.99594 15.4803C6.08854 15.4803 6.1801 15.4608 6.26467 15.4231C6.34925 15.3854 6.42495 15.3303 6.48684 15.2614C6.54873 15.1925 6.59544 15.1114 6.62393 15.0233C6.65242 14.9352 6.66204 14.8421 6.65219 14.75V13.34C6.65413 13.2916 6.67473 13.2458 6.70969 13.2122C6.74464 13.1787 6.79123 13.16 6.83969 13.16H7.40219C7.45064 13.16 7.49723 13.1787 7.53219 13.2122C7.56714 13.2458 7.58775 13.2916 7.58969 13.34V14.75C7.58969 14.8367 7.60676 14.9225 7.63993 15.0026C7.6731 15.0827 7.72171 15.1554 7.783 15.2167C7.84428 15.278 7.91704 15.3266 7.99712 15.3598C8.07719 15.3929 8.16302 15.41 8.24969 15.41ZM6.83969 11.84C6.79123 11.84 6.74464 11.8213 6.70969 11.7878C6.67473 11.7542 6.65413 11.7084 6.65219 11.66V11.375C6.66665 11.2609 6.72224 11.156 6.80854 11.0799C6.89484 11.0039 7.00591 10.9619 7.12094 10.9619C7.23596 10.9619 7.34704 11.0039 7.43334 11.0799C7.51963 11.156 7.57522 11.2609 7.58969 11.375V11.66C7.58775 11.7084 7.56714 11.7542 7.53219 11.7878C7.49723 11.8213 7.45064 11.84 7.40219 11.84H6.83969Z" fill="white"/>
<path d="M15.6523 11C15.6523 10.9875 15.6549 10.9752 15.6598 10.9638C15.6648 10.9523 15.6721 10.942 15.6813 10.9336C15.6905 10.9251 15.7013 10.9187 15.7131 10.9146C15.7249 10.9105 15.7374 10.909 15.7498 10.91H17.2498C17.4249 10.91 17.5928 10.8405 17.7165 10.7167C17.8403 10.5929 17.9098 10.4251 17.9098 10.25C17.9098 10.075 17.8403 9.90711 17.7165 9.78334C17.5928 9.65956 17.4249 9.59003 17.2498 9.59003H15.7498C15.3759 9.59003 15.0172 9.73858 14.7528 10.003C14.4884 10.2674 14.3398 10.6261 14.3398 11V14C14.3398 14.374 14.4884 14.7326 14.7528 14.997C15.0172 15.2615 15.3759 15.41 15.7498 15.41H17.2498C17.4249 15.41 17.5928 15.3405 17.7165 15.2167C17.8403 15.0929 17.9098 14.9251 17.9098 14.75C17.9098 14.575 17.8403 14.4071 17.7165 14.2833C17.5928 14.1596 17.4249 14.09 17.2498 14.09H15.7498C15.7374 14.0911 15.7249 14.0895 15.7131 14.0855C15.7013 14.0814 15.6905 14.0749 15.6813 14.0665C15.6721 14.058 15.6648 14.0477 15.6598 14.0363C15.6549 14.0249 15.6523 14.0125 15.6523 14V13.34C15.6543 13.2916 15.6749 13.2458 15.7098 13.2123C15.7448 13.1787 15.7914 13.16 15.8398 13.16H16.4998C16.6749 13.16 16.8428 13.0905 16.9665 12.9667C17.0903 12.8429 17.1598 12.6751 17.1598 12.5C17.1598 12.325 17.0903 12.1571 16.9665 12.0333C16.8428 11.9096 16.6749 11.84 16.4998 11.84H15.8398C15.7914 11.8401 15.7448 11.8213 15.7098 11.7878C15.6749 11.7542 15.6543 11.7084 15.6523 11.66V11Z" fill="white"/>
<path d="M10.8748 9.59003C10.6998 9.59003 10.5319 9.65956 10.4082 9.78334C10.2844 9.90711 10.2148 10.075 10.2148 10.25V14C10.2148 14.374 10.3634 14.7326 10.6278 14.997C10.8922 15.2615 11.2509 15.41 11.6248 15.41H13.1248C13.2999 15.41 13.4678 15.3405 13.5915 15.2167C13.7153 15.0929 13.7848 14.9251 13.7848 14.75C13.7848 14.575 13.7153 14.4071 13.5915 14.2833C13.4678 14.1596 13.2999 14.09 13.1248 14.09H11.6248C11.6124 14.0911 11.5999 14.0895 11.5881 14.0855C11.5763 14.0814 11.5655 14.0749 11.5563 14.0665C11.5471 14.058 11.5398 14.0477 11.5348 14.0363C11.5299 14.0249 11.5273 14.0125 11.5273 14V10.25C11.5274 10.0763 11.4589 9.90953 11.3367 9.78597C11.2145 9.66241 11.0486 9.592 10.8748 9.59003Z" fill="white"/>
<path d="M4.02734 13.775C4.02504 13.5032 3.95532 13.2362 3.82442 12.998C3.69352 12.7597 3.50555 12.5577 3.27734 12.41L1.91984 11.495C1.8647 11.4557 1.82333 11.4 1.80161 11.3359C1.77989 11.2717 1.77892 11.2023 1.79884 11.1376C1.81876 11.0729 1.85856 11.016 1.91258 10.9752C1.96661 10.9343 2.03213 10.9115 2.09984 10.91H3.37484C3.54989 10.91 3.71776 10.8405 3.84153 10.7167C3.96531 10.5929 4.03484 10.4251 4.03484 10.25C4.03484 10.075 3.96531 9.90711 3.84153 9.78334C3.71776 9.65956 3.54989 9.59003 3.37484 9.59003H2.09984C1.66682 9.592 1.2521 9.76489 0.945904 10.0711C0.639708 10.3773 0.466817 10.792 0.464844 11.225C0.468463 11.4966 0.538753 11.7631 0.669532 12.0011C0.80031 12.2391 0.987571 12.4414 1.21484 12.59L2.59484 13.505C2.64957 13.5439 2.69079 13.599 2.71273 13.6624C2.73468 13.7259 2.73627 13.7946 2.71728 13.8591C2.69828 13.9235 2.65966 13.9804 2.60678 14.0218C2.55391 14.0632 2.48943 14.087 2.42234 14.09H1.12484C0.949801 14.09 0.781927 14.1596 0.658153 14.2833C0.534379 14.4071 0.464844 14.575 0.464844 14.75C0.464844 14.9251 0.534379 15.0929 0.658153 15.2167C0.781927 15.3405 0.949801 15.41 1.12484 15.41H2.39984C2.83217 15.408 3.24612 15.2349 3.55112 14.9285C3.85612 14.6221 4.02735 14.2074 4.02734 13.775Z" fill="white"/>
<path d="M16.125 17.75C16.125 17.5511 16.046 17.3603 15.9053 17.2197C15.7647 17.079 15.5739 17 15.375 17H2.625C2.42609 17 2.23532 17.079 2.09467 17.2197C1.95402 17.3603 1.875 17.5511 1.875 17.75C1.875 17.9489 1.95402 18.1397 2.09467 18.2803C2.23532 18.421 2.42609 18.5 2.625 18.5H15.375C15.5739 18.5 15.7647 18.421 15.9053 18.2803C16.046 18.1397 16.125 17.9489 16.125 17.75Z" fill="white"/>
<path d="M13.3125 4.61001C13.3161 4.59521 13.3161 4.5798 13.3125 4.56501C13.2225 4.25001 12.4125 1.31751 12.2325 0.63501C12.2198 0.595463 12.1947 0.561036 12.1609 0.536751C12.1272 0.512466 12.0866 0.499593 12.045 0.50001H9.75004C9.70032 0.50001 9.65263 0.519764 9.61746 0.554927C9.5823 0.59009 9.56254 0.637782 9.56254 0.68751V7.70751C9.56176 7.74328 9.57123 7.77854 9.58984 7.8091C9.60844 7.83967 9.63541 7.86427 9.66755 7.88001C10.2436 8.1571 10.8829 8.27616 11.52 8.22501C12.1605 8.1719 12.7759 7.95212 13.305 7.58751L13.3125 4.61001Z" fill="white"/>
<path d="M17.9997 4.3025L16.6797 1.25C16.6037 1.03762 16.466 0.852776 16.2843 0.719154C16.1026 0.585531 15.8851 0.50922 15.6597 0.5H13.5972C13.5693 0.500579 13.5418 0.507658 13.5171 0.520676C13.4924 0.533694 13.471 0.552293 13.4547 0.575C13.436 0.597639 13.4228 0.624368 13.4163 0.653029C13.4098 0.681691 13.4101 0.711483 13.4172 0.74L14.4147 4.3625C14.4226 4.41219 14.4226 4.46281 14.4147 4.5125V7.19C14.4152 7.22745 14.4269 7.2639 14.4483 7.29464C14.4697 7.32538 14.4998 7.34902 14.5347 7.3625C14.9093 7.51386 15.3149 7.57239 15.7169 7.53309C16.119 7.49379 16.5056 7.35784 16.8437 7.13682C17.1819 6.9158 17.4616 6.61628 17.659 6.26379C17.8563 5.9113 17.9655 5.51631 17.9772 5.1125V4.4525C17.9915 4.40377 17.9991 4.35329 17.9997 4.3025Z" fill="white"/>
<path d="M8.43751 0.6875C8.43751 0.637772 8.41776 0.590081 8.3826 0.554917C8.34743 0.519754 8.29974 0.5 8.25001 0.5H5.94751C5.90724 0.50115 5.86831 0.514746 5.83608 0.538921C5.80385 0.563095 5.77989 0.596659 5.76751 0.635C5.58751 1.3175 4.77751 4.25 4.69501 4.565C4.69151 4.57979 4.69151 4.59521 4.69501 4.61V7.475C4.69395 7.50615 4.701 7.53704 4.71546 7.56465C4.72992 7.59226 4.7513 7.61564 4.77751 7.6325C5.29197 7.96948 5.88221 8.17311 6.49501 8.225H6.79501C7.33015 8.22681 7.85862 8.10624 8.34001 7.8725C8.37159 7.85607 8.39807 7.83131 8.41658 7.8009C8.43509 7.77049 8.44493 7.7356 8.44501 7.7L8.43751 0.6875Z" fill="white"/>
<path d="M3.56238 4.5125C3.55831 4.46258 3.55831 4.41242 3.56238 4.3625L4.57488 0.74C4.58804 0.714489 4.5949 0.686203 4.5949 0.6575C4.5949 0.628797 4.58804 0.600511 4.57488 0.575C4.55703 0.552127 4.53431 0.533526 4.50836 0.520551C4.48241 0.507576 4.45389 0.500555 4.42488 0.5H2.33988C2.11451 0.50922 1.89702 0.585531 1.71529 0.719154C1.53356 0.852776 1.39588 1.03762 1.31988 1.25L-0.000116808 4.3025C-0.00647148 4.3523 -0.00647148 4.4027 -0.000116808 4.4525V5.135C0.0105999 5.60618 0.158105 6.06407 0.424432 6.45291C0.690759 6.84175 1.06441 7.14475 1.49988 7.325C1.80555 7.46258 2.13591 7.53682 2.47105 7.54327C2.80618 7.54972 3.13915 7.48822 3.44988 7.3625C3.48483 7.34902 3.51493 7.32538 3.53632 7.29464C3.55771 7.2639 3.5694 7.22745 3.56988 7.19L3.56238 4.5125Z" fill="white"/>
</g>
</g>
</g>
</g>
<defs>
<clipPath id="clip0_1_320">
<rect width="18" height="19" fill="white"/>
</clipPath>
<clipPath id="clip1_1_320">
<rect width="18" height="19" fill="white"/>
</clipPath>
<clipPath id="clip2_1_320">
<rect width="18" height="19" fill="white"/>
</clipPath>
</defs>
</svg>
