<svg width="18" height="19" viewBox="0 0 18 19" fill="none" xmlns="http://www.w3.org/2000/svg">
<g clip-path="url(#clip0_1_303)">
<path fill-rule="evenodd" clip-rule="evenodd" d="M0.750174 8.75C0.750174 4.60786 4.10804 1.25 8.2502 1.25C11.6238 1.25 14.4771 3.47743 15.4198 6.54185C14.3385 5.80546 13.032 5.375 11.6251 5.375C7.89717 5.375 4.87512 8.39705 4.87512 12.125C4.87512 13.6784 5.39986 15.1093 6.28175 16.2499L0.146973 16.2498L2.12703 13.0819C1.26011 11.8585 0.750174 10.363 0.750174 8.75ZM6.00012 12.125C6.00012 9.01842 8.51855 6.5 11.6251 6.5C14.7317 6.5 17.2501 9.01842 17.2501 12.125C17.2501 13.2846 16.8985 14.3635 16.2966 15.2593L17.8533 17.7498L11.6251 17.75C8.51855 17.75 6.00012 15.2316 6.00012 12.125Z" fill="white"/>
</g>
<defs>
<clipPath id="clip0_1_303">
<rect width="18" height="19" fill="white"/>
</clipPath>
</defs>
</svg>
