<svg width="18" height="18" viewBox="0 0 18 18" fill="none" xmlns="http://www.w3.org/2000/svg">
<g clip-path="url(#clip0_10_541)">
<path d="M12.9062 2.7113C14.0186 2.71256 15.0855 3.1543 15.8721 3.9408C16.6095 4.67821 17.0442 5.66199 17.0967 6.69861L17.1025 6.90662C17.1021 9.33717 15.2772 11.6431 13.2256 13.4398C11.239 15.1796 9.20583 16.2965 9 16.4066C8.79321 16.296 6.76045 15.1791 4.77441 13.4398C2.72285 11.6431 0.898843 9.33713 0.898438 6.90662C0.899691 5.79425 1.34137 4.72736 2.12793 3.9408C2.91428 3.15445 3.98073 2.71279 5.09277 2.7113C6.51643 2.7113 7.73102 3.31967 8.48047 4.31775L9 5.01013L9.51953 4.31775C10.2688 3.31984 11.483 2.7116 12.9062 2.7113Z" stroke="white" stroke-width="1.3"/>
</g>
<defs>
<clipPath id="clip0_10_541">
<rect width="18" height="18" fill="white"/>
</clipPath>
</defs>
</svg>
