<svg width="16" height="16" viewBox="0 0 16 16" fill="none" xmlns="http://www.w3.org/2000/svg">
<g opacity="0.8" clip-path="url(#clip0_39_2144)">
<path d="M8.83651 4.0428L9.52401 3.3553C9.79459 3.08464 10.1158 2.86994 10.4694 2.72346C10.823 2.57698 11.2019 2.50159 11.5846 2.50159C11.9673 2.50159 12.3463 2.57698 12.6999 2.72346C13.0534 2.86994 13.3747 3.08464 13.6453 3.3553C13.9159 3.62587 14.1306 3.94712 14.2771 4.30069C14.4236 4.65425 14.499 5.03321 14.499 5.41592C14.499 5.79863 14.4236 6.17759 14.2771 6.53116C14.1306 6.88472 13.9159 7.20597 13.6453 7.47655L12.1215 9.0003L11.4753 9.64655C11.2044 9.91748 10.8827 10.1323 10.5287 10.2788C10.1747 10.4253 9.79525 10.5006 9.41211 10.5003C9.02898 10.5 8.64967 10.4242 8.29587 10.2772C7.94208 10.1301 7.62075 9.91477 7.35026 9.64342C7.07029 9.36355 6.85047 9.02942 6.7043 8.66152C6.55814 8.29363 6.4887 7.89974 6.50026 7.50405" stroke="white" stroke-width="1.3" stroke-linecap="round" stroke-linejoin="round"/>
<path d="M7.16398 11.9575L6.47648 12.645C6.20559 12.9159 5.88393 13.1308 5.52991 13.2773C5.17589 13.4238 4.79647 13.499 4.41333 13.4987C4.0302 13.4984 3.65089 13.4226 3.29709 13.2756C2.9433 13.1285 2.62196 12.9132 2.35148 12.6418C1.80647 12.0949 1.50076 11.3541 1.50147 10.582C1.50217 9.8099 1.80923 9.06962 2.35523 8.52371L4.52523 6.35371C4.79581 6.08306 5.11706 5.86836 5.47062 5.72188C5.82419 5.57539 6.20315 5.5 6.58586 5.5C6.96857 5.5 7.34752 5.57539 7.70109 5.72188C8.05466 5.86836 8.3759 6.08306 8.64648 6.35371C8.92761 6.63356 9.1484 6.96805 9.29524 7.33654C9.44208 7.70503 9.51185 8.09971 9.50023 8.49621" stroke="white" stroke-width="1.3" stroke-linecap="round" stroke-linejoin="round"/>
</g>
<defs>
<clipPath id="clip0_39_2144">
<rect width="16" height="16" fill="white"/>
</clipPath>
</defs>
</svg>
