<svg width="22" height="22" viewBox="0 0 22 22" fill="none" xmlns="http://www.w3.org/2000/svg">
<path d="M18.0583 16.1333C17.9667 15.95 17.875 15.7667 17.875 15.5833C17.875 15.2167 17.6917 14.9417 17.4167 14.6667C17.325 14.575 17.1417 14.4833 17.05 14.4833C17.6 12.8333 16.775 11.1833 15.8583 9.99165C15.125 8.89165 14.025 8.06665 14.1167 6.59999C14.1167 4.85832 14.3 1.64999 11.0917 1.92499C7.79167 2.10832 8.70833 5.49999 8.61667 6.69165C8.61667 7.69999 8.15833 8.70832 7.425 9.53332C7.24167 9.71665 7.05833 9.99165 6.96667 10.175C6.05 11.275 5.59167 12.7417 5.59167 14.1167C5.40833 14.3 5.225 14.4833 5.13333 14.6667C5.04167 14.7583 4.95 14.85 4.95 14.9417C4.85833 15.0333 4.675 15.125 4.49167 15.2167C4.125 15.3083 3.85 15.4917 3.66667 15.8583C3.575 16.1333 3.48333 16.5 3.575 16.8667C3.66667 17.05 3.66667 17.2333 3.575 17.5083C3.39167 17.875 3.39167 18.3333 3.575 18.7917C3.85 19.1583 4.30833 19.25 4.95 19.3417C5.40833 19.3417 5.95833 19.525 6.41667 19.7083C6.875 19.9833 7.425 20.1667 7.975 20.1667C8.25 20.1667 8.61667 20.075 8.89167 19.9833C9.16667 19.8 9.35 19.6167 9.44167 19.3417C9.80833 19.3417 10.3583 19.1583 11 19.1583C11.55 19.1583 12.1 19.3417 12.8333 19.25C12.8333 19.3417 12.8333 19.4333 12.925 19.525C13.1083 19.9833 13.5667 20.35 14.1167 20.4417H14.3C15.0333 20.35 15.7667 19.9833 16.225 19.4333C16.5917 19.0667 17.05 18.7917 17.5083 18.6083C18.0583 18.3333 18.425 18.15 18.5167 17.6917C18.6083 17.05 18.425 16.6833 18.0583 16.1333ZM11.7333 4.39999C12.2833 4.49165 12.7417 4.94999 12.65 5.49999C12.65 5.77499 12.5583 6.04999 12.375 6.32499H12.2833C12.1 6.23332 12.0083 6.23332 11.9167 6.14165C12.0083 6.04999 12.0083 5.86665 12.1 5.68332C12.1 5.31665 11.9167 5.04165 11.7333 5.04165C11.4583 5.04165 11.275 5.31665 11.275 5.68332V5.77499C11.1833 5.68332 11 5.68332 10.9083 5.59165V5.49999C10.8167 5.04165 11.1833 4.49165 11.7333 4.39999ZM11.4583 6.23332C11.55 6.32499 11.7333 6.41665 11.825 6.41665C11.9167 6.41665 12.1 6.50832 12.1917 6.59999C12.375 6.69165 12.5583 6.78332 12.5583 7.05832C12.5583 7.33332 12.2833 7.60832 11.7333 7.79165C11.55 7.88332 11.4583 7.88332 11.3667 7.97499C11.0917 8.15832 10.8167 8.24999 10.45 8.24999C10.175 8.24999 9.9 8.06666 9.71667 7.88332C9.625 7.79166 9.53333 7.69999 9.35 7.60832C9.25833 7.51665 9.075 7.33332 8.98333 7.05832C8.98333 6.96665 9.075 6.87499 9.16667 6.78332C9.44167 6.59999 9.53333 6.50832 9.625 6.41665L9.71667 6.32499C9.9 6.04999 10.2667 5.86665 10.6333 5.86665C10.9083 5.95832 11.1833 6.04999 11.4583 6.23332ZM9.53333 4.58332C9.9 4.58332 10.175 4.94999 10.2667 5.59165V5.77499C10.175 5.77499 9.99167 5.86665 9.9 5.95832V5.77499C9.9 5.49999 9.71667 5.22499 9.53333 5.31665C9.35 5.31665 9.25833 5.59165 9.25833 5.86665C9.25833 6.04999 9.35 6.14165 9.44167 6.23332C9.44167 6.23332 9.35 6.32499 9.25833 6.32499C9.075 6.14165 8.89167 5.86665 8.89167 5.59165C8.89167 5.04165 9.16667 4.58332 9.53333 4.58332ZM8.61667 19.3417C7.975 19.6167 7.15 19.525 6.6 19.1583C6.05 18.8833 5.59167 18.7917 4.95 18.7917C4.49167 18.7 4.03333 18.7 3.94167 18.5167C3.85 18.3333 3.85 18.0583 4.03333 17.6C4.125 17.325 4.125 17.05 4.03333 16.775C3.94167 16.5 3.94167 16.3167 4.03333 16.0417C4.125 15.7667 4.30833 15.675 4.58333 15.5833C4.85833 15.4917 5.04167 15.4 5.225 15.2167C5.31667 15.125 5.40833 15.0333 5.5 14.85C5.775 14.4833 5.95833 14.3 6.23333 14.3C6.78333 14.3917 7.24167 15.2167 7.60833 16.0417C7.79167 16.3167 7.975 16.6833 8.25 16.9583C8.61667 17.4167 9.075 18.0583 9.075 18.425C9.075 18.8833 8.89167 19.1583 8.61667 19.3417ZM13.1083 17.325C13.1083 17.4167 13.1083 17.4167 13.0167 17.5083C11.9167 18.3333 10.45 18.425 9.25833 17.7833L8.70833 16.9583C9.53333 16.8667 9.35 15.7667 7.60833 14.6667C5.775 13.475 7.05833 11.275 7.7 10.2667C7.79167 10.175 7.79167 10.2667 7.425 11C7.15 11.55 6.6 12.925 7.33333 13.9333C7.33333 13.2 7.51667 12.4667 7.79167 11.7333C8.43333 10.5417 8.89167 9.16665 9.16667 7.79165C9.25833 7.88332 9.25833 7.88332 9.35 7.88332C9.44167 7.97499 9.53333 8.06665 9.625 8.06665C9.80833 8.34165 10.175 8.43332 10.45 8.43332H10.5417C10.9083 8.43332 11.275 8.34165 11.55 8.06665C11.6417 7.97499 11.7333 7.88332 11.9167 7.88332C12.1917 7.79166 12.4667 7.60832 12.7417 7.33332C13.1083 8.52499 13.475 9.62499 14.025 10.6333C14.3917 11.3667 14.6667 12.1 14.85 12.925C15.125 12.925 15.4917 13.0167 15.7667 13.2C16.5 13.5667 16.775 13.8417 16.6833 14.3H16.5C16.5 14.025 16.3167 13.75 15.675 13.475C15.0333 13.2 14.4833 13.2 14.3 13.8417C14.2083 13.8417 14.1167 13.9333 14.025 13.9333C13.2917 14.3 13.2917 15.3083 13.2 16.3167C13.2917 16.6833 13.2 16.9583 13.1083 17.325ZM17.325 17.875C16.775 18.0583 16.3167 18.425 15.95 18.8833C15.5833 19.4333 14.9417 19.8 14.2083 19.7083C13.8417 19.7083 13.475 19.4333 13.3833 19.0667C13.2917 18.5167 13.2917 17.9667 13.5667 17.4167C13.6583 17.05 13.75 16.775 13.8417 16.4083C13.9333 15.3083 13.9333 14.6667 14.3917 14.3917C14.3917 14.85 14.6667 15.125 15.0333 15.3083C15.4917 15.3083 15.95 15.2167 16.3167 14.85H16.5C16.775 14.85 16.9583 14.85 17.1417 15.0333C17.325 15.2167 17.4167 15.4917 17.4167 15.675C17.4167 15.95 17.6 16.225 17.6917 16.5C18.15 16.9583 18.15 17.2333 18.15 17.325C18.0583 17.5083 17.6917 17.6917 17.325 17.875ZM9.075 6.87499C8.98333 6.87499 8.98333 6.87499 8.98333 6.96665C8.98333 6.96665 8.98333 7.05832 9.075 7.05832C9.16667 7.05832 9.16667 7.14999 9.16667 7.14999C9.44167 7.51665 9.9 7.69999 10.45 7.79165C10.9083 7.69999 11.3667 7.60832 11.825 7.24165L12.375 6.96665C12.4667 6.96665 12.4667 6.87499 12.4667 6.87499C12.4667 6.78332 12.4667 6.78332 12.375 6.78332C12.1917 6.87499 11.9167 6.96665 11.7333 7.05832C11.3667 7.33332 10.9083 7.51665 10.45 7.51665C9.99167 7.51665 9.625 7.24165 9.35 6.96665C9.25833 6.96665 9.16667 6.87499 9.075 6.87499Z" fill="#D4D4D5"/>
</svg>
