<svg width="101" height="28" viewBox="0 0 101 28" fill="none" xmlns="http://www.w3.org/2000/svg">
<path d="M0.231193 0.533045C0.152628 0.616232 0.148006 1.2124 0.148006 8.06914C0.148006 15.217 0.152628 15.519 0.235814 15.5929C0.31438 15.6668 0.457645 15.6761 1.22635 15.6761C1.71777 15.6761 2.16605 15.6561 2.21535 15.6268C2.26464 15.6021 2.32318 15.519 2.34321 15.445C2.36786 15.3649 2.3771 13.3007 2.36324 10.8451C2.34783 8.38956 2.34783 6.34379 2.35861 6.29449C2.38788 6.13736 2.49572 6.2113 2.61896 6.46702C2.68828 6.61029 2.76222 6.78283 2.78225 6.85215C2.82076 7.00004 3.058 7.52688 3.22437 7.85347C3.29369 7.98133 3.34761 8.10919 3.34761 8.14308C3.34761 8.17389 3.40153 8.31099 3.47085 8.44964C3.6819 8.89792 4.18564 10.041 4.18564 10.0856C4.18564 10.1103 4.22877 10.1842 4.28269 10.2536C4.33815 10.3229 4.38128 10.4107 4.38128 10.4507C4.38128 10.4954 4.44598 10.6572 4.52917 10.8205C4.60773 10.9837 4.67706 11.1363 4.67706 11.1563C4.67706 11.1809 4.74638 11.3427 4.82956 11.526C5.08066 12.0821 5.21469 12.364 5.34255 12.629C5.40571 12.7723 5.47503 12.9448 5.49506 13.0141C5.53357 13.1574 5.69224 13.4039 5.80007 13.4917C5.85399 13.5363 6.08969 13.5564 6.57802 13.5564H7.28203L7.42992 13.3746C7.5131 13.2698 7.60707 13.1127 7.63634 13.0141C7.69488 12.837 7.91671 12.3394 8.08 12.0236C8.13392 11.925 8.17243 11.811 8.17243 11.7771C8.17243 11.7371 8.24176 11.5753 8.32032 11.412C8.39889 11.2487 8.46821 11.0823 8.46821 11.0377C8.46821 10.993 8.51288 10.9036 8.56218 10.8359C8.6161 10.7712 8.6808 10.6279 8.71007 10.5247C8.73934 10.4168 8.80866 10.2582 8.86257 10.1796C8.91649 10.0964 8.96117 10.0025 8.96117 9.96702C8.96117 9.90849 9.23229 9.29691 9.40945 8.96262C9.45875 8.86403 9.50188 8.75466 9.50188 8.72539C9.50188 8.66685 9.73449 8.14308 9.92089 7.77336C9.99022 7.6455 10.0441 7.51764 10.0441 7.49299C10.0441 7.46372 10.0888 7.34511 10.1473 7.23111C10.2013 7.11865 10.2906 6.8922 10.3445 6.72891C10.4477 6.40386 10.6357 6.04801 10.7035 6.04339C10.7343 6.03877 10.7435 7.8966 10.7389 10.7219L10.7235 15.405L10.8313 15.5436L10.9361 15.6761H12.8463L12.9449 15.5482L13.0481 15.4142L13.0373 8.00136C13.0234 0.645502 13.0234 0.582341 12.9249 0.513019C12.8463 0.45294 12.6537 0.443697 11.8804 0.45294C10.9992 0.468345 10.9299 0.472966 10.8621 0.566936C10.7635 0.705581 10.5756 1.08916 10.3892 1.5282C10.3045 1.73001 10.1828 2.01192 10.1135 2.1444C10.0488 2.28305 9.99484 2.42015 9.99484 2.45558C9.99484 2.48947 9.94092 2.60347 9.8716 2.70206C9.80228 2.80065 9.74836 2.91311 9.74836 2.95316C9.74836 2.99167 9.69444 3.11491 9.63128 3.22429C9.56658 3.33674 9.49726 3.48001 9.47723 3.54933C9.43872 3.67719 9.30007 3.98837 9.05514 4.51522C8.97503 4.67851 8.91187 4.84026 8.91187 4.8757C8.91187 4.90959 8.87182 4.99893 8.8179 5.06826C8.7686 5.1422 8.71007 5.25466 8.69004 5.32398C8.67001 5.3933 8.55756 5.65364 8.43432 5.91091C8.3157 6.16663 8.17243 6.47781 8.12314 6.60105C8.07538 6.72429 8.00144 6.8922 7.95676 6.97539C7.91209 7.05395 7.8782 7.15254 7.8782 7.1926C7.8782 7.22649 7.82428 7.36051 7.75958 7.48837C7.54853 7.88736 7.11874 8.86403 7.0602 9.07046C7.04017 9.13978 6.98625 9.25224 6.93696 9.32618C6.88304 9.3955 6.82912 9.52952 6.81372 9.62195C6.76442 9.86381 6.70588 9.95778 6.58727 9.95778C6.47019 9.95778 6.35619 9.82992 6.35157 9.68203C6.35157 9.62812 6.29765 9.47407 6.23295 9.33696C6.16979 9.20294 6.03577 8.90717 5.93256 8.67609C5.83397 8.44502 5.70148 8.14308 5.63678 8.0106C5.57362 7.87195 5.455 7.62085 5.37644 7.4437C5.29787 7.26654 5.17463 7.00004 5.10069 6.85215C5.03137 6.70426 4.97283 6.55637 4.97283 6.53173C4.97283 6.50708 4.91891 6.37459 4.85421 6.23595C4.79105 6.10347 4.66781 5.83234 4.57846 5.6444C4.49528 5.45184 4.37204 5.19612 4.30272 5.07288C4.23956 4.94502 4.18564 4.81099 4.18564 4.78173C4.18564 4.74783 4.13018 4.60457 4.06702 4.46592C3.80514 3.92367 3.39691 2.98705 3.39691 2.93776C3.39691 2.90849 3.34299 2.80065 3.27367 2.70206C3.20434 2.60347 3.15043 2.48947 3.15043 2.44942C3.15043 2.41553 3.09651 2.27688 3.03335 2.13978C2.92397 1.91333 2.59431 1.17389 2.5558 1.05989C2.48185 0.862711 2.22459 0.492993 2.1414 0.472966C2.08749 0.459102 1.65461 0.443697 1.17706 0.443697C0.399107 0.443697 0.300515 0.45294 0.231193 0.533045Z" fill="white"/>
<path d="M14.624 0.542289C14.5254 0.64088 14.5254 0.685554 14.5346 8.08916C14.55 15.3957 14.55 15.5374 14.6425 15.6068C14.7272 15.6668 15.4605 15.6761 19.438 15.6761C22.4081 15.6761 24.1658 15.6561 24.2243 15.6268C24.3876 15.5374 24.4169 15.3264 24.3876 14.4144C24.363 13.6457 24.3476 13.5317 24.2644 13.4485C24.175 13.3592 24.0426 13.3546 20.5718 13.3638C17.6018 13.3684 16.9671 13.3592 16.9332 13.3007C16.9085 13.2652 16.8885 12.3687 16.8885 11.3088C16.8885 9.6959 16.8978 9.36623 16.9578 9.32156C17.0118 9.27688 17.7851 9.26302 20.0096 9.26764L22.9935 9.27226L23.1167 9.14902C23.24 9.02578 23.24 9.02116 23.24 8.10919C23.24 7.19722 23.24 7.1926 23.1167 7.06936L22.9935 6.94612L20.0142 6.95536C17.725 6.95998 17.0164 6.94612 16.9625 6.90144C16.8978 6.84753 16.8885 6.54097 16.8885 4.80175C16.8885 3.3922 16.9024 2.75598 16.9424 2.73133C16.9717 2.71592 18.5723 2.70206 20.4979 2.70668C22.9596 2.7113 24.0472 2.70206 24.1612 2.66201C24.4015 2.57266 24.4308 2.44018 24.4123 1.47891C24.3969 0.656285 24.3923 0.631637 24.2783 0.537667C24.1704 0.448319 24.0179 0.443697 19.4442 0.443697C14.7811 0.443697 14.721 0.443697 14.624 0.542289Z" fill="white"/>
<path d="M29.9613 0.325136C28.9414 0.452997 28.7689 0.488428 28.3561 0.625532C28.125 0.705637 27.8539 0.818093 27.7599 0.878172C27.6659 0.936711 27.5581 0.986007 27.5242 0.986007C27.4888 0.986007 27.3116 1.0846 27.1344 1.20322C26.3026 1.75471 25.8204 2.36629 25.4954 3.31215L25.3321 3.77122V5.89094L25.4954 6.35462C25.6818 6.9015 25.9036 7.27584 26.2333 7.61629C26.6369 8.03068 27.233 8.43891 27.5334 8.50361C27.6228 8.52364 27.7399 8.57293 27.7938 8.60683C27.8492 8.64226 28.051 8.70542 28.2374 8.74547C28.43 8.78398 28.6811 8.8533 28.7997 8.89336C28.9168 8.93803 29.1925 8.99195 29.4144 9.02122C29.6362 9.04587 29.9212 9.09978 30.0598 9.14446C30.1923 9.18451 30.4927 9.24305 30.7238 9.2677C30.9549 9.29235 31.2999 9.37091 31.4879 9.44023C31.6789 9.50493 31.8761 9.56347 31.9362 9.56347C32.064 9.56347 32.5554 9.82536 32.7973 10.0164C33.0869 10.249 33.2841 10.5987 33.338 10.9838C33.4073 11.4521 33.3534 11.9497 33.2009 12.2593C33.0684 12.5258 32.7141 12.9649 32.634 12.9649C32.6047 12.9649 32.5216 13.0096 32.443 13.0635C32.369 13.122 32.0733 13.2452 31.7975 13.3438L31.2907 13.5272H30.1338C29.0108 13.5318 28.9661 13.5272 28.5825 13.3993C28.3653 13.3254 28.1096 13.2514 28.0156 13.2314C27.9232 13.216 27.7645 13.1574 27.6721 13.1081C27.5781 13.0542 27.421 12.9803 27.327 12.9402C26.9681 12.7769 26.7647 12.6537 26.4797 12.418C26.1162 12.1114 25.9729 12.1022 25.7511 12.3579C24.9778 13.2761 24.7174 13.6211 24.7174 13.7444C24.7174 13.843 24.8006 13.9554 25.0563 14.1973C25.2396 14.3744 25.4907 14.5716 25.6078 14.6363C26.0669 14.892 26.6615 15.1832 26.7262 15.1832C26.7601 15.1832 26.8941 15.2371 27.022 15.3064C27.1499 15.3758 27.3024 15.4297 27.3655 15.4297C27.4256 15.4297 27.6166 15.479 27.7845 15.5329C28.2421 15.6916 28.5871 15.7301 29.6655 15.7593C30.8763 15.7901 31.7821 15.7208 32.3244 15.5483C32.5416 15.4836 32.7434 15.4297 32.7773 15.4297C32.8312 15.4297 33.1917 15.2618 33.8156 14.9413C34.1221 14.7842 35.0125 13.8815 35.1604 13.5811C35.2297 13.4424 35.3175 13.2807 35.3622 13.2114C35.4069 13.142 35.5055 12.8663 35.5794 12.5952C35.7119 12.1361 35.7212 12.0437 35.7212 11.2642C35.7165 10.4847 35.7073 10.3969 35.5794 9.98249C35.5009 9.73601 35.3576 9.39556 35.2636 9.2184C34.9247 8.6022 34.0728 7.87201 33.4027 7.62091C32.6895 7.3544 32.044 7.1526 31.7821 7.11871C31.6496 7.09868 31.4032 7.04477 31.2414 6.99547C31.0781 6.94617 30.7685 6.8861 30.5513 6.85683C30.3356 6.83218 30.0691 6.77826 29.9566 6.73821C29.8473 6.6997 29.6254 6.63962 29.4637 6.61035C29.1479 6.54719 28.5918 6.31457 28.296 6.12201C27.5735 5.64446 27.4256 4.42131 27.9863 3.57403C28.1589 3.31215 28.5964 2.94243 28.8043 2.88852C28.8721 2.86849 29.0508 2.80071 29.2033 2.73601C29.4344 2.63279 29.5823 2.61277 30.2124 2.5835C31.0442 2.54807 31.8175 2.60815 32.0486 2.72676C32.1318 2.7699 32.329 2.83922 32.4861 2.88389C32.6402 2.92857 32.7973 2.99173 32.8312 3.02254C32.8666 3.04719 32.9991 3.12575 33.127 3.18891C33.4274 3.34296 33.6985 3.50471 33.8156 3.61409C33.8849 3.67725 33.9742 3.69727 34.1021 3.68803C34.2793 3.67263 34.3085 3.64336 34.5011 3.3522C34.7075 3.02716 34.8893 2.78068 35.219 2.37553C35.4069 2.13984 35.4516 1.9673 35.3422 1.87333C35.3083 1.84868 35.165 1.75009 35.0326 1.66074C34.8939 1.57756 34.7368 1.47434 34.6875 1.43891C34.6336 1.40502 34.4903 1.33108 34.3671 1.27716C34.2454 1.21708 34.1113 1.14314 34.0728 1.10925C34.0328 1.07536 33.9095 1.0199 33.8017 0.986007C33.6939 0.952116 33.5398 0.887415 33.4566 0.83812C33.3781 0.793445 33.2009 0.724123 33.0684 0.694854C32.9344 0.660963 32.768 0.607045 32.6987 0.566993C32.5708 0.502292 32.3644 0.468401 31.2661 0.315892C30.6745 0.237327 30.6314 0.237327 29.9613 0.325136Z" fill="white"/>
<path d="M36.1894 0.542289C36.0908 0.64088 36.0908 0.685554 36.1016 8.08916C36.1154 15.3957 36.1154 15.5374 36.2094 15.6068C36.288 15.6607 36.5144 15.6761 37.2724 15.6761C38.1782 15.6761 38.2475 15.6715 38.3461 15.5775C38.4046 15.519 38.4539 15.4389 38.4539 15.3896C38.4601 15.3464 38.4539 13.9754 38.4539 12.344L38.4493 9.38626L38.5772 9.32618C38.6711 9.28305 39.4737 9.26764 41.5765 9.26764C44.1661 9.26764 44.4572 9.27688 44.5158 9.34621C44.5697 9.41091 44.5789 9.97781 44.5743 12.4226C44.565 15.3711 44.565 15.425 44.6636 15.5482L44.7622 15.6761H45.7173C46.5492 15.6761 46.6771 15.6668 46.771 15.5867L46.8789 15.5036V8.07992C46.8742 3.99299 46.865 0.620854 46.8496 0.57618C46.8296 0.537667 46.771 0.488371 46.711 0.472966C46.5538 0.428292 44.7915 0.439075 44.7222 0.48375C44.5789 0.571558 44.5697 0.847307 44.5697 3.86513C44.5743 5.72297 44.5604 6.97077 44.5296 7.00004C44.5003 7.0293 43.2849 7.04933 41.5118 7.04933C39.1086 7.05395 38.5279 7.04471 38.494 6.99079C38.4739 6.95536 38.4539 5.56121 38.4539 3.8944C38.4601 2.22759 38.4601 0.813415 38.4539 0.748715C38.4539 0.690176 38.4108 0.596206 38.3553 0.542289C38.2629 0.448319 38.1936 0.443697 37.2724 0.443697C36.3527 0.443697 36.2834 0.448319 36.1894 0.542289Z" fill="white"/>
<path d="M48.4994 0.542289C48.4008 0.64088 48.4008 0.705581 48.4008 8.05989C48.4008 15.4142 48.4008 15.4789 48.4994 15.5775C48.5918 15.6715 48.6611 15.6761 49.5531 15.6761C50.4389 15.6761 50.5128 15.6715 50.636 15.5729L50.7639 15.4743V8.05527C50.7639 0.705581 50.7639 0.64088 50.6653 0.542289C50.5713 0.448319 50.5036 0.443697 49.5823 0.443697C48.6611 0.443697 48.5918 0.448319 48.4994 0.542289Z" fill="white"/>
<path d="M52.3445 0.526884L52.2413 0.616232V7.93666C52.2413 11.9635 52.2413 15.3064 52.2413 15.3649C52.2413 15.4296 52.2859 15.5236 52.3399 15.5775C52.4323 15.6715 52.5016 15.6761 53.3889 15.6761C54.1314 15.6761 54.3579 15.6607 54.4365 15.6068C54.5304 15.5374 54.5304 15.4204 54.5397 10.3475C54.5505 7.20184 54.5705 5.1422 54.5998 5.11139C54.6444 5.06826 54.7862 5.26544 55.1713 5.91553C55.2745 6.09268 55.4116 6.30065 55.4763 6.3746C55.5395 6.45316 55.5888 6.53173 55.5888 6.55637C55.5888 6.5764 55.6981 6.75818 55.826 6.95998C55.9585 7.15717 56.1849 7.5084 56.3282 7.73947C56.4699 7.97055 56.6471 8.24167 56.7164 8.34643C56.7857 8.44964 56.8689 8.56826 56.8936 8.61139C56.9428 8.69612 57.1061 8.95184 57.4851 9.53877C58.3817 10.9283 58.5927 11.2641 58.6667 11.3874C58.7052 11.4567 58.8777 11.7232 59.0502 11.9882C59.4893 12.6644 59.7342 13.0542 59.8436 13.2313C60.1086 13.6596 60.868 14.8381 61.0051 15.0352C61.0498 15.1046 61.1284 15.2324 61.173 15.3218C61.3348 15.636 61.4688 15.6761 62.4239 15.6761C63.2604 15.6761 63.2758 15.6761 63.3929 15.5529L63.5161 15.4342V8.04449C63.5161 1.75003 63.5069 0.645502 63.4468 0.562315C63.3836 0.472966 63.3005 0.468345 62.3746 0.45294C61.5566 0.443697 61.3548 0.45294 61.2763 0.513019C61.1777 0.582341 61.1777 0.645502 61.1684 5.85083C61.1576 11.6831 61.173 11.4567 60.8572 10.8359C60.7694 10.6679 60.6416 10.4353 60.5676 10.3275C60.4336 10.1349 60.2811 9.89924 60.03 9.48947C59.9622 9.38164 59.8682 9.23837 59.8143 9.16905C59.765 9.09973 59.6757 8.95646 59.6218 8.84863C59.5632 8.74079 59.4246 8.51896 59.3121 8.35567C59.1103 8.05989 58.8346 7.61623 58.7745 7.48837C58.7545 7.44832 58.6759 7.32508 58.602 7.21262C58.223 6.63032 57.8194 5.99409 57.7562 5.87085C57.7116 5.79691 57.5729 5.59048 57.445 5.40717C57.3172 5.23001 57.214 5.06826 57.214 5.04823C57.214 5.0282 57.0954 4.83564 56.9475 4.61381C56.8057 4.3966 56.6286 4.11623 56.5546 3.99299C56.4807 3.86975 56.3282 3.6279 56.2142 3.45536C56.0278 3.17961 55.7767 2.76522 55.618 2.48947C55.5841 2.43555 55.4717 2.26302 55.3669 2.09973C55.2591 1.9426 55.1312 1.74079 55.0819 1.65607C55.0326 1.57288 54.9294 1.40496 54.8509 1.28173C54.7661 1.15849 54.6629 0.995194 54.6136 0.912007C54.5705 0.833442 54.4611 0.694797 54.3779 0.606989L54.2208 0.443697H53.3335C52.5663 0.443697 52.4323 0.45294 52.3445 0.526884Z" fill="white"/>
<path d="M69.5491 0.30043C68.6325 0.443695 68.3183 0.508396 68.081 0.61623C67.9439 0.685553 67.8007 0.73947 67.7714 0.73947C67.7113 0.73947 67.1799 1.03987 66.8656 1.25245C66.2155 1.68533 65.3636 2.78062 65.1464 3.45536C65.1171 3.55395 65.0478 3.71724 64.9939 3.82046C64.94 3.92829 64.8953 4.07618 64.8953 4.15012C64.8953 4.22407 64.846 4.4613 64.7875 4.66773C64.6735 5.04823 64.6735 5.08212 64.6735 8.15848C64.6735 11.2487 64.6735 11.2641 64.7875 11.7324C65.1325 13.1127 65.8011 14.1572 66.7809 14.8288C67.2153 15.1246 67.6682 15.3711 67.9486 15.4543C68.0718 15.4882 68.269 15.5529 68.3907 15.5975C68.9129 15.7747 70.2624 15.8286 71.1482 15.7054C72.1926 15.5575 73.0291 15.1292 73.861 14.2958C74.1521 14.0093 74.4433 13.6704 74.5172 13.5317C74.9501 12.723 75.0333 12.5551 75.0626 12.4133C75.0826 12.324 75.1427 12.1607 75.1858 12.0482C75.3445 11.6878 75.4323 10.6032 75.4369 9.00113C75.4369 7.80879 75.4277 7.51764 75.3737 7.4591C75.3137 7.40364 74.8515 7.3944 72.7195 7.38978H70.1391L70.056 7.49761C69.9774 7.58696 69.9666 7.71944 69.9666 8.47891C69.9666 9.26764 69.9774 9.36623 70.0606 9.46944L70.1546 9.58806L71.5425 9.59268C73.157 9.5973 73.0938 9.57882 73.0445 10.0564C72.912 11.2595 72.8674 11.5106 72.7241 11.8018C72.6409 11.9635 72.5762 12.1222 72.5762 12.1514C72.5762 12.2346 72.0293 12.8169 71.769 13.0095C71.6119 13.1281 71.3407 13.2514 71.0357 13.3499C70.6275 13.4824 70.4734 13.5071 70.0652 13.5071C69.657 13.5071 69.5045 13.4824 69.1009 13.3546C68.8343 13.2652 68.5047 13.122 68.366 13.0388C68.0965 12.8616 67.5542 12.3194 67.5542 12.2208C67.5542 12.1853 67.5203 12.1222 67.4803 12.0775C67.4417 12.0328 67.3616 11.8649 67.3031 11.7032C67.052 10.9837 67.0566 11.1116 67.072 8.05989L67.0859 5.20074L67.2245 4.78172C67.3031 4.55065 67.3971 4.30879 67.431 4.23947C67.471 4.17015 67.545 4.02688 67.5943 3.91905C67.7606 3.56936 68.2628 3.12569 68.7851 2.86843L69.2534 2.63736H69.9466C70.6906 2.63736 70.6121 2.61733 71.39 2.97318C71.6704 3.10105 72.208 3.60787 72.3605 3.88978C72.4283 4.01302 72.513 4.17015 72.5516 4.23947C72.587 4.30879 72.6548 4.47054 72.7041 4.60457C72.8566 5.04823 72.8181 5.03282 74.0828 5.01896C74.9994 5.00818 75.1966 4.98815 75.2397 4.92961C75.363 4.74167 75.1812 4.08696 74.793 3.29823C74.394 2.49409 73.8132 1.80857 73.083 1.2771C72.8674 1.11843 72.6656 0.985949 72.6363 0.985949C72.6116 0.985949 72.5084 0.932031 72.4098 0.862709C72.3112 0.793387 72.168 0.724065 72.094 0.7102C72.0201 0.690174 71.883 0.636257 71.7844 0.586961C71.6072 0.497613 71.4347 0.463722 70.5135 0.320456C70.002 0.241891 69.9712 0.237269 69.5491 0.30043Z" fill="white"/>
<path d="M76.555 0.472966C76.3671 0.526884 76.3624 0.600828 76.3825 5.94018C76.3979 10.6679 76.4025 11.1455 76.4811 11.4613C76.5304 11.6492 76.5889 11.9142 76.6135 12.0529C76.7275 12.7276 77.2929 13.769 77.8398 14.3251C78.322 14.8134 79.1646 15.3603 79.5929 15.4589C79.676 15.4789 79.7993 15.5236 79.8732 15.5575C80.075 15.6607 81.0455 15.7747 81.7341 15.7747C82.5568 15.7747 83.2654 15.6915 83.6551 15.5482C83.8323 15.4835 84.0095 15.4296 84.0495 15.4296C84.0926 15.4296 84.202 15.3757 84.2944 15.311C84.3884 15.2478 84.5163 15.1831 84.5764 15.1631C84.8999 15.0599 85.5854 14.5022 85.9351 14.0586C86.3834 13.4871 86.6776 12.9309 86.8116 12.4226C86.8409 12.2993 86.8948 12.1422 86.9349 12.0683C86.9687 11.9989 87.0319 11.5691 87.0766 11.1209C87.1367 10.4554 87.1505 9.40628 87.1505 5.47187C87.1505 0.70558 87.1505 0.64088 87.0519 0.542289C86.958 0.448319 86.8902 0.443697 85.969 0.443697C85.0477 0.443697 84.98 0.448319 84.886 0.542289C84.7874 0.64088 84.7874 0.705581 84.7874 5.629C84.7874 10.4461 84.7828 10.6433 84.6888 11.1409C84.5656 11.7663 84.3299 12.2593 83.9602 12.6737C83.8123 12.8323 83.669 12.9648 83.6444 12.9648C83.6151 12.9648 83.5165 13.0187 83.4333 13.0881C83.3301 13.162 83.0497 13.2652 82.6646 13.3638C82.1285 13.5025 82.0099 13.5163 81.6171 13.4917C81.0748 13.4578 80.3015 13.236 80.0304 13.0341C79.4896 12.6398 79.1985 12.25 78.9582 11.5845L78.8057 11.1655L78.781 5.88164C78.761 1.6422 78.741 0.582341 78.6917 0.533045C78.6424 0.48375 78.3759 0.468345 77.6334 0.459102C77.0865 0.45294 76.6043 0.463723 76.555 0.472966Z" fill="white"/>
<path d="M88.5045 0.566936L88.3813 0.685554V15.4342L88.5045 15.5529C88.6232 15.6761 88.6278 15.6761 89.5875 15.6761C90.4841 15.6761 90.5534 15.6715 90.6458 15.5775C90.7013 15.5236 90.7444 15.4296 90.7444 15.3649C90.7444 15.3064 90.7444 12.9741 90.7444 10.1889C90.7444 5.36403 90.7444 5.12217 90.8291 5.13604C90.8784 5.14682 90.9662 5.24079 91.0263 5.34863C91.0849 5.45646 91.1835 5.629 91.2374 5.73837C91.2959 5.84158 91.4438 6.06804 91.5624 6.24057C91.681 6.40849 91.7796 6.56099 91.7796 6.5764C91.7796 6.60567 92.2618 7.34511 92.459 7.61623C92.5375 7.72407 92.6161 7.85347 92.6361 7.90276C92.65 7.95668 92.7779 8.16311 92.9211 8.37107C93.0598 8.58212 93.2215 8.8286 93.2801 8.92257C93.3401 9.01654 93.4588 9.20294 93.5419 9.34158C93.6251 9.47407 93.7345 9.64198 93.7823 9.7113C93.8316 9.78063 93.961 9.97781 94.0642 10.155C94.172 10.3321 94.3091 10.5401 94.3738 10.614C94.4324 10.6926 94.4878 10.7758 94.4878 10.7958C94.4878 10.8205 94.6003 11.013 94.7389 11.2241C94.8806 11.4367 95.1071 11.7863 95.2457 12.0036C95.3875 12.2208 95.5662 12.4965 95.6447 12.6198C95.7279 12.743 95.8111 12.8755 95.8419 12.9201C95.865 12.9648 95.9343 13.0634 95.9836 13.142C96.1269 13.3546 96.2748 13.5964 96.4812 13.9353C96.5798 14.1032 96.7077 14.2804 96.757 14.3251C96.8062 14.3698 96.8509 14.4345 96.8509 14.4683C96.8509 14.5515 97.4702 15.4835 97.5934 15.5867C97.6874 15.6668 97.8153 15.6761 98.5978 15.6761C99.5237 15.6761 99.7162 15.6468 99.7748 15.4989C99.7902 15.4543 99.804 12.0867 99.804 8.01522V0.616232L99.7008 0.526884C99.6084 0.45294 99.4744 0.443697 98.604 0.443697C97.786 0.443697 97.5934 0.459102 97.501 0.522262L97.3916 0.596206V5.86623C97.3916 9.20294 97.3732 11.1455 97.3423 11.1655C97.293 11.1948 97.0173 10.8451 96.9387 10.6479C96.9141 10.5786 96.8401 10.46 96.7816 10.3768C96.7231 10.2982 96.589 10.0856 96.4858 9.90849C96.3826 9.73133 96.2548 9.51874 96.1962 9.43093C96.1361 9.34621 95.9882 9.11513 95.865 8.92257C95.4768 8.29713 95.0393 7.62085 94.9346 7.48837C94.8806 7.41443 94.8113 7.30043 94.7882 7.23111C94.7574 7.16333 94.6249 6.95074 94.4924 6.75818C94.3538 6.56562 94.2413 6.39308 94.2413 6.36843C94.2413 6.34995 94.1766 6.24057 94.1027 6.13274C94.0287 6.01874 93.847 5.73375 93.6991 5.50114C93.5512 5.26544 93.3109 4.89572 93.1722 4.67851C93.029 4.4613 92.9119 4.26412 92.9119 4.24409C92.9119 4.21945 92.8672 4.15012 92.8179 4.08696C92.7239 3.96834 92.5961 3.75576 92.439 3.47539C92.3943 3.3922 92.3111 3.26896 92.251 3.19502C92.1925 3.12569 92.0846 2.95316 91.9999 2.80989C91.9213 2.66663 91.8043 2.49409 91.7488 2.42477C91.6903 2.35083 91.5963 2.20294 91.5424 2.09511C91.4838 1.98727 91.3699 1.80857 91.2867 1.70074C91.2081 1.5929 91.1141 1.44964 91.0802 1.38032C90.937 1.09379 90.5981 0.596206 90.4933 0.522262C90.3947 0.459102 90.2283 0.443697 89.4997 0.443697C88.6324 0.443697 88.6232 0.443697 88.5045 0.566936Z" fill="white"/>
<path d="M6.61642 19.2454C6.53324 19.2839 6.38997 19.3286 6.29754 19.3486C6.03104 19.4072 5.57813 19.7137 5.29314 20.0295C4.9681 20.3885 4.80943 20.8275 4.8048 21.3944C4.79556 22.3711 5.3563 23.0997 6.54864 23.662C6.67188 23.7159 6.80436 23.7853 6.84288 23.8145C6.88293 23.8392 6.95225 23.8746 6.99076 23.8885C7.26189 23.9917 7.80414 24.2983 7.95203 24.4215C8.21237 24.6479 8.4188 25.0377 8.4188 25.2934C8.4188 25.5692 8.07527 26.1422 7.82417 26.2747C7.78412 26.2994 7.57307 26.3641 7.36048 26.418L6.9769 26.5212L6.47932 26.418C5.98636 26.3194 5.44565 26.0975 5.15912 25.8711C5.04666 25.7817 4.99737 25.7725 4.88953 25.811C4.71237 25.8711 4.62765 26.0436 4.62765 26.3641C4.62765 26.8016 4.72162 26.9356 5.28698 27.2853C5.43024 27.3746 5.88315 27.5071 6.40075 27.6103C6.77972 27.6889 7.4791 27.635 7.92738 27.4917C8.83781 27.2021 9.4232 26.629 9.68046 25.7864C9.71898 25.6677 9.74825 25.372 9.74825 25.1317C9.74825 24.7712 9.7236 24.6387 9.62038 24.3861C9.34926 23.7452 8.70995 23.1983 7.7302 22.7793C7.66088 22.7501 7.57307 22.7054 7.53302 22.6761C7.49296 22.6515 7.38051 22.5929 7.28654 22.5529C6.73966 22.311 6.44543 22.0692 6.27289 21.7302C6.11422 21.4191 6.12038 21.1433 6.29138 20.8275C6.40075 20.6303 6.47932 20.5564 6.70115 20.4486C7.12479 20.236 7.35586 20.2267 7.86268 20.3792C8.36488 20.5364 8.44807 20.5718 8.61598 20.6997C8.80392 20.8429 9.03038 20.8676 9.16286 20.7582C9.31999 20.635 9.34926 20.1174 9.2214 19.8709C9.11818 19.6783 8.69917 19.4426 8.1677 19.2747C7.7795 19.1561 6.86752 19.1361 6.61642 19.2454Z" fill="white"/>
<path d="M20.6458 19.3086C20.6211 19.3148 20.541 19.3286 20.4671 19.344C20.2114 19.4026 20.0496 19.8509 20.1913 20.1281C20.2222 20.1867 20.2961 20.2853 20.35 20.3438C20.4486 20.4532 20.4779 20.4578 21.473 20.4578C22.3049 20.4578 22.5021 20.4732 22.5498 20.5318C22.5945 20.5857 22.6099 21.3544 22.6053 23.8192C22.5991 25.5892 22.6145 27.1035 22.6392 27.1821C22.6931 27.3885 22.881 27.5071 23.1953 27.5364C23.4957 27.5656 23.7961 27.4732 23.8793 27.3145C23.9101 27.2514 23.9286 26.0929 23.9286 23.8993C23.9286 21.379 23.944 20.561 23.9887 20.5164C24.0333 20.4732 24.343 20.4578 25.087 20.4578C26.1161 20.4578 26.1299 20.4578 26.2332 20.3438C26.5536 20.0049 26.4057 19.324 26.0113 19.324C24.7866 19.3148 20.6704 19.2994 20.6458 19.3086Z" fill="white"/>
<path d="M37.9629 19.2593C37.7072 19.3533 37.5685 19.4472 37.5193 19.5659C37.4792 19.6644 37.47 20.4578 37.4792 22.4343C37.4946 25.1409 37.4992 25.1702 37.6132 25.5106C37.795 26.0683 38.0168 26.4626 38.3126 26.7677C38.613 27.0788 39.0844 27.3792 39.3463 27.4331C39.4402 27.4486 39.6112 27.5025 39.7345 27.5471C40.0888 27.6796 41.1286 27.6596 41.6062 27.5117C42.5074 27.2313 43.0974 26.7276 43.4717 25.9204C43.7336 25.3473 43.7428 25.2395 43.7629 22.3557C43.7675 20.8922 43.7629 19.6444 43.7475 19.5797C43.6843 19.3148 43.1528 19.1607 42.7924 19.304C42.4288 19.4472 42.438 19.3733 42.4473 22.3064L42.4581 24.8852L42.3194 25.3088C42.2116 25.6493 42.1423 25.7771 41.9559 25.9743C41.6894 26.2547 41.6355 26.2839 41.2226 26.3933C40.819 26.4965 40.4292 26.4919 40.0256 26.3779C39.5619 26.2547 39.2631 25.9882 39.0166 25.4952L38.8241 25.1162L38.8148 22.3156C38.804 20.3546 38.7902 19.4919 38.7501 19.4472C38.6315 19.304 38.1493 19.1915 37.9629 19.2593Z" fill="white"/>
<path d="M56.1022 19.3733C55.8264 19.4812 55.8357 19.3194 55.8357 23.3755C55.8357 25.7279 55.8557 27.1528 55.885 27.236C55.9743 27.4671 56.1761 27.5071 57.2483 27.5071C59.2879 27.5071 59.9719 27.35 60.8577 26.6783C61.2028 26.418 61.6757 25.7972 61.7697 25.486C61.7882 25.4167 61.8482 25.2842 61.8975 25.1902C61.9514 25.0963 61.99 24.9638 61.99 24.8898C61.99 24.8205 62.0254 24.6526 62.0639 24.5201C62.1733 24.155 62.2472 23.3863 62.2118 22.9966C62.1378 22.1832 61.936 21.5331 61.5478 20.8522C61.3953 20.5857 60.9224 20.122 60.6266 19.9495C59.918 19.5305 59.6376 19.4272 59.0861 19.3733C58.4992 19.3148 56.2393 19.3148 56.1022 19.3733ZM58.4992 20.4779C59.0261 20.4979 59.0954 20.5118 59.4358 20.675C59.8533 20.8722 60.2184 21.2219 60.4495 21.6409C60.6467 22.006 60.8238 22.824 60.8238 23.3663C60.8192 23.9486 60.6359 24.8498 60.4541 25.1902C60.1244 25.811 59.4944 26.2501 58.8196 26.3287C58.2142 26.398 57.2838 26.3826 57.2191 26.304C57.1744 26.2501 57.1605 25.5199 57.1605 23.4063C57.1605 21.8535 57.1651 20.561 57.1651 20.541C57.1651 20.4671 57.387 20.4239 57.6581 20.4378C57.806 20.4486 58.1849 20.4625 58.4992 20.4779Z" fill="white"/>
<path d="M74.1121 19.3086C73.7393 19.4426 73.7578 19.2054 73.7578 23.4248C73.7578 27.6011 73.7393 27.3438 74.0829 27.4871C74.3833 27.6149 74.8269 27.5472 75.0041 27.35C75.0826 27.256 75.0873 26.9987 75.0873 23.431C75.0873 20.7875 75.0734 19.5797 75.0333 19.5119C74.9702 19.3933 74.6205 19.2254 74.448 19.23C74.3786 19.23 74.2308 19.2655 74.1121 19.3086Z" fill="white"/>
<path d="M89.5628 19.2747C89.4149 19.3286 89.2485 19.3686 89.1946 19.3733C88.9527 19.3733 88.0762 19.9201 87.785 20.2406C87.4554 20.6103 87.0918 21.2419 87.0271 21.5469C87.0132 21.6409 86.9485 21.8581 86.89 22.0352C86.7914 22.3264 86.7806 22.4542 86.7806 23.4648C86.7806 24.5339 86.7868 24.594 86.9193 25.0669C87.1411 25.8403 87.3522 26.2408 87.785 26.6737C87.9976 26.8909 88.2687 27.1035 88.4059 27.1712C88.5445 27.2359 88.697 27.3145 88.7509 27.3499C88.9081 27.4424 89.4056 27.5564 89.8986 27.6149C90.8337 27.7335 91.9213 27.4778 92.616 26.9694C93.0597 26.649 93.6358 25.8895 93.7283 25.506C93.7483 25.4274 93.8022 25.2841 93.8515 25.1855C94.0194 24.8451 94.1673 23.4494 94.098 22.8193C93.9701 21.6809 93.8962 21.379 93.625 20.9014C93.5865 20.8321 93.5064 20.6888 93.4479 20.581C93.2014 20.1327 92.3803 19.4965 91.8966 19.3779C91.7888 19.3532 91.5716 19.2993 91.4098 19.2546C90.9769 19.136 89.9232 19.1468 89.5628 19.2747ZM91.114 20.4285C91.798 20.601 92.1184 20.8768 92.4296 21.5423C92.71 22.1585 92.8086 23.4309 92.6499 24.4014C92.5421 25.0762 92.3202 25.5352 91.9259 25.8957C91.5223 26.27 91.4637 26.3039 91.114 26.3733C90.9523 26.4072 90.7305 26.4518 90.6211 26.4765C90.4794 26.5057 90.2868 26.4919 89.9078 26.4179C89.3224 26.2993 89.2778 26.2839 88.962 26.0189C88.657 25.7663 88.4706 25.452 88.3026 24.919C88.1655 24.4908 88.1594 24.4461 88.1594 23.4155C88.1594 22.3803 88.1655 22.3464 88.298 21.9613C88.3766 21.7441 88.4798 21.5084 88.5337 21.4344C88.583 21.3605 88.6277 21.2758 88.6277 21.2465C88.6277 21.1572 88.9681 20.8182 89.2131 20.6596C89.4703 20.4978 90.1004 20.3191 90.4501 20.3145C90.5733 20.3145 90.8722 20.3638 91.114 20.4285Z" fill="white"/>
</svg>
