<svg width="38" height="42" viewBox="0 0 38 42" fill="none" xmlns="http://www.w3.org/2000/svg">
<g clip-path="url(#clip0_2_2891)">
<path d="M4.31776 0.153776C4.26243 0.166643 4.1389 0.191735 4.04047 0.209106C3.9446 0.229695 3.83072 0.259934 3.79276 0.274732C3.75223 0.290173 3.68403 0.302397 3.64093 0.302397C3.59589 0.30497 3.53284 0.320412 3.49745 0.340356C3.46207 0.360945 3.40609 0.375743 3.37585 0.378316C3.34304 0.378316 3.27999 0.393114 3.23688 0.413702C3.19184 0.433647 3.08311 0.481901 2.9924 0.519217C2.77236 0.608004 2.54782 0.726386 2.50986 0.771423C2.49442 0.792011 2.45903 0.806809 2.43394 0.806809C2.40885 0.806809 2.38376 0.817103 2.37604 0.82997C2.36059 0.855062 2.04276 1.07446 1.94433 1.12721C1.86069 1.17547 1.20894 1.83107 1.12852 1.95203C1.08798 2.00736 1.01464 2.11609 0.961882 2.18879C0.85315 2.34514 0.651128 2.69063 0.582929 2.83732C0.555264 2.89265 0.519878 2.96793 0.49929 3.00589C0.481918 3.04128 0.466477 3.08953 0.466477 3.10947C0.466477 3.13199 0.451679 3.18025 0.431091 3.22014C0.383481 3.31857 0.315282 3.53797 0.29019 3.67694C0.267029 3.79275 0.241937 3.90856 0.181459 4.13567C0.133205 4.3126 0.138352 37.6887 0.184032 37.865C0.201404 37.9332 0.229069 38.0413 0.24451 38.1043C0.345521 38.5431 0.398279 38.7374 0.436238 38.803C0.451679 38.8333 0.466477 38.879 0.466477 38.9041C0.466477 38.9291 0.484492 38.9723 0.504437 38.9973C0.525025 39.025 0.542396 39.0604 0.542396 39.0733C0.542396 39.1009 0.711606 39.4233 0.790098 39.5468C1.06997 39.9856 1.21151 40.1625 1.54028 40.49C1.73458 40.6843 1.92374 40.8612 1.9617 40.8812C1.99708 40.9011 2.12319 40.9822 2.23964 41.06C2.35545 41.1411 2.46418 41.2067 2.48219 41.2067C2.49699 41.2067 2.52015 41.2215 2.5298 41.2395C2.55297 41.2794 3.05802 41.5342 3.11335 41.5342C3.1333 41.5342 3.17898 41.5496 3.21436 41.5696C3.28771 41.605 3.43183 41.6474 3.63642 41.6905C3.70719 41.706 3.80563 41.7336 3.85839 41.751C3.90922 41.7716 3.98449 41.7864 4.02245 41.7864C4.06298 41.7864 4.14405 41.8038 4.2071 41.8244C4.30554 41.8572 5.95453 41.8623 18.7765 41.8546C30.0679 41.8495 33.2577 41.8417 33.3433 41.8166C33.5029 41.7716 33.6515 41.7362 33.7827 41.7105C34.0884 41.6552 34.6468 41.4358 34.8842 41.2768C34.9447 41.2395 35 41.2067 35.0103 41.2067C35.0206 41.2067 35.1139 41.1482 35.2175 41.0755C35.3211 41.0047 35.4575 40.9114 35.5205 40.8683C35.6672 40.7699 36.243 40.1953 36.344 40.0467C36.3865 39.9836 36.4927 39.8247 36.584 39.6935C36.6722 39.5597 36.7906 39.3628 36.844 39.2521C36.8993 39.1408 36.9598 39.0199 36.9778 38.9819C36.9952 38.9472 37.0106 38.8963 37.0106 38.8687C37.0106 38.8436 37.028 38.8005 37.0486 38.7754C37.0685 38.7477 37.0865 38.6975 37.0865 38.6647C37.0865 38.6319 37.0987 38.5811 37.1168 38.5508C37.1444 38.5007 37.1669 38.4074 37.2403 38.0541C37.2557 37.9782 37.2834 37.8598 37.3033 37.7916C37.3567 37.6102 37.3567 4.42583 37.3033 4.21416C37.2834 4.13567 37.2429 3.95938 37.2126 3.82041C37.1798 3.68208 37.1393 3.52574 37.1219 3.47234C37.1013 3.42216 37.0865 3.35396 37.0865 3.32115C37.0865 3.29091 37.0685 3.2433 37.0486 3.21756C37.028 3.1899 37.0106 3.15001 37.0106 3.12942C37.0106 3.09146 36.768 2.58769 36.7024 2.48668C36.3138 1.89863 36.1137 1.65672 35.7354 1.31637C35.5405 1.14265 35.119 0.842195 35.0103 0.801662C34.9698 0.789437 34.9395 0.766919 34.9395 0.754051C34.9395 0.73668 34.6391 0.582268 34.4474 0.504419C34.4197 0.491551 34.3412 0.458739 34.273 0.431074C34.2048 0.400835 34.1263 0.378316 34.0961 0.378316C34.0684 0.375743 34.015 0.360945 33.9803 0.340356C33.9449 0.320412 33.8812 0.30497 33.8361 0.302397C33.793 0.302397 33.7248 0.290173 33.6843 0.274732C33.6463 0.259934 33.5357 0.229695 33.4372 0.21168C33.3407 0.191735 33.2095 0.16407 33.1464 0.151202C33.0023 0.123537 4.45673 0.123537 4.31776 0.153776ZM33.1715 1.16517C33.4392 1.21021 33.5987 1.25074 33.7223 1.30157C33.7679 1.32151 33.8233 1.33631 33.8439 1.33631C33.8664 1.33631 33.914 1.35175 33.9494 1.3717C33.9873 1.38971 34.1089 1.44762 34.2196 1.50037C34.3309 1.5512 34.4673 1.6239 34.5226 1.66186C34.5786 1.69725 34.6545 1.74229 34.6918 1.76287C34.7298 1.78282 34.7832 1.81563 34.8057 1.83815C34.8308 1.86131 34.9318 1.94431 35.0303 2.02473C35.1795 2.14633 35.359 2.33034 35.5662 2.58512C35.7026 2.74854 35.8763 3.0387 35.9876 3.27868C36.023 3.35396 36.0687 3.44982 36.0886 3.48778C36.1092 3.52832 36.1266 3.57593 36.1266 3.59844C36.1266 3.61903 36.142 3.67179 36.162 3.7149C36.2225 3.84808 36.2829 4.13824 36.3415 4.56481C36.3769 4.82409 36.3794 6.58953 36.3794 21.0322C36.3769 35.0277 36.3717 37.237 36.3415 37.4114C36.3209 37.5221 36.3035 37.661 36.3035 37.7189C36.3035 37.7768 36.2855 37.8753 36.2681 37.9332C36.2475 37.9937 36.2199 38.087 36.2051 38.1423C36.1395 38.4196 35.94 38.8635 35.7528 39.1511C35.4774 39.5751 35.0155 40.0441 34.6494 40.2661C34.4396 40.3941 34.2505 40.4951 34.1315 40.546C34.0555 40.5788 33.97 40.6135 33.9423 40.6264C33.8439 40.6721 33.6618 40.7325 33.5634 40.7525C33.5074 40.7628 33.4295 40.7827 33.3916 40.8001C33.351 40.8155 33.27 40.8284 33.2095 40.8284C33.1516 40.8284 33.0126 40.8458 32.9013 40.8657C32.725 40.8985 31.0709 40.9037 18.6729 40.8985C4.21675 40.8915 4.48504 40.894 4.11574 40.8001C4.06041 40.7853 3.96969 40.7654 3.91372 40.7525C3.53026 40.6721 2.92162 40.3665 2.56262 40.0789C2.11611 39.7211 1.6889 39.1865 1.47916 38.7226C1.44892 38.6518 1.40646 38.5611 1.38844 38.5206C1.3685 38.4781 1.34534 38.4125 1.33569 38.372C1.32539 38.3314 1.30287 38.2684 1.28486 38.233C1.26491 38.1976 1.24947 38.1326 1.24947 38.0921C1.2469 38.049 1.2321 37.9885 1.21151 37.9531C1.19157 37.9177 1.17613 37.8399 1.17355 37.7768C1.17355 37.7138 1.15618 37.5677 1.13624 37.4487C1.10343 37.2596 1.09828 35.303 1.09828 20.9891C1.09828 6.65516 1.10343 4.72308 1.13624 4.54679C1.15618 4.4387 1.17355 4.30745 1.17355 4.25148C1.17355 4.19872 1.19157 4.09771 1.21409 4.02501C1.23725 3.95424 1.27714 3.82299 1.30545 3.73227C1.36078 3.55083 1.37815 3.5103 1.51712 3.21563C1.86326 2.47639 2.57806 1.78797 3.34561 1.45276C3.43697 1.41481 3.51997 1.3717 3.53284 1.35947C3.54763 1.34661 3.58817 1.33631 3.62355 1.33631C3.65894 1.33631 3.7117 1.31894 3.74001 1.299C3.7651 1.27841 3.81786 1.26104 3.85582 1.26104C3.89377 1.26104 3.96969 1.2456 4.01988 1.22565C4.07328 1.20571 4.22962 1.17547 4.36602 1.16003C4.50499 1.14523 4.62337 1.12721 4.63109 1.12207C4.63624 1.11435 11.0083 1.11242 18.7868 1.11692C31.5476 1.12464 32.9547 1.12979 33.1715 1.16517Z" fill="white"/>
<path d="M12.3743 6.00727C11.8616 6.08769 11.3945 6.40295 11.2381 6.76839C11.2175 6.81922 11.1828 6.89964 11.1622 6.94789C11.1069 7.0785 11.1094 7.7296 11.1648 7.86021C11.2606 8.08475 11.3211 8.17804 11.453 8.30672C11.6673 8.51646 11.9651 8.64256 12.3743 8.70047C12.4451 8.71012 12.5513 8.73071 12.6143 8.7455C12.6774 8.76094 12.7861 8.78346 12.8543 8.7989C13.241 8.87418 13.4173 8.95718 13.5163 9.10901C13.5794 9.20231 13.5865 9.23769 13.5865 9.41655C13.5865 9.60056 13.5794 9.6308 13.5112 9.73181C13.4456 9.83025 13.3471 9.91324 13.2583 9.94348C13.0286 10.0291 12.9424 10.0393 12.5763 10.0291C12.1627 10.0194 11.9606 9.97629 11.756 9.85791C11.7354 9.84504 11.6853 9.81995 11.6422 9.80001C11.6016 9.78199 11.5386 9.73696 11.5058 9.699C11.397 9.58319 11.3237 9.60828 11.157 9.81481C11.0766 9.91324 11.0033 10.0091 10.993 10.022C10.9801 10.0419 10.9576 10.0393 10.9222 10.0168C10.8817 9.99173 10.632 9.98401 9.79115 9.98659L8.71284 9.99174V8.78861L9.65218 8.78089L10.5941 8.77574L10.6269 8.71784C10.6494 8.67988 10.6597 8.58401 10.6546 8.4103C10.6494 8.0899 10.652 8.10534 10.6044 8.05708C10.569 8.0217 10.4551 8.01912 9.6644 8.01912C9.16707 8.01912 8.74822 8.01912 8.73278 8.01912C8.70769 8.01912 8.69997 7.87565 8.69997 7.38861V6.75874H9.81367C10.6243 6.76067 10.9377 6.75359 10.9627 6.73043C11.0084 6.69311 11.0136 6.10249 10.9679 6.05745C10.9454 6.03493 10.5741 6.02721 9.45273 6.02721C8.01284 6.02721 7.9678 6.02979 7.94207 6.07482C7.90668 6.14302 7.90668 10.6268 7.94207 10.695C7.9678 10.7406 8.01284 10.7432 9.45273 10.7432C10.5741 10.7432 10.9454 10.7355 10.9679 10.713C10.9853 10.695 10.9981 10.6017 10.9981 10.473V10.2613L11.1094 10.3469C11.2883 10.4833 11.6241 10.6396 11.8693 10.7001C12.1672 10.776 12.2939 10.7934 12.5365 10.7934C13.2384 10.7934 13.7003 10.6422 14.0162 10.3115C14.2865 10.0265 14.3971 9.70929 14.3746 9.30525C14.3521 8.92694 14.2356 8.66765 13.9886 8.45083C13.8116 8.29707 13.4301 8.12786 13.1194 8.06738C12.8491 8.01655 12.7205 7.98889 12.6272 7.96637C12.5712 7.95157 12.4805 7.93098 12.4252 7.92133C12.2405 7.88594 12.0359 7.76949 11.9626 7.65883C11.9047 7.57069 11.8944 7.53273 11.8969 7.36609C11.8995 7.14927 11.9298 7.07142 12.0713 6.93245C12.2128 6.78898 12.4123 6.733 12.7784 6.733C13.1676 6.733 13.3162 6.77868 13.7106 7.01802C13.8445 7.09909 13.9101 7.09137 13.9628 6.99036C13.9834 6.9524 14.0638 6.84431 14.1398 6.74844C14.2183 6.65258 14.2813 6.55414 14.2813 6.52905C14.2813 6.47372 14.0137 6.30966 13.6752 6.16104C13.304 5.99697 12.8138 5.93907 12.3743 6.00727Z" fill="white"/>
<path d="M24.6742 6.01178C24.4516 6.05231 24.2952 6.12051 24.063 6.2717C23.8938 6.38301 23.6763 6.58953 23.6763 6.63972C23.6763 6.64744 23.6358 6.71306 23.5882 6.78641C23.5399 6.86168 23.4994 6.93503 23.4994 6.9524C23.4994 6.97042 23.4846 7.0206 23.464 7.06628C23.3559 7.32106 23.3456 7.45939 23.3559 8.48622C23.363 9.5047 23.3681 9.53751 23.482 9.82253C23.6383 10.2182 23.9948 10.5515 24.4085 10.6924C24.5429 10.7381 24.8833 10.7934 25.0403 10.7934C25.2095 10.7934 25.5453 10.7355 25.6894 10.6821C25.9243 10.5939 26.3586 10.2414 26.4319 10.0773C26.4441 10.0471 26.4821 9.97887 26.5123 9.92097C26.6642 9.65589 26.7021 9.43907 26.7221 8.73779C26.7349 8.33696 26.7298 8.25139 26.6996 8.20828C26.6616 8.16067 26.6262 8.1581 25.894 8.15038C25.4141 8.14523 25.0982 8.15295 25.0576 8.16839L24.9894 8.19606V8.50617C24.9894 8.7127 24.9997 8.82657 25.0197 8.84652C25.0403 8.86646 25.1818 8.87676 25.4874 8.87676C25.9925 8.87676 25.9416 8.83365 25.8985 9.21711C25.8709 9.45452 25.7975 9.6411 25.6894 9.75948C25.6007 9.85792 25.452 9.96086 25.4012 9.96086C25.3761 9.96343 25.3279 9.97887 25.2925 9.99882C25.2043 10.0496 24.9064 10.0445 24.7495 9.99174C24.5732 9.92869 24.5121 9.8933 24.4014 9.78714C24.2901 9.68356 24.2573 9.62823 24.1839 9.41913C24.1337 9.27759 24.1312 9.21453 24.1312 8.4251C24.1312 7.52501 24.1382 7.44716 24.265 7.18981C24.4439 6.82887 24.9515 6.62492 25.2803 6.78384C25.3356 6.8115 25.3935 6.83145 25.4089 6.83402C25.452 6.83402 25.6965 7.06113 25.7248 7.12161C25.7371 7.15185 25.7576 7.19238 25.7699 7.21233C25.7853 7.23227 25.8001 7.27795 25.8078 7.31334C25.8381 7.46196 25.8709 7.4774 26.1893 7.48448C26.6918 7.49992 26.7246 7.47997 26.6262 7.19496C26.4699 6.72336 26.1514 6.34505 25.7602 6.15589C25.6894 6.12308 25.6135 6.08512 25.5884 6.07225C25.5022 6.03236 25.1535 5.97639 24.9894 5.97896C24.8987 5.98154 24.7572 5.99698 24.6742 6.01178Z" fill="white"/>
<path d="M3.52533 6.0626C3.50538 6.08769 3.50024 6.72078 3.50281 8.41287L3.50989 10.7303L3.83608 10.7381C4.05805 10.7432 4.17193 10.7355 4.19702 10.7149C4.22726 10.6898 4.22983 10.4781 4.22469 9.28787C4.21954 8.36719 4.22469 7.89559 4.2427 7.90074C4.2575 7.90589 4.28516 7.95864 4.30575 8.0217C4.35079 8.14523 4.40162 8.26682 4.43443 8.32216C4.4473 8.3421 4.46467 8.37749 4.47239 8.39743C4.54573 8.58401 4.60106 8.71011 4.66154 8.83622C4.70208 8.91728 4.73489 8.99771 4.73489 9.01572C4.73489 9.03309 4.7529 9.06076 4.77285 9.07877C4.79279 9.09614 4.81081 9.1341 4.81081 9.16434C4.81081 9.19458 4.8211 9.22997 4.83333 9.24219C4.84619 9.25763 4.89187 9.3535 4.93691 9.45708C4.98259 9.56002 5.04564 9.70157 5.07845 9.76719C5.11127 9.83539 5.13893 9.90552 5.13893 9.92353C5.13893 9.94348 5.1666 9.98916 5.19684 10.0265C5.25281 10.0895 5.27533 10.0972 5.45998 10.1024C5.68195 10.1101 5.75787 10.085 5.80805 9.98659C5.8666 9.87271 5.99785 9.58511 5.99785 9.56774C5.99785 9.55745 6.02294 9.49697 6.05061 9.43392C6.08084 9.37087 6.12138 9.28273 6.13939 9.24219C6.17928 9.14633 6.2552 8.97004 6.31118 8.83879C6.33627 8.78346 6.37165 8.70304 6.38902 8.6625C6.49518 8.43539 6.57625 8.24109 6.62901 8.10791C6.65925 8.02427 6.69463 7.93098 6.7075 7.89817C6.71972 7.86793 6.73774 7.84284 6.74803 7.84284C6.76026 7.84284 6.7654 8.4785 6.76026 9.25763C6.75511 10.3044 6.76026 10.6821 6.78342 10.7078C6.80594 10.7355 6.88893 10.7432 7.13663 10.7432C7.43195 10.7432 7.46283 10.7381 7.48792 10.6949C7.50529 10.6621 7.51301 9.89329 7.51301 8.37491C7.51301 6.34761 7.50787 6.10249 7.47248 6.06774C7.44224 6.03493 7.37147 6.02721 7.13406 6.02721C6.83618 6.02721 6.8336 6.02721 6.78599 6.09541C6.76026 6.1353 6.70493 6.23888 6.66697 6.3296C6.55823 6.58438 6.52285 6.66738 6.49776 6.70791C6.48746 6.7285 6.47009 6.76324 6.46237 6.78383C6.45208 6.80377 6.42698 6.86682 6.40189 6.92216C6.37937 6.97813 6.33884 7.06885 6.31568 7.12418C6.24748 7.28309 6.19472 7.3989 6.16963 7.43943C6.15934 7.45938 6.14197 7.49477 6.13424 7.51471C6.12652 7.5353 6.09371 7.608 6.0609 7.67877C6.03066 7.74697 5.97276 7.87822 5.9348 7.96894C5.86917 8.12271 5.78038 8.31958 5.66715 8.56407C5.64141 8.62197 5.6189 8.68502 5.6189 8.70561C5.6189 8.72813 5.60345 8.75837 5.58351 8.77574C5.56356 8.79118 5.54298 8.83622 5.53783 8.8716C5.52818 8.96489 5.45998 8.95717 5.43939 8.86388C5.43231 8.82142 5.38663 8.70754 5.34353 8.61168C5.29785 8.51388 5.24509 8.39486 5.22257 8.34725C5.19941 8.29899 5.17175 8.24109 5.15952 8.22114C5.14923 8.2012 5.13121 8.16581 5.12413 8.14523C5.11641 8.12528 5.0939 8.0751 5.07331 8.03714C5.05594 7.9966 5.03792 7.9535 5.03792 7.94127C5.03792 7.91875 4.87643 7.56039 4.83333 7.48962C4.8211 7.46967 4.80309 7.43429 4.79537 7.41434C4.74004 7.27022 4.66669 7.10166 4.60364 6.96011C4.56311 6.8694 4.51292 6.75616 4.48976 6.70791C4.30061 6.27684 4.24785 6.16554 4.19959 6.09541C4.15134 6.02721 4.14877 6.02721 3.85345 6.02721C3.63149 6.02721 3.54785 6.0375 3.52533 6.0626Z" fill="white"/>
<path d="M14.5895 6.05745C14.5464 6.10056 14.5464 10.6699 14.5895 10.713C14.6094 10.7329 14.7259 10.7432 14.9504 10.7432C15.1749 10.7432 15.2914 10.7329 15.3113 10.713C15.3345 10.6898 15.3422 10.4402 15.3422 9.74146C15.3422 9.00543 15.3493 8.80083 15.375 8.80083C15.4027 8.7989 17.1353 8.80083 17.1604 8.80083C17.1681 8.80083 17.1701 9.21453 17.1656 9.72151C17.1604 10.3469 17.1681 10.657 17.1855 10.6924C17.2106 10.7406 17.2363 10.7432 17.5516 10.7432C17.8623 10.7432 17.8926 10.7381 17.9177 10.6924C17.9357 10.6596 17.9408 9.92096 17.9383 8.36011C17.9305 6.36241 17.9254 6.07225 17.8926 6.0523C17.8726 6.03943 17.7157 6.02721 17.5464 6.02721C17.2994 6.02721 17.2312 6.03493 17.1984 6.06774C17.163 6.10249 17.1578 6.21894 17.1604 7.06627C17.163 7.5932 17.1578 8.02942 17.1527 8.03456C17.145 8.04228 16.7358 8.04936 16.241 8.05193L15.3422 8.05708V7.08107C15.3422 6.22859 15.3371 6.10056 15.3017 6.06774C15.2714 6.03493 15.2007 6.02721 14.9401 6.02721C14.7259 6.02721 14.6094 6.0375 14.5895 6.05745Z" fill="white"/>
<path d="M18.3783 6.05746C18.3352 6.10056 18.3352 10.6699 18.3783 10.713C18.3982 10.7329 18.5172 10.7432 18.7444 10.7432C19.05 10.7432 19.0802 10.7381 19.1053 10.695C19.1233 10.6621 19.131 9.8933 19.131 8.37492C19.131 6.34762 19.1259 6.10249 19.0905 6.06775C19.0603 6.03494 18.9895 6.02722 18.7289 6.02722C18.5147 6.02722 18.3982 6.03751 18.3783 6.05746Z" fill="white"/>
<path d="M19.5493 6.06774C19.5139 6.10249 19.5088 6.34761 19.5088 8.37491C19.5088 9.89329 19.5165 10.6621 19.5345 10.6949C19.5596 10.7381 19.5899 10.7432 19.9006 10.7432C20.2114 10.7432 20.2416 10.7381 20.2667 10.6949C20.2815 10.6621 20.2918 10.1127 20.2918 9.08585C20.2918 7.5353 20.2944 7.52758 20.3426 7.59063C20.3703 7.62602 20.3928 7.6614 20.3928 7.67105C20.3928 7.68649 20.6733 8.133 20.9107 8.49844C20.941 8.5467 21.0445 8.70561 21.1378 8.85166C21.2337 8.99771 21.3501 9.17914 21.3978 9.25506C21.4486 9.33098 21.5342 9.46673 21.5927 9.55745C21.6506 9.64817 21.7516 9.80708 21.8198 9.91067C21.8854 10.0143 21.9614 10.1301 21.9865 10.168C22.0115 10.206 22.0347 10.2414 22.0347 10.2484C22.0347 10.2536 22.1055 10.3649 22.1936 10.4955L22.3525 10.7303L22.6633 10.7381C22.8705 10.7432 22.9869 10.7355 23.0094 10.7149C23.0397 10.6898 23.0448 10.3192 23.0448 8.38263C23.0448 6.13079 23.0448 6.07739 22.9966 6.0523C22.9335 6.01949 22.3628 6.01949 22.312 6.0523C22.2792 6.07225 22.2747 6.28199 22.2747 7.67877C22.2747 8.55892 22.2695 9.28015 22.2618 9.28015C22.2541 9.28015 22.2039 9.2023 22.1505 9.10901C22.0952 9.01572 22.0045 8.8716 21.9485 8.78861C21.8906 8.70561 21.8224 8.59688 21.7947 8.54927C21.7137 8.4103 21.6049 8.23594 21.4357 7.97666C21.3476 7.84284 21.2466 7.68392 21.2086 7.62087C21.1681 7.55782 21.1205 7.48254 21.0999 7.45166C21.0574 7.38668 20.9081 7.1467 20.8399 7.02574C20.8123 6.98263 20.7717 6.92473 20.7441 6.89449C20.719 6.86682 20.6958 6.83401 20.6958 6.82179C20.6958 6.80377 20.5646 6.5921 20.3021 6.1887C20.2538 6.11535 20.1985 6.0523 20.176 6.04201C20.1554 6.03493 20.0138 6.02721 19.8626 6.02721C19.6478 6.02721 19.5796 6.03493 19.5493 6.06774Z" fill="white"/>
<path d="M26.9867 6.06262C26.9642 6.08771 26.959 6.53421 26.9667 7.76951C26.977 9.62824 26.9745 9.58771 27.1482 9.94864C27.3155 10.2864 27.6056 10.5515 27.9569 10.6847C28.0933 10.7355 28.4517 10.7934 28.6382 10.7934C28.8152 10.7934 29.1813 10.7329 29.308 10.6847C29.5576 10.5888 29.7545 10.4531 29.9166 10.2665C30.0402 10.1249 30.1791 9.8753 30.2042 9.75434C30.2145 9.70931 30.2319 9.65848 30.2448 9.64368C30.2975 9.57806 30.3155 9.03311 30.3181 7.59837C30.3181 6.12309 30.3155 6.07741 30.2699 6.05232C30.2422 6.03945 30.0833 6.02723 29.9166 6.02723C29.6767 6.02723 29.6059 6.03495 29.5757 6.06776C29.5403 6.1025 29.5351 6.27944 29.5351 7.6389C29.5351 9.20747 29.5248 9.37861 29.4341 9.57034C29.3685 9.70931 29.2295 9.86565 29.1285 9.91326C28.987 9.98146 28.7676 10.0368 28.6408 10.0368C28.4922 10.0368 28.1917 9.95379 28.0978 9.88817C27.9769 9.80002 27.8758 9.67135 27.8154 9.515L27.7549 9.36831L27.742 7.7219C27.7317 6.29423 27.724 6.07227 27.6912 6.05232C27.6281 6.01179 27.0221 6.01951 26.9867 6.06262Z" fill="white"/>
<path d="M30.6924 6.05489C30.6493 6.07741 30.6467 6.21638 30.6467 8.38008C30.6467 10.1378 30.6544 10.6898 30.677 10.713C30.6976 10.7329 30.8134 10.7432 31.0379 10.7432C31.2631 10.7432 31.3789 10.7329 31.3995 10.713C31.422 10.6898 31.4297 10.2967 31.4297 9.10646V7.5276L31.4851 7.61574C31.5964 7.79524 31.884 8.23596 31.9219 8.28421C31.9425 8.3093 31.9599 8.34212 31.9599 8.35498C31.9599 8.36721 31.9901 8.42061 32.0306 8.47079C32.0686 8.52098 32.1117 8.58403 32.1291 8.61169C32.3215 8.92695 32.3491 8.96748 32.4778 9.16179C32.5209 9.22484 32.6168 9.37603 32.6927 9.49699C32.768 9.61794 32.8921 9.8071 32.9655 9.9184C33.0356 10.0265 33.0967 10.1198 33.0967 10.1275C33.0967 10.1327 33.1347 10.1931 33.1797 10.2588C33.2807 10.4074 33.3039 10.4479 33.392 10.5991C33.4326 10.6647 33.4853 10.7252 33.513 10.7329C33.5407 10.7406 33.7054 10.7406 33.8791 10.7381L34.195 10.7304L34.2027 8.40002C34.2078 6.55158 34.2027 6.06519 34.1776 6.04717C34.1242 6.01436 33.4905 6.02208 33.4551 6.05747C33.4326 6.07998 33.4249 6.48081 33.4249 7.70195C33.4249 8.67024 33.4146 9.30526 33.4023 9.29046C33.3895 9.2776 33.3592 9.23256 33.3316 9.18945C33.2704 9.08329 33.1192 8.83366 33.071 8.76353C33.051 8.73072 33.0002 8.64965 32.9603 8.58146C32.9198 8.51647 32.8362 8.39037 32.7757 8.30158C32.7152 8.21344 32.6669 8.13559 32.6669 8.12787C32.6669 8.12015 32.6142 8.03458 32.5486 7.93614C32.4804 7.83513 32.4173 7.73669 32.4019 7.7116C32.2629 7.47741 32.0229 7.0991 31.7147 6.6275C31.5989 6.45315 31.5056 6.30195 31.5056 6.29423C31.5056 6.26142 31.3487 6.05747 31.3133 6.04203C31.2476 6.01693 30.7374 6.02723 30.6924 6.05489Z" fill="white"/>
<path d="M5.39188 11.835C5.18986 11.9129 5.00521 12.102 4.95245 12.286C4.90162 12.463 4.90162 12.5029 4.95245 12.6746C5.01036 12.8741 5.17957 13.0478 5.44464 13.1816C5.56109 13.2395 5.67433 13.2923 5.69491 13.3026C5.90208 13.3856 6.06615 13.5825 6.03591 13.7137C6.02819 13.7542 5.98765 13.8269 5.94712 13.8752C5.84611 13.9962 5.68719 14.0341 5.44721 13.991C5.35392 13.9762 5.26063 13.9479 5.23747 13.928C5.21752 13.9106 5.18729 13.8951 5.17184 13.8951C5.15705 13.8951 5.13131 13.8778 5.11394 13.8546C5.09142 13.8321 5.04832 13.8199 4.99041 13.8244C4.91192 13.8321 4.89905 13.8424 4.88168 13.9202C4.85144 14.0669 4.89905 14.1905 5.0155 14.2632C5.35907 14.478 5.81587 14.478 6.16201 14.2587C6.45475 14.074 6.586 13.6835 6.45218 13.3856C6.39684 13.2595 6.1974 13.0452 6.08609 12.995C6.04556 12.977 5.9928 12.9519 5.97286 12.9397C5.95227 12.9268 5.84611 12.8741 5.73802 12.8207C5.44464 12.6772 5.3565 12.5511 5.4144 12.3542C5.43949 12.2738 5.46265 12.2487 5.56109 12.2056C5.62414 12.178 5.69491 12.1554 5.71743 12.1554C5.78048 12.1554 6.03848 12.241 6.07837 12.2764C6.13949 12.324 6.27074 12.342 6.3132 12.3066C6.35116 12.2738 6.36661 12.0718 6.33637 11.9914C6.31835 11.9457 6.21219 11.8852 6.03591 11.8222C5.86155 11.7617 5.57074 11.7668 5.39188 11.835Z" fill="white"/>
<path d="M16.6354 11.8144C16.5878 11.835 16.5421 11.8801 16.5273 11.9206C16.5119 11.9637 16.5042 12.279 16.5068 12.7853C16.5093 13.3431 16.5016 13.5979 16.4817 13.6352C16.4662 13.6654 16.454 13.7111 16.454 13.7362C16.454 13.7639 16.4109 13.8244 16.3601 13.8726C16.2314 13.9936 16.0319 14.0392 15.8402 13.9936C15.6607 13.9505 15.5751 13.8823 15.5044 13.7214C15.4439 13.5876 15.4439 13.5773 15.4439 12.7325V11.8801L15.368 11.8402C15.3274 11.8196 15.2592 11.8022 15.2161 11.8022C15.1737 11.8022 15.1055 11.8196 15.0649 11.8402L14.989 11.8801V12.7679C14.9916 13.5522 14.9967 13.6706 15.0347 13.7819C15.1003 13.9685 15.1479 14.0489 15.2618 14.1602C15.653 14.5456 16.4186 14.5031 16.7519 14.0791C16.8555 13.9453 16.8857 13.8823 16.9359 13.6809C16.9764 13.5297 16.9841 13.3984 16.9841 12.7428C16.9841 12.3214 16.9738 11.9534 16.9591 11.918C16.9185 11.8099 16.7647 11.7617 16.6354 11.8144Z" fill="white"/>
<path d="M26.2929 11.8144C26.2395 11.835 26.1842 11.8653 26.1739 11.8826C26.1617 11.9006 26.1514 12.4501 26.1514 13.1031C26.1514 14.2181 26.1539 14.2934 26.197 14.3313C26.2903 14.4169 26.4821 14.4169 26.5657 14.3339C26.6011 14.2985 26.6062 14.1525 26.6062 13.1057C26.6062 12.4501 26.5959 11.9032 26.5857 11.8852C26.5754 11.8678 26.5277 11.8376 26.4795 11.817C26.4042 11.7868 26.3759 11.7868 26.2929 11.8144Z" fill="white"/>
<path d="M30.9626 11.8196C30.6442 11.938 30.3965 12.14 30.298 12.3594C30.1796 12.6193 30.1545 12.7602 30.1545 13.1263C30.1545 13.623 30.2427 13.8951 30.4775 14.1248C30.6847 14.3262 30.9472 14.4246 31.2753 14.4246C31.7353 14.4246 32.1342 14.1956 32.2931 13.845C32.3234 13.7819 32.3588 13.7034 32.3768 13.668C32.4778 13.4641 32.4701 12.5537 32.3691 12.4527C32.3517 12.4353 32.3388 12.4076 32.3388 12.3896C32.3388 12.3292 32.1645 12.0847 32.0686 12.0139C31.9374 11.9129 31.8865 11.8878 31.7102 11.8273C31.523 11.7643 31.1215 11.7591 30.9626 11.8196ZM31.642 12.2584C31.7681 12.3214 31.8158 12.3768 31.902 12.5588C31.965 12.6901 31.9676 12.7178 31.9676 13.0883C31.9676 13.4564 31.965 13.4866 31.9045 13.6178C31.8666 13.6938 31.7881 13.8019 31.7276 13.8598C31.5835 13.9936 31.3892 14.0393 31.1344 13.9936C30.8738 13.9479 30.7452 13.8199 30.6647 13.5246C30.5811 13.2144 30.6268 12.6193 30.7426 12.5029C30.7606 12.4855 30.7728 12.4604 30.7728 12.4424C30.7728 12.3819 30.9774 12.2359 31.0965 12.2108C31.2657 12.1728 31.5179 12.1953 31.642 12.2584Z" fill="white"/>
<path d="M9.76141 11.8299C9.67777 11.8627 9.6604 11.8955 9.6604 12.0165C9.6604 12.203 9.72345 12.2333 10.0921 12.2281C10.2433 12.2256 10.3746 12.2307 10.3823 12.2384C10.39 12.2461 10.3951 12.6901 10.3926 13.2222C10.3926 13.7568 10.3977 14.2233 10.4074 14.2586C10.4254 14.3339 10.5315 14.3995 10.6326 14.3995C10.7233 14.3995 10.8468 14.3313 10.8494 14.2786C10.8494 14.2561 10.8494 13.7845 10.8468 13.2318C10.8449 12.4276 10.8519 12.2307 10.8777 12.2281C10.8951 12.2281 11.0443 12.2281 11.2058 12.2307C11.4709 12.2333 11.5063 12.2281 11.5519 12.1831C11.6575 12.0769 11.6452 11.8929 11.5262 11.835C11.4509 11.7945 9.85985 11.7919 9.76141 11.8299Z" fill="white"/>
<path d="M20.7312 11.8376C20.6759 11.8627 20.6482 11.8955 20.6353 11.9534C20.6102 12.0847 20.618 14.1879 20.6456 14.2587C20.6836 14.3642 20.7543 14.3822 21.1101 14.377C21.6782 14.3719 21.8751 14.3365 22.11 14.1879C22.2592 14.092 22.3274 14.029 22.4111 13.908C22.7212 13.439 22.7167 12.6972 22.3956 12.2462C22.3197 12.1426 22.0469 11.9335 21.9839 11.9309C21.9613 11.9283 21.9234 11.9129 21.8957 11.8929C21.8275 11.8473 21.6705 11.8299 21.2009 11.8144C20.8978 11.8048 20.7917 11.8099 20.7312 11.8376ZM21.7239 12.2712C21.7542 12.2912 21.7973 12.3066 21.8172 12.3066C21.8577 12.3066 22.0044 12.4752 22.0675 12.5962C22.1151 12.6875 22.1608 12.9268 22.1608 13.0832C22.1608 13.2447 22.1125 13.5143 22.0649 13.6178C22.0141 13.724 21.8603 13.8951 21.8146 13.8951C21.7947 13.8951 21.7542 13.9106 21.7239 13.9305C21.6686 13.9685 21.143 13.9962 21.1127 13.9659C21.1024 13.9556 21.0902 12.3671 21.0998 12.2281C21.0998 12.1953 21.6686 12.2359 21.7239 12.2712Z" fill="white"/>
<path d="M4.88404 16.3085C4.86087 16.331 4.81584 16.3689 4.7856 16.3966L4.72962 16.4474L4.73992 17.4865C4.75021 18.2122 4.76244 18.5404 4.78303 18.5809C4.80554 18.6234 4.80297 18.651 4.77273 18.7096C4.73992 18.7752 4.73477 18.9663 4.73477 20.0735V21.3648L4.80812 21.433L4.88404 21.5038L4.80554 21.5713L4.72962 21.637L4.74249 22.6664C4.75021 23.4301 4.76244 23.7099 4.78817 23.7633C4.81584 23.8238 4.81326 23.8438 4.77788 23.9068C4.73992 23.9699 4.73477 24.1037 4.73477 25.2663C4.73477 26.4919 4.73735 26.5569 4.78303 26.6026C4.80812 26.6277 4.84608 26.6553 4.86345 26.6631C4.88918 26.6734 4.87374 26.6985 4.81326 26.7512L4.72705 26.8246L4.74249 27.8758C4.75279 28.6453 4.76244 28.9355 4.7856 28.9632C4.81069 28.9934 4.80812 29.0185 4.7753 29.0867C4.73992 29.162 4.73477 29.326 4.73477 30.4507V31.7297L4.81069 31.805L4.88661 31.8809L4.80812 31.9536L4.72962 32.0269L4.74249 33.0583C4.75021 33.7647 4.76244 34.1025 4.78303 34.1405C4.80554 34.1829 4.80297 34.2112 4.77273 34.2717C4.73735 34.3373 4.73477 34.511 4.73992 35.6582C4.74507 36.6593 4.75536 36.9746 4.77788 36.9977C4.82098 37.0402 5.20444 37.0402 5.24755 36.9977C5.26749 36.9771 5.27779 36.8665 5.27779 36.6419C5.27779 36.4656 5.28551 36.3119 5.2958 36.3016C5.30545 36.2913 5.35371 36.299 5.40646 36.3138C5.46951 36.337 5.59369 36.3421 5.77512 36.3344C6.02797 36.3215 6.04791 36.3241 6.04791 36.3672C6.04791 36.4277 6.12383 36.4656 6.24736 36.4656C6.3413 36.4656 6.35095 36.4727 6.35095 36.5261C6.35095 36.5615 6.37668 36.6065 6.40692 36.6271C6.45711 36.6619 7.05352 36.667 12.2379 36.667C17.9936 36.667 18.0116 36.667 18.0772 36.6168C18.1126 36.5892 18.1454 36.5409 18.1506 36.5081C18.1551 36.4682 18.1808 36.4476 18.2464 36.4354C18.2941 36.4251 18.3976 36.4052 18.4736 36.3897C18.5495 36.3749 18.6479 36.3447 18.693 36.3241C18.7361 36.3067 18.7895 36.2887 18.8094 36.2887C18.8293 36.2887 18.8879 36.2713 18.9355 36.2507C18.9863 36.2308 19.0822 36.2134 19.1478 36.2134C19.2134 36.2134 19.3016 36.1954 19.3421 36.1755C19.3801 36.1555 19.4361 36.1375 19.4611 36.1375C19.4862 36.1375 19.5519 36.1201 19.6027 36.0996C19.6831 36.0667 19.9559 36.0597 21.3907 36.0519C23.4186 36.0391 25.5527 35.9812 25.7219 35.9361C25.7695 35.9207 26.0275 35.8982 26.29 35.8853C26.871 35.8576 27.2068 35.8274 27.9313 35.7489C28.141 35.7264 28.3456 35.6962 28.3861 35.6839C28.4293 35.6711 28.5251 35.6537 28.601 35.646C28.6763 35.6357 28.8031 35.6132 28.8783 35.5926C28.9543 35.5726 29.063 35.5578 29.1183 35.5578C29.1769 35.5578 29.2373 35.5424 29.2521 35.5276C29.2702 35.5096 29.3609 35.4871 29.4542 35.4768C29.5481 35.469 29.7192 35.4362 29.8383 35.406C29.9566 35.3757 30.1111 35.341 30.1793 35.3281C30.25 35.3127 30.3407 35.2902 30.3813 35.2754C30.4244 35.2599 30.5428 35.2348 30.6464 35.2168C30.8355 35.184 30.9468 35.1564 31.0884 35.1062C31.3058 35.0328 31.5027 34.9775 31.5555 34.9775C31.6262 34.9775 31.8282 34.9067 31.8836 34.8643C31.9042 34.8462 31.9872 34.8038 32.0657 34.7632C32.177 34.7105 32.2246 34.67 32.2754 34.5844L32.341 34.4705L32.2902 34.3901C32.1943 34.2363 32.0554 34.1302 31.8714 34.0723C31.7755 34.0394 31.659 33.9989 31.6134 33.979C31.5709 33.959 31.5175 33.9436 31.4975 33.9436C31.4776 33.9436 31.4268 33.9262 31.3888 33.9056C31.3483 33.8857 31.2827 33.8677 31.2447 33.8677C31.2067 33.8677 31.1488 33.8503 31.116 33.8303C31.0581 33.7924 30.9571 33.7673 30.6361 33.7165C30.5556 33.7017 30.4392 33.674 30.3761 33.6534C30.3157 33.6335 30.2397 33.6155 30.2069 33.6155C30.1741 33.6155 30.1136 33.5981 30.0757 33.5781C30.0351 33.5575 29.9566 33.5402 29.9013 33.5402C29.846 33.5402 29.7778 33.5222 29.752 33.5022C29.7218 33.4797 29.6465 33.4643 29.5577 33.4643C29.4799 33.4643 29.3409 33.4417 29.2521 33.4141C29.1666 33.3864 29.0527 33.3639 29.0051 33.3639C28.9568 33.3639 28.8713 33.3459 28.8153 33.3259C28.76 33.3053 28.6641 33.2905 28.601 33.288C28.5348 33.288 28.4743 33.2777 28.4621 33.2655C28.4466 33.2526 28.2723 33.2301 28.0702 33.2146C27.8682 33.1998 27.6411 33.1767 27.5652 33.1644C27.4893 33.1516 27.3432 33.1394 27.2422 33.1394C27.1412 33.1368 27.0325 33.1239 27.0048 33.1091C26.9746 33.0937 26.8478 33.0763 26.7217 33.0712C26.1105 33.0461 25.9464 33.0358 25.9214 33.0203C25.8911 33.003 25.7219 32.9927 24.7871 32.9553C23.5395 32.9071 23.2616 32.8994 21.3778 32.8871C19.9411 32.8743 19.4837 32.864 19.4406 32.8389C19.4103 32.8241 19.3627 32.8087 19.3344 32.8087C19.3042 32.8087 19.2057 32.7733 19.1124 32.7282C19.0191 32.6851 18.9027 32.6401 18.8525 32.6298C18.8043 32.6195 18.691 32.5944 18.5997 32.5719C18.5089 32.5513 18.37 32.5185 18.2915 32.5037C18.1782 32.4786 18.1454 32.4632 18.1454 32.4252C18.1454 32.4001 18.1197 32.3551 18.092 32.3274C18.0393 32.274 18.0264 32.274 17.1302 32.2817L16.2211 32.292V31.4846L17.1475 31.4723C18.168 31.4569 18.0721 31.4749 18.1577 31.3083C18.1731 31.2832 18.2233 31.2504 18.2715 31.2375C18.5849 31.1622 18.6756 31.1371 18.7843 31.1043C18.9001 31.0664 18.976 31.0509 19.3067 30.9905C19.3827 30.9782 19.4914 30.9499 19.5467 30.9325C19.7339 30.8695 19.9006 30.8496 20.2036 30.8566C20.3702 30.8592 20.5343 30.8618 20.5697 30.8618C20.6051 30.8618 21.1783 30.8547 21.8449 30.847C23.5248 30.829 24.9087 30.8013 25.1789 30.7814C25.305 30.7736 25.5881 30.7563 25.81 30.7408C26.032 30.726 26.3453 30.7029 26.5049 30.6881C26.6638 30.6752 26.9514 30.6527 27.1464 30.6398C27.3381 30.6276 27.535 30.6044 27.5877 30.5896C27.6385 30.5768 27.7698 30.5645 27.8811 30.5645C27.9924 30.5645 28.1288 30.5517 28.1841 30.5369C28.2395 30.524 28.3533 30.5015 28.4363 30.4912C28.52 30.4809 28.6384 30.4584 28.702 30.4436C28.7651 30.4281 28.9189 30.3979 29.0424 30.3754C29.1691 30.3529 29.3557 30.3149 29.4593 30.2943C29.5629 30.2744 29.7019 30.2493 29.7649 30.2364C29.828 30.2242 29.9418 30.1985 30.0152 30.1759C30.0905 30.1534 30.1818 30.1354 30.2198 30.1354C30.2577 30.1354 30.3208 30.118 30.3588 30.0981C30.3986 30.0775 30.4572 30.0601 30.4849 30.0601C30.5151 30.0601 30.5884 30.0421 30.6464 30.0222C30.7043 30.0022 30.7853 29.9842 30.8259 29.9842C30.8664 29.9842 30.9346 29.9694 30.9796 29.9488C31.0806 29.9064 31.2447 29.8632 31.4293 29.8304C31.5053 29.8156 31.5786 29.795 31.5908 29.7803C31.6063 29.7674 31.6391 29.7571 31.6668 29.7571C31.7221 29.7571 31.9621 29.6439 32.0785 29.5609C32.1191 29.5358 32.1692 29.5055 32.1918 29.4978C32.2149 29.4901 32.26 29.4373 32.2883 29.3794L32.341 29.2758L32.2883 29.1903C32.1995 29.0462 32.0483 28.9303 31.8913 28.8847C31.8109 28.8621 31.7272 28.8345 31.7073 28.8242C31.5786 28.7611 30.9346 28.572 30.7982 28.5598C30.7068 28.5495 30.611 28.534 30.5833 28.5218C30.5556 28.5089 30.4823 28.489 30.4192 28.4735C30.2777 28.4433 30.1284 28.406 29.8962 28.3429C29.7952 28.3172 29.6716 28.2947 29.6234 28.2947C29.5732 28.2947 29.5127 28.2844 29.487 28.2696C29.4419 28.2471 29.3281 28.2239 28.9163 28.1538C28.805 28.1358 28.6512 28.1081 28.5753 28.0933C28.5 28.0779 28.3656 28.0605 28.2826 28.0579C28.1964 28.0528 28.1159 28.0425 28.1005 28.0322C28.078 28.0174 27.7067 27.9769 27.1611 27.9267C27.0981 27.9215 26.8555 27.9061 26.6181 27.8913C26.3833 27.8784 26.1433 27.861 26.088 27.8533C26.032 27.8456 25.7772 27.8282 25.5199 27.8154C25.2619 27.8031 25.0071 27.7851 24.9511 27.7806C24.6738 27.7478 22.8222 27.7073 21.3398 27.6996C20.3246 27.6944 19.6098 27.6796 19.5088 27.6642C19.418 27.6494 19.2237 27.5863 19.0771 27.5258C18.9284 27.4628 18.7792 27.412 18.7412 27.412C18.7058 27.412 18.6325 27.3972 18.5823 27.3766C18.5289 27.3566 18.4105 27.3341 18.3172 27.3238C18.1905 27.311 18.1454 27.2987 18.1454 27.2711C18.1454 27.2505 18.1274 27.2003 18.1075 27.1598L18.0695 27.0845L17.145 27.0793L16.2211 27.0716V26.315L17.1276 26.3028C18.1171 26.2899 18.1023 26.2925 18.1403 26.1413C18.1577 26.0705 18.1731 26.0602 18.2741 26.0506C18.3346 26.0428 18.4105 26.0229 18.4407 26.0049C18.471 25.9875 18.5289 25.9746 18.572 25.9746C18.6151 25.9746 18.6859 25.9598 18.7309 25.9393C18.8197 25.9013 19.014 25.8563 19.2186 25.8286C19.2894 25.8183 19.3576 25.8009 19.3749 25.7906C19.3904 25.7803 19.5088 25.745 19.64 25.7121C19.8375 25.6645 19.9257 25.6542 20.1907 25.662C20.3651 25.6671 20.5343 25.6697 20.5697 25.6697C24.6307 25.6369 24.8527 25.6317 24.9061 25.6015C24.9415 25.5815 25.0779 25.5712 25.3127 25.5712C25.507 25.5712 25.8808 25.5558 26.1407 25.5359C26.4039 25.5159 26.7597 25.4902 26.934 25.4831C27.1084 25.4728 27.2673 25.4554 27.2898 25.4426C27.313 25.4323 27.4642 25.4149 27.6308 25.4046C27.7949 25.395 27.9544 25.3769 27.9821 25.3621C28.0098 25.3467 28.1565 25.3268 28.3051 25.319C28.4543 25.3087 28.5907 25.2888 28.6055 25.2734C28.6236 25.256 28.6866 25.2431 28.7497 25.2431C28.8153 25.2405 28.9111 25.2257 28.9671 25.2058C29.0225 25.1852 29.1035 25.1678 29.146 25.1678C29.1891 25.1678 29.2573 25.155 29.2978 25.1428C29.3384 25.1273 29.4619 25.0996 29.5732 25.0823C29.79 25.0417 29.9566 25.0038 30.0782 24.9607C30.1214 24.9459 30.2121 24.9253 30.2803 24.9156C30.351 24.9028 30.4746 24.8777 30.5582 24.8552C30.6412 24.832 30.7396 24.8146 30.7802 24.8146C30.8181 24.8146 30.8683 24.8043 30.8941 24.7921C30.9166 24.7792 30.9951 24.749 31.0633 24.7265C31.1868 24.686 31.2299 24.6757 31.5555 24.6081C31.7144 24.5727 32.0052 24.444 32.0882 24.3707C32.1088 24.3507 32.1467 24.3353 32.1667 24.3353C32.1892 24.3353 32.2374 24.2851 32.2728 24.2246C32.3256 24.1314 32.3333 24.1011 32.3134 24.0458C32.2702 23.9345 32.0457 23.735 31.9421 23.7151C31.8913 23.7048 31.8205 23.6823 31.7851 23.6649C31.7498 23.6443 31.7073 23.6295 31.6918 23.6295C31.6745 23.6295 31.6288 23.6115 31.5908 23.5916C31.5503 23.5716 31.495 23.5536 31.4673 23.5536C31.4396 23.551 31.3888 23.5362 31.3534 23.5156C31.318 23.4957 31.2601 23.4809 31.2196 23.4783C31.1816 23.4783 31.1083 23.4552 31.0581 23.4275C31.0047 23.3998 30.9346 23.3773 30.8992 23.3773C30.8104 23.3773 30.4244 23.3014 30.3182 23.2634C30.27 23.2461 30.1664 23.2184 30.0905 23.203C30.0152 23.1882 29.8157 23.145 29.651 23.1122C29.4844 23.0769 29.3229 23.0492 29.2927 23.0492C29.2624 23.0492 29.2045 23.0318 29.1666 23.0119C29.126 22.9913 29.0405 22.9739 28.9742 22.9739C28.9086 22.9739 28.8256 22.961 28.785 22.9437C28.7091 22.9134 28.3051 22.86 27.8431 22.8246C27.6842 22.8124 27.5247 22.7899 27.4893 22.777C27.4539 22.7642 27.257 22.7442 27.0473 22.7365C26.8407 22.7269 26.6284 22.7088 26.5802 22.6966C26.5326 22.6837 26.2598 22.6664 25.9741 22.6587C25.6891 22.6484 25.3886 22.631 25.305 22.6155C25.1281 22.5879 23.4791 22.5403 23.3427 22.5602C23.2873 22.5679 23.2262 22.5602 23.1908 22.5403C23.1458 22.5145 22.754 22.5049 21.2896 22.4946C19.254 22.4791 19.4232 22.492 19.0339 22.3157C18.9484 22.2752 18.8345 22.2424 18.7817 22.2424C18.7309 22.2398 18.6601 22.225 18.6248 22.2044C18.59 22.1845 18.5089 22.169 18.4459 22.1665C18.2664 22.1665 18.1757 22.124 18.1248 22.0178L18.0824 21.9271L17.1501 21.9143L16.2211 21.902V21.516C16.2211 21.3043 16.2256 21.1229 16.2333 21.1152C16.241 21.1075 16.6399 21.1049 17.1199 21.1049C17.7259 21.1075 18.009 21.0997 18.047 21.0824C18.0747 21.065 18.1152 21.0167 18.1326 20.9717C18.1654 20.8958 18.1834 20.8855 18.3648 20.8456C18.635 20.7825 18.8293 20.7291 18.8879 20.6989C18.9156 20.6841 19.0166 20.6635 19.1124 20.6513C19.2868 20.6281 19.3627 20.6108 19.5847 20.5303C19.6831 20.4975 19.918 20.4898 21.3527 20.4821C23.7744 20.4673 25.6839 20.4139 25.8731 20.3534C25.9214 20.3386 26.1285 20.3257 26.3331 20.3257C26.5474 20.3257 26.7346 20.3135 26.7751 20.2981C26.8124 20.2826 26.9816 20.2653 27.1483 20.2601C27.3156 20.2524 27.497 20.2376 27.553 20.2247C27.6083 20.2125 27.7672 20.1945 27.9062 20.1874C28.0452 20.1771 28.2041 20.1591 28.26 20.1443C28.3154 20.1314 28.4569 20.1064 28.5753 20.0864C28.9999 20.0208 29.1434 19.9931 29.2193 19.968C29.2624 19.9526 29.3634 19.9326 29.4471 19.9249C29.5301 19.9146 29.6234 19.8947 29.6536 19.8767C29.6845 19.8593 29.745 19.8464 29.7874 19.8464C29.8305 19.8464 29.929 19.8239 30.0075 19.7962C30.0885 19.7686 30.1921 19.7461 30.2423 19.7461C30.2906 19.7435 30.3588 19.728 30.3941 19.7081C30.4289 19.6875 30.4849 19.6727 30.5202 19.6701C30.5962 19.6701 30.914 19.5994 31.0002 19.564C31.0781 19.5337 31.3991 19.4482 31.5683 19.4154C31.6391 19.4031 31.8109 19.3324 31.9543 19.2616C32.177 19.1484 32.222 19.113 32.278 19.0197L32.341 18.911L32.2902 18.8305C32.1821 18.6562 32.0605 18.5706 31.7826 18.4747C31.6365 18.4246 31.4847 18.3686 31.4422 18.3564C31.4017 18.3409 31.3155 18.3184 31.2524 18.3036C31.1894 18.2882 31.1263 18.2682 31.1083 18.2528C31.0781 18.2303 30.9217 18.1949 30.6515 18.1569C30.5653 18.1447 30.4443 18.117 30.3813 18.0939C30.3182 18.0739 30.2449 18.0559 30.2198 18.0559C30.1941 18.0559 30.131 18.0385 30.0834 18.0186C30.0326 17.998 29.9547 17.9806 29.909 17.9806C29.8634 17.978 29.7977 17.9626 29.7623 17.9427C29.727 17.9227 29.6465 17.9073 29.5835 17.9047C29.5198 17.9047 29.3834 17.8822 29.2798 17.8545C29.1769 17.8269 29.0553 17.8037 29.0096 17.8037C28.9646 17.8037 28.9066 17.794 28.8809 17.7786C28.7953 17.7336 27.7975 17.6075 27.3381 17.5824C27.1637 17.5721 26.9971 17.5496 26.9668 17.5315C26.9289 17.5116 26.7796 17.5013 26.4792 17.5013C26.1665 17.5013 26.0249 17.491 25.9638 17.4659C25.8982 17.4382 25.6711 17.426 25.0476 17.4132C24.5773 17.4029 24.199 17.3829 24.1714 17.3675C24.1379 17.3527 23.297 17.3372 21.8603 17.325C19.9887 17.3096 19.5699 17.2999 19.4335 17.2671C19.2791 17.2317 19.1202 17.1764 19.0269 17.1256C18.9812 17.1005 18.4054 16.957 18.2535 16.9313C18.1628 16.919 18.1454 16.9036 18.1326 16.8431C18.1223 16.8026 18.0946 16.7575 18.0669 16.7447C18.0161 16.717 6.48734 16.7067 6.414 16.735C6.39405 16.7421 6.36639 16.7852 6.35609 16.8309C6.33872 16.901 6.32586 16.9087 6.22227 16.9165C6.16179 16.9216 6.09359 16.939 6.07365 16.957C6.03569 16.9892 5.86905 17.0297 5.79571 17.0246C5.77512 17.022 5.66189 17.0149 5.54286 17.0072C5.42448 16.9995 5.31832 16.9821 5.30545 16.9692C5.29323 16.957 5.28036 16.818 5.28036 16.6591C5.27779 16.3059 5.25527 16.266 5.05325 16.2679C4.97475 16.2679 4.90913 16.286 4.88404 16.3085ZM6.03054 20.7542C6.04084 20.7542 6.04791 20.7697 6.04791 20.7896C6.04791 20.8604 6.12383 20.9061 6.24029 20.9061C6.3413 20.9061 6.35095 20.9106 6.35095 20.9666C6.35095 21.1126 6.32843 21.11 7.57337 21.1075L8.7128 21.1023L8.72503 21.4832C8.73275 21.6929 8.73532 21.8769 8.73018 21.8892C8.72503 21.9046 8.29847 21.9143 7.56372 21.9143C6.34644 21.9143 6.36896 21.9123 6.34644 22.0281C6.3413 22.0687 6.31299 22.0809 6.2197 22.0912C6.15407 22.0989 6.08073 22.124 6.05306 22.1491C6.02797 22.1716 5.98744 22.1922 5.96492 22.1922C5.94176 22.1922 5.89672 22.2044 5.86133 22.2199C5.81051 22.2424 5.77769 22.2398 5.69727 22.2096C5.62907 22.1819 5.5583 22.1742 5.47466 22.1845C5.38137 22.1948 5.34341 22.1896 5.31832 22.1594C5.29065 22.124 5.26492 21.7785 5.26492 21.4735C5.27007 21.0695 5.28036 20.7871 5.2958 20.7671C5.30802 20.7472 5.57052 20.742 6.03054 20.7542ZM6.05306 26.0049C6.07815 26.0454 6.12383 26.0628 6.21198 26.0731C6.32071 26.0859 6.33872 26.0956 6.35352 26.1587C6.39405 26.3098 6.331 26.3028 7.57852 26.3028H8.7276L8.71988 26.6959L8.7128 27.0871L7.55858 27.0845C6.69194 27.0845 6.40178 27.0896 6.38633 27.1121C6.37668 27.1295 6.36124 27.1778 6.35095 27.2202C6.33615 27.2936 6.331 27.2987 6.2197 27.2987C6.13413 27.2987 6.08845 27.3135 6.05564 27.3489C6.00545 27.4023 5.97264 27.4042 5.51262 27.392L5.31832 27.3869L5.2958 27.3039C5.28293 27.2582 5.27779 27.1372 5.28551 27.0311C5.29323 26.9024 5.28551 26.8168 5.26041 26.7564C5.23018 26.683 5.23018 26.6579 5.25784 26.6052C5.28293 26.5595 5.28808 26.4688 5.27779 26.27C5.27007 26.1181 5.27007 25.9849 5.27779 25.9721C5.28808 25.9598 5.45729 25.9496 5.65416 25.9496C6.0003 25.9496 6.01768 25.9521 6.05306 26.0049ZM6.04277 31.1693C6.0685 31.2452 6.1515 31.2954 6.24994 31.2954C6.33358 31.2954 6.35095 31.3031 6.35095 31.3437C6.35095 31.3713 6.36896 31.4119 6.39148 31.4318C6.42687 31.4672 6.56841 31.4723 7.57595 31.4723C8.20711 31.4723 8.72503 31.4801 8.73018 31.4897C8.73532 31.5026 8.73532 31.6892 8.73018 31.9086L8.72246 32.3042H7.55858C6.91712 32.3017 6.38376 32.312 6.37411 32.3223C6.36382 32.3319 6.35095 32.3699 6.34644 32.4053C6.33872 32.4606 6.32328 32.4683 6.22484 32.476C6.16179 32.4812 6.09102 32.5037 6.06336 32.5262C6.0254 32.5616 5.96492 32.5693 5.67411 32.5642C5.46951 32.5616 5.32089 32.5468 5.30545 32.5314C5.28808 32.514 5.28036 32.413 5.28551 32.2669C5.29065 32.108 5.28036 32.0019 5.25784 31.9465C5.23018 31.8783 5.23018 31.8507 5.25527 31.7876C5.28036 31.7323 5.28551 31.6409 5.27264 31.4543C5.26299 31.2883 5.26749 31.1848 5.28551 31.1648C5.32089 31.1191 6.03054 31.1269 6.04277 31.1693Z" fill="white"/>
</g>
<defs>
<clipPath id="clip0_2_2891">
<rect width="37.3882" height="42" fill="white"/>
</clipPath>
</defs>
</svg>
