<svg width="22" height="22" viewBox="0 0 22 22" fill="none" xmlns="http://www.w3.org/2000/svg">
<g opacity="0.5">
<path fill-rule="evenodd" clip-rule="evenodd" d="M11.001 2.99988C8.51866 2.99988 6.49864 3.69979 5.09977 5.09867C3.70089 6.49755 3.00098 8.51755 3.00098 10.9999C3.00098 13.4822 3.70089 15.5022 5.09977 16.9011C6.49864 18.3 8.51866 18.9999 11.001 18.9999C13.4833 18.9999 15.5033 18.3 16.9021 16.9011C18.301 15.5022 19.0009 13.4822 19.0009 10.9999C19.0009 8.51755 18.301 6.49755 16.9021 5.09867C15.5033 3.69979 13.4833 2.99988 11.001 2.99988ZM9.37382 5.16181C9.84729 5.16181 10.2311 5.54564 10.2311 6.01912V6.33304C10.2311 6.80651 9.84729 7.19034 9.37382 7.19034C8.90034 7.19034 8.51652 6.80651 8.51652 6.33304V6.01912C8.51652 5.54564 8.90034 5.16181 9.37382 5.16181ZM10.2311 15.6671C10.2311 15.1937 9.84729 14.8098 9.37382 14.8098C8.90034 14.8098 8.51652 15.1937 8.51652 15.6671V15.981C8.51652 16.4545 8.90034 16.8383 9.37382 16.8383C9.84729 16.8383 10.2311 16.4545 10.2311 15.981V15.6671ZM12.707 5.16181C13.1805 5.16181 13.5643 5.54564 13.5643 6.01912V6.33304C13.5643 6.80651 13.1805 7.19034 12.707 7.19034C12.2336 7.19034 11.8497 6.80651 11.8497 6.33304V6.01912C11.8497 5.54564 12.2336 5.16181 12.707 5.16181ZM13.5643 15.6671C13.5643 15.1937 13.1805 14.8098 12.707 14.8098C12.2336 14.8098 11.8497 15.1937 11.8497 15.6671V15.981C11.8497 16.4545 12.2336 16.8383 12.707 16.8383C13.1805 16.8383 13.5643 16.4545 13.5643 15.981V15.6671ZM16.8786 9.33337C16.8786 9.80685 16.4948 10.1907 16.0213 10.1907H15.7074C15.2339 10.1907 14.8501 9.80685 14.8501 9.33337C14.8501 8.8599 15.2339 8.47607 15.7074 8.47607H16.0213C16.4948 8.47607 16.8786 8.8599 16.8786 9.33337ZM6.37327 10.1907C6.84676 10.1907 7.23058 9.80685 7.23058 9.33337C7.23058 8.8599 6.84676 8.47607 6.37327 8.47607H6.05936C5.58589 8.47607 5.20206 8.8599 5.20206 9.33337C5.20206 9.80685 5.58589 10.1907 6.05936 10.1907H6.37327ZM16.8786 12.6666C16.8786 13.1401 16.4948 13.5239 16.0213 13.5239H15.7074C15.2339 13.5239 14.8501 13.1401 14.8501 12.6666C14.8501 12.1931 15.2339 11.8093 15.7074 11.8093H16.0213C16.4948 11.8093 16.8786 12.1931 16.8786 12.6666ZM6.37327 13.5239C6.84676 13.5239 7.23058 13.1401 7.23058 12.6666C7.23058 12.1931 6.84676 11.8093 6.37327 11.8093H6.05936C5.58589 11.8093 5.20206 12.1931 5.20206 12.6666C5.20206 13.1401 5.58589 13.5239 6.05936 13.5239H6.37327ZM9.20676 10.3331C9.95358 10.3331 10.3737 9.91299 10.3737 9.16617C10.3737 8.41936 9.95358 7.99928 9.20676 7.99928C8.45995 7.99928 8.03987 8.41936 8.03987 9.16617C8.03987 9.91299 8.45995 10.3331 9.20676 10.3331ZM14.0406 9.16617C14.0406 9.91299 13.6206 10.3331 12.8737 10.3331C12.1269 10.3331 11.7068 9.91299 11.7068 9.16617C11.7068 8.41936 12.1269 7.99928 12.8737 7.99928C13.6206 7.99928 14.0406 8.41936 14.0406 9.16617ZM9.20676 14.0007C9.95358 14.0007 10.3737 13.5807 10.3737 12.8339C10.3737 12.087 9.95358 11.667 9.20676 11.667C8.45995 11.667 8.03987 12.087 8.03987 12.8339C8.03987 13.5807 8.45995 14.0007 9.20676 14.0007ZM14.0406 12.8339C14.0406 13.5807 13.6206 14.0007 12.8737 14.0007C12.1269 14.0007 11.7068 13.5807 11.7068 12.8339C11.7068 12.087 12.1269 11.667 12.8737 11.667C13.6206 11.667 14.0406 12.087 14.0406 12.8339Z" fill="white"/>
</g>
</svg>
