<svg width="22" height="22" viewBox="0 0 22 22" fill="none" xmlns="http://www.w3.org/2000/svg">
<g opacity="0.5">
<path d="M14.7328 8.86655H14.1995V6.19989C14.1995 5.35118 13.8623 4.53725 13.2622 3.93713C12.6621 3.33702 11.8482 2.99988 10.9995 2.99988C10.1508 2.99988 9.33684 3.33702 8.73673 3.93713C8.13661 4.53725 7.79947 5.35118 7.79947 6.19989V8.86655H7.26613C6.70054 8.86719 6.15828 9.09212 5.75834 9.49209C5.35839 9.89202 5.13343 10.4343 5.13281 10.9999V16.8666C5.13343 17.4321 5.35839 17.9744 5.75834 18.3743C6.15828 18.7743 6.70054 18.9992 7.26613 18.9999H14.7328C15.2984 18.9992 15.8407 18.7743 16.2406 18.3743C16.6406 17.9744 16.8655 17.4321 16.8662 16.8666V10.9999C16.8655 10.4343 16.6406 9.89202 16.2406 9.49209C15.8407 9.09212 15.2984 8.86719 14.7328 8.86655ZM13.1328 8.86655H8.86615V6.19989C8.86615 5.63408 9.0909 5.09146 9.49098 4.69139C9.89106 4.29131 10.4337 4.06654 10.9995 4.06654C11.5653 4.06654 12.1079 4.29131 12.508 4.69139C12.9081 5.09146 13.1328 5.63408 13.1328 6.19989V8.86655Z" fill="white"/>
</g>
</svg>
