<svg width="22" height="22" viewBox="0 0 22 22" fill="none" xmlns="http://www.w3.org/2000/svg">
<g opacity="0.5">
<path d="M11 3.5C6.86454 3.5 3.5 6.86454 3.5 11C3.5 15.1355 6.86454 18.5 11 18.5C15.1355 18.5 18.5 15.1355 18.5 11C18.5 6.86454 15.1355 3.5 11 3.5ZM9.18919 7.71224C9.64605 7.228 10.2889 6.96154 11 6.96154C11.711 6.96154 12.3482 7.22981 12.8069 7.71658C13.2716 8.20988 13.4977 8.87261 13.4443 9.58511C13.3376 11 12.2415 12.1539 11 12.1539C9.75848 12.1539 8.66024 11 8.55564 9.58472C8.50265 8.86645 8.72835 8.20156 9.18919 7.71224ZM11 17.3461C10.1528 17.3467 9.31413 17.1771 8.53374 16.8475C7.75328 16.5179 7.04697 16.0349 6.45673 15.4271C6.7948 14.9451 7.22554 14.5352 7.72379 14.2214C8.64292 13.6322 9.80612 13.3077 11 13.3077C12.1938 13.3077 13.3571 13.6322 14.2751 14.2214C14.7738 14.535 15.2049 14.9449 15.5433 15.4271C14.953 16.035 14.2467 16.518 13.4663 16.8476C12.6859 17.1773 11.8472 17.3468 11 17.3461Z" fill="white"/>
</g>
</svg>
