<svg width="32" height="32" viewBox="0 0 32 32" fill="none" xmlns="http://www.w3.org/2000/svg">
<path d="M22.3893 6.09801V25.9022C22.3893 26.0719 22.3219 26.2347 22.2019 26.3547C22.0819 26.4747 21.9191 26.5422 21.7493 26.5422C21.5796 26.5422 21.4168 26.4747 21.2968 26.3547C21.1768 26.2347 21.1093 26.0719 21.1093 25.9022V6.09801C21.1093 5.92827 21.1768 5.76548 21.2968 5.64546C21.4168 5.52544 21.5796 5.45801 21.7493 5.45801C21.9191 5.45801 22.0819 5.52544 22.2019 5.64546C22.3219 5.76548 22.3893 5.92827 22.3893 6.09801ZM15.9996 7.82857C15.8298 7.82857 15.667 7.896 15.547 8.01602C15.427 8.13604 15.3596 8.29883 15.3596 8.46857V23.5316C15.3596 23.7013 15.427 23.8641 15.547 23.9842C15.667 24.1042 15.8298 24.1716 15.9996 24.1716C16.1693 24.1716 16.3321 24.1042 16.4521 23.9842C16.5721 23.8641 16.6396 23.7013 16.6396 23.5316V8.46857C16.6396 8.29883 16.5721 8.13604 16.4521 8.01602C16.3321 7.896 16.1693 7.82857 15.9996 7.82857ZM27.4978 11.6225C27.3281 11.6225 27.1653 11.6899 27.0453 11.8099C26.9252 11.93 26.8578 12.0927 26.8578 12.2625V19.7377C26.8578 19.9074 26.9252 20.0702 27.0453 20.1902C27.1653 20.3103 27.3281 20.3777 27.4978 20.3777C27.6675 20.3777 27.8303 20.3103 27.9504 20.1902C28.0704 20.0702 28.1378 19.9074 28.1378 19.7377V12.2625C28.1378 12.0927 28.0704 11.93 27.9504 11.8099C27.8303 11.6899 27.6675 11.6225 27.4978 11.6225ZM10.2498 6.33865C10.0801 6.33865 9.91728 6.40608 9.79726 6.5261C9.67724 6.64612 9.60981 6.80891 9.60981 6.97865V25.0266C9.60981 25.1964 9.67724 25.3592 9.79726 25.4792C9.91728 25.5992 10.0801 25.6666 10.2498 25.6666C10.4195 25.6666 10.5823 25.5992 10.7024 25.4792C10.8224 25.3592 10.8898 25.1964 10.8898 25.0266V6.97865C10.8898 6.80891 10.8224 6.64612 10.7024 6.5261C10.5823 6.40608 10.4195 6.33865 10.2498 6.33865ZM4.50133 13.467C4.33159 13.467 4.1688 13.5344 4.04878 13.6544C3.92876 13.7744 3.86133 13.9372 3.86133 14.107V17.8932C3.86133 18.0629 3.92876 18.2257 4.04878 18.3458C4.1688 18.4658 4.33159 18.5332 4.50133 18.5332C4.67107 18.5332 4.83385 18.4658 4.95388 18.3458C5.0739 18.2257 5.14133 18.0629 5.14133 17.8932V14.107C5.14133 13.9372 5.0739 13.7744 4.95388 13.6544C4.83385 13.5344 4.67107 13.467 4.50133 13.467Z" fill="white"/>
</svg>
