<svg width="32" height="32" viewBox="0 0 32 32" fill="none" xmlns="http://www.w3.org/2000/svg">
<path d="M1.5 23.75C1.5 23.9315 1.5985 24.0995 1.758 24.1875L15.758 31.9375C15.833 31.979 15.9165 32 16 32C16.0835 32 16.167 31.979 16.242 31.9375L30.242 24.1875C30.4015 24.0995 30.5 23.9315 30.5 23.75C30.5 23.5685 30.4015 23.4005 30.242 23.3125L24.032 19.875L30.242 16.4375C30.4015 16.3495 30.5 16.1815 30.5 16C30.5 15.8185 30.4015 15.651 30.242 15.5625L24.0325 12.125L30.242 8.68749C30.4015 8.59949 30.5 8.43149 30.5 8.24999C30.5 8.06849 30.4015 7.90049 30.242 7.81249L16.242 0.0624941C16.0915 -0.0205059 15.908 -0.0205059 15.7575 0.0624941L1.7575 7.81249C1.5985 7.90049 1.5 8.06849 1.5 8.24999C1.5 8.43149 1.5985 8.59949 1.758 8.68749L7.9675 12.125L1.758 15.5625C1.5985 15.651 1.5 15.8185 1.5 16C1.5 16.1815 1.5985 16.3495 1.758 16.4375L7.968 19.875L1.758 23.3125C1.5985 23.4005 1.5 23.5685 1.5 23.75ZM14.9675 23.75L8.9975 27.052L6.532 25.6875L12.5 22.3845L14.9675 23.75ZM16 30.9285L13.529 29.5605L26.498 22.383L28.968 23.75L16 30.9285ZM25.465 21.811L12.496 28.9895L10.0295 27.6245L16.242 24.188L23 20.447L25.465 21.811ZM8.9975 4.94799L11.4655 6.31349L8.999 7.67799L6.5315 6.31249L8.9975 4.94799ZM12.496 3.01049L14.9645 4.37649L12.498 5.74099L10.03 4.37549L12.496 3.01049ZM21.967 4.37449L19.4965 5.74199L17.0295 4.37699L19.5005 3.00949L21.967 4.37449ZM25.465 6.31099L22.995 7.67799L20.5285 6.31349L22.9995 4.94649L25.465 6.31099ZM19.496 9.61449L17.0295 8.24999L19.4965 6.88499L21.9625 8.24999L19.496 9.61449ZM22.9945 8.82199L25.4645 10.189L22.999 11.5535L20.5285 10.1865L22.9945 8.82199ZM18.4635 10.1865L15.997 11.5515L13.53 10.1865L15.997 8.82149L18.4635 10.1865ZM18.463 6.31349L15.997 7.67799L13.53 6.31349L15.997 4.94849L18.463 6.31349ZM12.498 6.88499L14.964 8.24999L12.4975 9.61449L10.0315 8.24999L12.498 6.88499ZM11.465 10.1865L8.997 11.552L6.5315 10.1875L8.999 8.82199L11.465 10.1865ZM12.4975 10.758L14.9645 12.123L12.496 13.489L10.0295 12.1235L12.4975 10.758ZM15.997 12.695L18.4675 14.0625L16 15.4285L13.529 14.0605L15.997 12.695ZM19.5005 13.4905L17.0295 12.123L19.4965 10.758L21.967 12.1255L19.5005 13.4905ZM26.4975 9.61699L24.0275 8.24999L26.4975 6.88299L28.9675 8.24999L26.4975 9.61699ZM16 1.07149L18.468 2.43749L15.997 3.80499L13.5285 2.43949L16 1.07149ZM5.499 6.88449L7.9665 8.24999L5.499 9.61549L3.032 8.24999L5.499 6.88449ZM9 12.6965L15.758 16.4375C15.833 16.479 15.9165 16.5 16 16.5C16.0835 16.5 16.167 16.479 16.242 16.4375L23 12.6965L28.968 16L16 23.1785L3.032 16L9 12.6965ZM9 20.447L11.4675 21.8125L5.499 25.1155L3.032 23.75L9 20.447Z" fill="white"/>
</svg>
