<svg width="32" height="32" viewBox="0 0 32 32" fill="none" xmlns="http://www.w3.org/2000/svg">
<path d="M28.6875 1.76245H27.45C27.0938 1.76245 26.8 2.0562 26.8 2.41245V7.07495H5.2V2.41245C5.2 2.0562 4.90625 1.76245 4.55 1.76245H3.30625C1.48125 1.76245 0 3.2437 0 5.0687V26.9249C0 28.5124 1.4125 30.2374 3.375 30.2374H28.6187C30.5812 30.2374 32 28.5374 32 26.9249V5.0687C32 3.2437 30.5125 1.76245 28.6875 1.76245ZM1.30625 5.0687C1.30625 3.96245 2.20625 3.06245 3.30625 3.06245H3.89375V23.6124H3.30625C2.55625 23.6124 1.8625 23.8687 1.30625 24.2937C1.30625 24.3 1.30625 5.0687 1.30625 5.0687ZM30.625 26.9312C30.625 28.0437 29.7188 28.9375 28.6187 28.9375H3.375C2.25625 28.9375 1.36875 28.0312 1.36875 26.9312V26.4375C1.58125 25.575 2.36875 24.9249 3.30625 24.9249H4.54375C4.9 24.9249 5.19375 24.6374 5.19375 24.275V8.3812H26.7938V24.2687C26.7938 24.6312 27.0875 24.9187 27.4438 24.9187H28.6875C29.6187 24.9187 30.4 25.5562 30.625 26.4187V26.9312ZM30.6938 24.2999C30.1375 23.875 29.4375 23.6187 28.6875 23.6187H28.1V3.0687H28.6875C29.7938 3.0687 30.6938 3.9687 30.6938 5.07495V24.2999Z" fill="white"/>
<path d="M23.2316 11.775H8.76914C7.75664 11.775 6.93164 12.6 6.93164 13.6125V23.7063C6.93164 24.7188 7.75664 25.5438 8.76914 25.5438H10.1379C10.5004 25.5438 10.7879 25.25 10.7879 24.8938C10.7879 24.5313 10.4941 24.2438 10.1379 24.2438H8.76914C8.47539 24.2438 8.23789 24.0063 8.23789 23.7125V16.9063H9.73789C10.1004 16.9063 10.3879 16.6125 10.3879 16.2563C10.3879 15.8938 10.0941 15.6063 9.73789 15.6063H8.23789V13.6188C8.23789 13.325 8.47539 13.0875 8.76914 13.0875H16.1129V15.6063H12.6504C12.2879 15.6063 12.0004 15.9 12.0004 16.2563C12.0004 16.6125 12.2941 16.9063 12.6504 16.9063H16.7691C17.1316 16.9063 17.4191 16.6125 17.4191 16.2563V13.0813H23.2316C23.5254 13.0813 23.7629 13.3188 23.7629 13.6125V18.5188H16.7629C16.4004 18.5188 16.1129 18.8125 16.1129 19.1688C16.1129 19.525 16.4066 19.8188 16.7629 19.8188H23.7629V23.7C23.7629 23.9938 23.5254 24.2313 23.2316 24.2313H17.4191V23.0063C17.4191 22.6438 17.1254 22.3563 16.7691 22.3563C16.4066 22.3563 16.1191 22.65 16.1191 23.0063V24.2313H14.5629L13.6566 22.3375C13.5004 22.0125 13.1129 21.875 12.7879 22.0313C12.4629 22.1875 12.3254 22.575 12.4816 22.9L13.5629 25.1688C13.6691 25.3938 13.9004 25.5375 14.1504 25.5375H23.2379C24.2504 25.5375 25.0754 24.7125 25.0754 23.7V13.6125C25.0691 12.6 24.2441 11.775 23.2316 11.775Z" fill="white"/>
</svg>
