<svg width="22" height="22" viewBox="0 0 22 22" fill="none" xmlns="http://www.w3.org/2000/svg">
<g opacity="0.5">
<path d="M18.0935 7.90714C17.9876 7.80044 17.8615 7.71588 17.7227 7.6582C17.5838 7.60061 17.4349 7.57112 17.2846 7.57143H14.9989V7.00003C14.9989 5.93912 14.5775 4.92173 13.8273 4.17156C13.0772 3.42143 12.0598 3 10.9988 3C9.938 3 8.92058 3.42143 8.17045 4.17156C7.42031 4.92173 6.99888 5.93912 6.99888 7.00003V7.57143H4.71317C4.41004 7.57143 4.11936 7.69184 3.90504 7.90616C3.69072 8.12051 3.57031 8.41119 3.57031 8.71429V16.4286C3.57031 17.8214 4.74888 19 6.14174 19H15.856C16.5298 19.0002 17.1768 18.7368 17.6589 18.2661C17.9014 18.0347 18.0946 17.7565 18.2267 17.4483C18.3588 17.1402 18.4271 16.8085 18.4275 16.4732V8.71429C18.4279 8.56435 18.3986 8.41582 18.3413 8.27728C18.284 8.13871 18.1998 8.01296 18.0935 7.90714ZM8.14171 7.00003C8.14171 6.24224 8.44276 5.51551 8.97858 4.97969C9.51439 4.44388 10.2411 4.14286 10.9988 4.14286C11.7566 4.14286 12.4834 4.44388 13.0192 4.97969C13.555 5.51551 13.856 6.24224 13.856 7.00003V7.57143H8.14171V7.00003ZM14.9989 10.4286C14.9989 11.4895 14.5775 12.5069 13.8273 13.257C13.0772 14.0072 12.0597 14.4286 10.9988 14.4286C9.938 14.4286 8.92058 14.0072 8.17045 13.257C7.42028 12.5069 6.99888 11.4895 6.99888 10.4286V9.85718C6.99888 9.70561 7.05905 9.56024 7.16623 9.45309C7.27341 9.34595 7.41878 9.28575 7.57031 9.28575C7.72181 9.28575 7.86718 9.34592 7.97436 9.45309C8.08154 9.56027 8.14171 9.70561 8.14171 9.85718V10.4286C8.14171 11.1863 8.44273 11.9131 8.97854 12.4489C9.51436 12.9847 10.2411 13.2857 10.9988 13.2857C11.7566 13.2857 12.4834 12.9847 13.0192 12.4489C13.555 11.9131 13.856 11.1863 13.856 10.4286V9.85718C13.856 9.70561 13.9162 9.56024 14.0233 9.45309C14.1306 9.34592 14.2759 9.28575 14.4274 9.28575C14.579 9.28575 14.7244 9.34592 14.8315 9.45309C14.9386 9.56024 14.9989 9.70561 14.9989 9.85718V10.4286Z" fill="white"/>
</g>
</svg>
