<svg width="14" height="14" viewBox="0 0 14 14" fill="none" xmlns="http://www.w3.org/2000/svg">
<g clip-path="url(#clip0_39_2212)">
<path fill-rule="evenodd" clip-rule="evenodd" d="M8.81331 2.02116C8.6709 2.56234 8.61165 3.19238 8.60824 3.87826H11.8382C11.894 3.31315 11.8656 2.82096 11.7756 2.38232C11.5215 1.13932 11.0771 0.792969 10.2124 0C9.514 0.698405 9.07992 1.01286 8.81331 2.02116ZM2.28044 2.02116C2.13802 2.56234 2.07878 3.19238 2.07536 3.87826H5.30534C5.36117 3.31315 5.33268 2.82096 5.24268 2.38232C4.98975 1.13932 4.54427 0.792969 3.67952 0C2.98112 0.698405 2.54704 1.01286 2.28044 2.02116ZM2.09701 13.1512H2.13232V12.2466H2.007C1.77002 12.2466 1.5752 12.0518 1.5752 11.8148V5.24202C1.5752 5.00505 1.76888 4.81022 2.007 4.81022H5.40446C5.64144 4.81022 5.83626 5.00505 5.83626 5.24202V11.8148C5.83626 12.0518 5.64144 12.2466 5.40446 12.2466H5.27913V13.1512H5.31445C5.54801 13.1512 5.73942 13.3426 5.73942 13.5762C5.73942 13.8097 5.54801 14.0011 5.31445 14.0011H2.09701C1.86344 14.0011 1.67204 13.8097 1.67204 13.5762C1.67318 13.3415 1.86344 13.1512 2.09701 13.1512ZM8.62988 13.1512H8.6652V12.2466H8.53988C8.3029 12.2466 8.10807 12.0518 8.10807 11.8148V5.24202C8.10807 5.00505 8.30176 4.81022 8.53988 4.81022H11.9373C12.1743 4.81022 12.3691 5.00505 12.3691 5.24202V11.8148C12.3691 12.0518 12.1743 12.2466 11.9373 12.2466H11.812V13.1512H11.8473C12.0809 13.1512 12.2723 13.3426 12.2723 13.5762C12.2723 13.8097 12.0809 14.0011 11.8473 14.0011H8.62988C8.39632 14.0011 8.20492 13.8097 8.20492 13.5762C8.20492 13.3415 8.39632 13.1512 8.62988 13.1512Z" fill="#F29315"/>
</g>
<defs>
<clipPath id="clip0_39_2212">
<rect width="14" height="14" fill="white"/>
</clipPath>
</defs>
</svg>
