<svg width="8" height="8" viewBox="0 0 8 8" fill="none" xmlns="http://www.w3.org/2000/svg">
<g clip-path="url(#clip0_27_1817)">
<path fill-rule="evenodd" clip-rule="evenodd" d="M5.03646 1.15495C4.95508 1.46419 4.92122 1.82422 4.91927 2.21615H6.76497C6.79688 1.89323 6.7806 1.61198 6.72917 1.36133C6.58398 0.651042 6.33008 0.453125 5.83594 0C5.43685 0.399089 5.1888 0.578776 5.03646 1.15495ZM1.30339 1.15495C1.22201 1.46419 1.18815 1.82422 1.1862 2.21615H3.0319C3.0638 1.89323 3.04753 1.61198 2.99609 1.36133C2.85156 0.651042 2.59701 0.453125 2.10286 0C1.70378 0.399089 1.45573 0.578776 1.30339 1.15495ZM1.19857 7.51497H1.21875V6.99805H1.14714C1.01172 6.99805 0.900391 6.88672 0.900391 6.7513V2.99544C0.900391 2.86003 1.01107 2.7487 1.14714 2.7487H3.08854C3.22396 2.7487 3.33529 2.86003 3.33529 2.99544V6.7513C3.33529 6.88672 3.22396 6.99805 3.08854 6.99805H3.01693V7.51497H3.03711C3.17057 7.51497 3.27995 7.62435 3.27995 7.75781C3.27995 7.89128 3.17057 8.00065 3.03711 8.00065H1.19857C1.0651 8.00065 0.955729 7.89128 0.955729 7.75781C0.95638 7.6237 1.0651 7.51497 1.19857 7.51497ZM4.93164 7.51497H4.95182V6.99805H4.88021C4.74479 6.99805 4.63346 6.88672 4.63346 6.7513V2.99544C4.63346 2.86003 4.74414 2.7487 4.88021 2.7487H6.82161C6.95703 2.7487 7.06836 2.86003 7.06836 2.99544V6.7513C7.06836 6.88672 6.95703 6.99805 6.82161 6.99805H6.75V7.51497H6.77018C6.90365 7.51497 7.01302 7.62435 7.01302 7.75781C7.01302 7.89128 6.90365 8.00065 6.77018 8.00065H4.93164C4.79818 8.00065 4.6888 7.89128 4.6888 7.75781C4.6888 7.6237 4.79818 7.51497 4.93164 7.51497Z" fill="#111111"/>
</g>
<defs>
<clipPath id="clip0_27_1817">
<rect width="8" height="8" fill="white"/>
</clipPath>
</defs>
</svg>
