<svg width="22" height="22" viewBox="0 0 22 22" fill="none" xmlns="http://www.w3.org/2000/svg">
<g opacity="0.5">
<path d="M12.4655 3.5395C11.621 2.81984 10.379 2.81985 9.53456 3.5395L8.5193 4.40467C8.39867 4.50746 8.24869 4.56958 8.0907 4.58219L6.76106 4.6883C5.65506 4.77656 4.7768 5.65481 4.68854 6.76081L4.58244 8.09045C4.56984 8.24843 4.5077 8.39845 4.40491 8.51907L3.53973 9.5343C2.82008 10.3788 2.82009 11.6208 3.53975 12.4652L4.40492 13.4805C4.5077 13.6012 4.56983 13.7511 4.58243 13.9091L4.68856 15.2387C4.77682 16.3447 5.65508 17.2229 6.76109 17.3112L8.09071 17.4174C8.24869 17.4299 8.39864 17.4921 8.51926 17.5949L9.53448 18.46C10.379 19.1796 11.621 19.1797 12.4655 18.46L13.4808 17.5949C13.6013 17.4921 13.7513 17.4299 13.9093 17.4173L15.239 17.3112C16.3449 17.223 17.2232 16.3448 17.3115 15.2387L17.4175 13.9091C17.4301 13.7511 17.4923 13.6011 17.5951 13.4804L18.4603 12.4653C19.18 11.6208 19.18 10.3787 18.4603 9.5343L17.5951 8.51904C17.4923 8.39841 17.4302 8.24843 17.4176 8.09046L17.3115 6.76081C17.2232 5.65483 16.3449 4.77654 15.239 4.68829L13.9093 4.58218C13.7513 4.56957 13.6013 4.50746 13.4808 4.40467L12.4655 3.5395ZM13.13 7.80456L14.1951 8.86966L8.86962 14.1952L7.80453 13.13L13.13 7.80456ZM9.66846 9.66844C9.22726 10.1096 8.51198 10.1096 8.0708 9.66844C7.62962 9.22732 7.62962 8.51201 8.0708 8.07083C8.51198 7.62965 9.22726 7.62965 9.66846 8.07083C10.1096 8.51201 10.1096 9.22732 9.66846 9.66844ZM12.3312 13.9288C11.89 13.4877 11.89 12.7724 12.3312 12.3312C12.7724 11.89 13.4876 11.89 13.9288 12.3312C14.37 12.7724 14.37 13.4877 13.9288 13.9288C13.4876 14.37 12.7724 14.37 12.3312 13.9288Z" fill="white"/>
</g>
</svg>
