<svg width="55" height="36" viewBox="0 0 55 36" fill="none" xmlns="http://www.w3.org/2000/svg">
<path d="M24.9326 12.1931C25.0303 12.2027 25.1246 12.2185 25.2113 12.268C25.335 12.3384 25.4448 12.4816 25.4789 12.6215C25.5023 12.7175 25.4924 12.8145 25.4345 12.896C25.355 13.0079 25.2542 13.0227 25.1297 13.0411C25.02 13.0032 24.9006 12.9676 24.7979 12.9134C24.6797 12.851 24.5497 12.7172 24.5151 12.5845C24.4991 12.5232 24.5042 12.462 24.5369 12.4072C24.6197 12.2679 24.7865 12.2225 24.9326 12.1931Z" fill="#757474"/>
<path d="M16.3949 8.00907C16.497 8.00193 16.5992 7.9967 16.7015 7.99341C16.8318 7.99031 17.0363 7.98979 17.1303 8.09978C17.1718 8.14834 17.1803 8.19638 17.1778 8.25876C17.1728 8.38289 17.0784 8.49757 16.9911 8.57703C16.6322 8.90392 16.1148 9.11214 15.6376 9.08934C15.4235 9.05759 15.1429 8.97287 14.9618 8.85258C14.8585 8.78394 14.775 8.6947 14.7557 8.56557C14.7543 8.55629 14.7535 8.54695 14.7531 8.53756C14.7528 8.52817 14.7529 8.5188 14.7536 8.50945C14.7542 8.50009 14.7554 8.49079 14.7571 8.48154C14.7588 8.47232 14.761 8.46322 14.7637 8.45421C14.7663 8.44524 14.7695 8.43645 14.7732 8.42783C14.7768 8.41918 14.7809 8.41077 14.7854 8.4026C14.79 8.39444 14.795 8.38656 14.8004 8.37895C14.8058 8.37131 14.8117 8.36403 14.8179 8.35709C15.0914 8.04996 16.0068 8.04061 16.3949 8.00907Z" fill="#757474"/>
<path d="M10.111 11.0333C10.2407 11.0203 10.3664 11.0184 10.4937 11.0514C10.726 11.1115 11.3 11.3041 11.4158 11.5211C11.4531 11.5912 11.4539 11.6644 11.4313 11.7396C11.3181 12.1165 10.3358 12.5887 9.98088 12.7977C9.91746 12.8349 9.85285 12.8726 9.78524 12.9014C9.56881 12.9933 9.32472 13.0103 9.10586 12.9165C9.00772 12.8745 8.92083 12.8038 8.88306 12.6997C8.8357 12.5691 8.87233 12.4262 8.92979 12.3058C9.10632 11.9358 9.72917 11.1687 10.111 11.0333Z" fill="#757474"/>
<path d="M30.9781 2.79163C31.407 3.72333 31.7638 4.7039 32.1594 5.6516C32.0662 5.69653 31.9879 5.65612 31.8928 5.62201C31.4561 5.46524 30.7423 5.20651 30.2934 5.43192C30.0996 5.5292 29.9198 5.76927 29.7958 5.94738C29.7647 5.9921 29.617 6.26586 29.5888 6.27526C29.5746 6.27994 29.5595 6.26875 29.5449 6.26549C29.6773 5.81846 29.896 5.37595 30.0734 4.94501C30.3693 4.22621 30.6502 3.49619 30.9781 2.79163Z" fill="#757474"/>
<path d="M12.847 8.98425C13.0218 8.97184 13.1886 8.96307 13.3599 9.00805C13.6398 9.08152 14.4619 9.37814 14.5898 9.62168C14.6348 9.70756 14.6379 9.80194 14.603 9.89202C14.4833 10.2005 13.3472 10.8021 13.0185 10.9514C13.0063 10.9554 12.9941 10.9595 12.9817 10.9629C12.532 11.0885 11.9036 10.881 11.5068 10.65C11.3747 10.5732 11.24 10.46 11.2043 10.3022C11.1756 10.1758 11.2191 10.0485 11.2859 9.94242C11.4449 9.6899 12.536 9.05751 12.847 8.98425Z" fill="#757474"/>
<path d="M22.5783 9.90686C22.6602 9.90518 22.7502 9.91222 22.8302 9.92909C23.223 10.0119 23.9826 10.6573 24.1981 11.0102C24.2784 11.1416 24.3091 11.3071 24.2719 11.458C24.2238 11.6528 24.0695 11.789 23.9056 11.8881C23.5219 12.12 23.1412 12.1717 22.7124 12.0578C22.2833 11.8766 21.4736 11.604 21.1162 11.3943C21.0016 11.3271 20.8827 11.2255 20.8538 11.088C20.8348 10.9973 20.861 10.9118 20.9133 10.8378C21.0833 10.5972 22.2577 9.96651 22.5783 9.90686Z" fill="#757474"/>
<path d="M16.2771 13.5935C16.4453 13.5722 16.601 13.5685 16.7679 13.6054C17.1025 13.6792 17.4025 13.8482 17.7189 13.9745C17.9706 14.075 18.2339 14.1537 18.4789 14.2698C18.5959 14.3253 18.7297 14.4021 18.7687 14.5366C18.7946 14.626 18.7685 14.7277 18.721 14.8049C18.5482 15.086 17.3492 15.7363 17.0002 15.8266C16.8806 15.8403 16.7601 15.8528 16.6403 15.8347C16.1767 15.7646 15.2815 15.395 14.8556 15.1848C14.7183 15.117 14.5649 15.013 14.518 14.8564C14.4962 14.7838 14.5038 14.7124 14.5406 14.6462C14.6583 14.4342 15.9884 13.6875 16.2771 13.5935Z" fill="#757474"/>
<path d="M15.9642 10.1775C16.0868 10.1719 16.2064 10.1882 16.3243 10.2227C16.601 10.3035 16.863 10.4473 17.1302 10.556C17.4224 10.6749 17.7425 10.763 18.0193 10.9155C18.1242 10.9734 18.2611 11.0647 18.2909 11.1898C18.3105 11.2722 18.281 11.3549 18.2376 11.4241C18.0426 11.735 16.807 12.3997 16.4353 12.4882C16.2954 12.4927 16.1654 12.4896 16.0284 12.457C15.7218 12.3842 14.5963 11.9491 14.319 11.7855C14.2048 11.7182 14.0785 11.6164 14.0516 11.4777C14.0341 11.3876 14.0674 11.3014 14.1197 11.2298C14.2466 11.0555 15.4448 10.3457 15.6939 10.2401C15.779 10.2039 15.8732 10.1903 15.9642 10.1775Z" fill="#757474"/>
<path d="M19.4724 11.7207C19.6014 11.7098 19.7395 11.7021 19.8673 11.7261C20.2747 11.8026 21.2764 12.2116 21.6535 12.4155C21.7857 12.487 21.926 12.5968 21.9633 12.7516C21.9824 12.8306 21.9719 12.9212 21.9261 12.9895C21.8215 13.1456 20.4423 13.8994 20.2105 13.9595C20.0887 13.9771 19.9553 13.9905 19.8334 13.9705C19.3688 13.8947 18.4582 13.5004 18.0186 13.2935C17.905 13.24 17.7524 13.1652 17.7122 13.035C17.6818 12.9364 17.6944 12.8061 17.7437 12.7156C17.8247 12.5673 18.9767 11.9148 19.1836 11.8169C19.2761 11.7731 19.3733 11.7449 19.4724 11.7207Z" fill="#757474"/>
<path d="M12.7409 12.107C12.8518 12.1001 12.9607 12.0965 13.0701 12.1195C13.4716 12.2041 14.4487 12.589 14.8097 12.7914C14.9402 12.8646 15.0866 12.9735 15.1224 13.1298C15.1392 13.2034 15.1233 13.2714 15.0795 13.3317C14.9507 13.5091 13.7904 14.1855 13.5382 14.3007C13.4471 14.3423 13.3493 14.364 13.2516 14.3828C13.1197 14.3882 12.9863 14.3923 12.8563 14.3654C12.4828 14.2878 11.41 13.8715 11.0829 13.6926C10.9867 13.6399 10.9017 13.5839 10.8727 13.4696C10.8501 13.3805 10.8499 13.2226 10.9046 13.1425C10.9927 13.0132 12.2198 12.301 12.4247 12.2047C12.5259 12.1571 12.6324 12.1306 12.7409 12.107Z" fill="#757474"/>
<path d="M23.1335 13.2349C23.342 13.2197 23.5222 13.2146 23.7256 13.277C23.9036 13.3316 24.0724 13.4166 24.2449 13.4862C24.5411 13.6057 25.0341 13.7105 25.186 14.0246C25.275 14.2087 25.2286 14.438 25.1682 14.6226C25.0491 14.9857 24.8689 15.4267 24.5124 15.6032C24.2333 15.7413 23.9751 15.6906 23.6932 15.595C23.0722 15.3401 22.4407 15.1055 21.8234 14.8427C21.67 14.7775 21.4659 14.6821 21.4057 14.5121C21.3736 14.4215 21.3799 14.3349 21.4273 14.2516C21.5536 14.0297 22.8526 13.3097 23.1335 13.2349Z" fill="#757474"/>
<path d="M19.218 8.2749C19.7096 8.25703 20.8094 8.63475 21.2229 8.88927C21.3534 8.96968 21.4915 9.08819 21.5227 9.24817C21.5451 9.36337 21.5058 9.47184 21.439 9.56391C21.3261 9.71969 20.2167 10.3655 19.978 10.4722C19.8303 10.5381 19.6871 10.5752 19.5281 10.5998C19.0301 10.5937 17.9274 10.1305 17.468 9.88833C17.3638 9.83342 17.2615 9.77655 17.2307 9.65226C17.2055 9.55036 17.2056 9.41245 17.2663 9.32426C17.3516 9.20034 18.5778 8.47077 18.7916 8.37786C18.9301 8.31758 19.0693 8.29514 19.218 8.2749Z" fill="#757474"/>
<path d="M9.50553 14.0409C9.61299 14.0305 9.72113 14.0286 9.82833 14.0437C10.0992 14.0819 11.3998 14.5802 11.6615 14.7195C11.7355 14.7589 11.8102 14.8085 11.8573 14.8801C11.9025 14.9488 11.9098 15.0334 11.8885 15.112C11.8588 15.2213 11.7843 15.3124 11.7013 15.3854C11.5242 15.5413 11.2817 15.6556 11.0788 15.7751L9.93512 16.4475C9.87579 16.4714 9.81569 16.4953 9.75413 16.5126C9.18854 16.6717 8.60802 16.2845 8.13299 16.0132C7.92921 15.8968 7.71501 15.7358 7.65253 15.4941C7.61356 15.3435 7.64196 15.1877 7.7232 15.0567C7.90688 14.7604 9.16128 14.1186 9.50553 14.0409Z" fill="#757474"/>
<path d="M20.0486 15.0767C20.1688 15.0701 20.2857 15.066 20.404 15.0926C20.8816 15.1999 22.1093 15.7138 22.5848 15.9427C22.6924 15.9945 22.8517 16.0733 22.8925 16.1952C22.9246 16.2909 22.9088 16.3769 22.8599 16.464C22.7014 16.7462 21.4919 17.3915 21.1489 17.4755C21.009 17.4897 20.8683 17.492 20.7299 17.4633C20.3474 17.3839 18.7135 16.7588 18.4215 16.5808C18.3313 16.5258 18.243 16.4683 18.2188 16.3577C18.1969 16.2573 18.2066 16.1625 18.2638 16.0753C18.3876 15.8867 19.4684 15.2937 19.717 15.1801C19.8245 15.1309 19.9334 15.1007 20.0486 15.0767Z" fill="#757474"/>
<path d="M13.282 15.4672C13.7323 15.4532 14.2052 15.733 14.6188 15.8929C14.8177 15.9699 15.0235 16.0283 15.2201 16.1118C15.3916 16.1845 15.5183 16.2693 15.5914 16.4467C15.598 16.5389 15.5709 16.6071 15.5175 16.6812C15.3288 16.9432 13.8742 17.7562 13.5247 17.9041C13.4299 17.9442 13.3287 17.9633 13.2277 17.9797C12.6943 17.9895 11.8153 17.5819 11.2869 17.3775C11.1771 17.3351 10.9527 17.246 10.911 17.1241C10.8801 17.0335 10.8881 16.8257 10.9429 16.7463C11.0596 16.5771 12.6943 15.6494 12.9531 15.5375C13.0565 15.4928 13.1712 15.4806 13.282 15.4672Z" fill="#757474"/>
<path d="M16.8154 16.9507C16.9556 16.9343 17.0858 16.9322 17.225 16.9605C17.6754 17.052 18.1131 17.265 18.5393 17.4342C18.8282 17.549 19.1264 17.6476 19.4095 17.7761C19.531 17.8313 19.6554 17.8917 19.7005 18.0283C19.7319 18.1233 19.7326 18.248 19.6806 18.3358C19.5761 18.5123 17.7578 19.5243 17.4985 19.5855C17.2711 19.5936 17.0865 19.5871 16.8671 19.5226C16.4512 19.4003 15.1526 18.9215 14.8044 18.7153C14.6996 18.6532 14.6197 18.5859 14.5606 18.4765C14.5461 18.3775 14.567 18.3061 14.6198 18.2217C14.6773 18.1298 14.7721 18.0553 14.8594 17.9947C15.1185 17.8145 15.4107 17.684 15.6842 17.528C15.9457 17.3789 16.1928 17.1983 16.4639 17.0679C16.5774 17.0134 16.6934 16.9793 16.8154 16.9507Z" fill="#757474"/>
<path d="M40.1173 12.8868C40.1646 12.8832 40.212 12.8806 40.2595 12.8787C40.6758 12.8634 41.0969 12.8748 41.5137 12.8745C42.2818 12.8737 43.4452 12.7699 44.0435 13.3506C44.3968 13.6935 44.4403 14.2152 44.4463 14.6836C44.455 15.365 44.5879 16.6106 44.0941 17.1127C43.6157 17.5989 42.7316 17.5391 42.1044 17.534C42.1253 17.568 42.143 17.6045 42.1507 17.6441C42.1827 17.8078 42.1945 18.2143 42.1069 18.3567C42.1258 18.385 42.1389 18.4126 42.1472 18.4461C42.2001 18.6608 42.18 20.2328 42.1565 20.5292C42.1525 20.5797 42.137 20.6201 42.1115 20.6635C41.4338 20.6582 40.7562 20.6571 40.0786 20.6602C40.0812 20.6553 40.0835 20.6503 40.0862 20.6454C40.1224 20.5784 40.1298 20.5304 40.1323 20.4546C40.1511 19.8879 40.1356 19.3153 40.1357 18.7481V15.4624L40.1355 13.7757C40.1354 13.4868 40.1617 13.1714 40.1173 12.8868ZM42.1165 14.2244C42.1848 14.3694 42.203 15.9894 42.1383 16.1561C42.1293 16.179 42.1242 16.1849 42.1105 16.2074C42.2315 16.1951 42.4956 16.1948 42.5779 16.0991C42.5987 16.0749 42.5952 16.0786 42.6056 16.0533C42.7172 15.9648 42.732 15.8993 42.7488 15.7583C42.7833 15.4676 42.8279 14.5642 42.6589 14.3423C42.5819 14.2412 42.3642 14.2298 42.248 14.2246C42.2043 14.2227 42.1601 14.2209 42.1165 14.2244Z" fill="#F7A100"/>
<path d="M44.9877 12.8869C45.3076 12.8546 45.6446 12.876 45.9673 12.8756C46.7411 12.8749 47.6298 12.8159 48.3858 12.9982C48.5739 13.0436 48.7371 13.1178 48.8863 13.2439C49.2875 13.5832 49.4262 14.0863 49.4691 14.5948C49.5096 15.0757 49.5404 15.8839 49.2112 16.2679C48.9919 16.5238 48.6543 16.5744 48.3394 16.6008C48.5507 16.6447 48.7643 16.6974 48.9525 16.8084C49.2105 16.9607 49.3331 17.1447 49.4065 17.4324C49.4984 17.7927 49.5466 20.4702 49.4322 20.665C48.8107 20.6559 48.1892 20.6556 47.5677 20.664C47.5835 20.6374 47.5968 20.6146 47.6041 20.5841C47.6376 20.4426 47.6391 20.1751 47.5631 20.0515C47.5717 20.0386 47.575 20.0345 47.5826 20.0192C47.689 19.8059 47.6141 17.583 47.5247 17.3104C47.4049 17.1591 47.1507 17.1629 46.9738 17.142C46.9855 17.1602 46.9963 17.1784 47.0045 17.1986C47.0505 17.3117 47.0359 20.6131 47.0128 20.6646C46.3252 20.65 45.6361 20.6597 44.9482 20.6603C44.9507 20.6554 44.9531 20.6504 44.9557 20.6455C44.9904 20.5801 44.9982 20.5318 45.0005 20.4583C45.0181 19.9023 45.0033 19.3406 45.0034 18.7841L45.0033 15.5355L45.0032 13.8115C45.0032 13.5109 45.0283 13.1833 44.9877 12.8869ZM46.9861 14.2246C47.0489 14.3597 47.059 15.7395 47.0141 15.8747C47.0051 15.9018 46.9901 15.9245 46.9749 15.9484C47.1344 15.931 47.3649 15.9339 47.474 15.8002C47.6252 15.6562 47.6176 15.3413 47.6243 15.1368C47.6329 14.8778 47.6516 14.561 47.4707 14.3533C47.3675 14.2348 47.2218 14.2218 47.0744 14.2186C47.0436 14.2179 47.0166 14.2207 46.9861 14.2246Z" fill="#F7A100"/>
<path d="M52.0411 12.7382C52.7074 12.6728 53.4763 12.7356 54.0281 13.1556C54.4447 13.4727 54.6851 13.9515 54.754 14.4689C54.854 15.2164 54.8649 18.5022 54.7328 19.2005C54.6747 19.5057 54.5504 19.8071 54.3623 20.0536C53.9872 20.5443 53.4032 20.7325 52.8214 20.8094C52.2089 20.8587 51.5316 20.7753 51.0147 20.415C50.5827 20.1138 50.3426 19.6974 50.2491 19.1787C50.1084 18.3976 50.1128 15.0454 50.26 14.2659C50.3084 14.0091 50.42 13.7565 50.5676 13.5428C50.9249 13.0255 51.4561 12.8427 52.0411 12.7382ZM52.4198 14.0462C52.3442 14.0846 52.3017 14.1173 52.2514 14.1871C52.1312 14.63 52.2022 16.5497 52.2032 17.1089C52.2043 17.7837 52.1613 18.4925 52.2084 19.1642C52.2136 19.2386 52.2276 19.3266 52.267 19.3906C52.3069 19.4571 52.3618 19.4792 52.4359 19.4909C52.4618 19.495 52.482 19.4941 52.5074 19.4879C52.5934 19.468 52.669 19.4429 52.7136 19.3592C52.826 19.1491 52.8566 14.5017 52.7364 14.1868C52.7152 14.1304 52.6872 14.0905 52.6302 14.0659C52.569 14.0399 52.4851 14.0421 52.4198 14.0462Z" fill="#F7A100"/>
<path d="M24.3067 16.4679C24.3417 16.4715 24.3392 16.4761 24.3639 16.499C24.3115 16.8344 24.0783 17.2301 23.9467 17.5464L22.9671 19.9183C24.2612 19.8836 25.5647 19.9145 26.8597 19.9102C26.755 20.5203 26.5944 21.1372 26.375 21.7147C25.3556 24.3971 23.4683 26.3124 20.8895 27.4683C20.7625 27.5211 20.6346 27.5713 20.5056 27.6189C20.3766 27.6665 20.2467 27.7114 20.1159 27.7536C19.9852 27.7958 19.8536 27.8353 19.7213 27.8721C19.5889 27.9089 19.4559 27.9429 19.3221 27.9742C19.1884 28.0055 19.0541 28.034 18.9193 28.0597C18.7844 28.0855 18.649 28.1085 18.5132 28.1286C18.3775 28.1488 18.2413 28.1662 18.1049 28.1807C17.9684 28.1953 17.8317 28.207 17.6947 28.2159L17.6943 20.2361C18.4594 19.7467 19.292 19.3229 20.0815 18.8726C21.4889 18.0699 22.8902 17.2541 24.3067 16.4679Z" fill="#757474"/>
<path d="M29.5452 6.26554C29.5598 6.2688 29.5748 6.27999 29.589 6.27532C29.6173 6.26591 29.7649 5.99215 29.7961 5.94743C29.9201 5.76932 30.0998 5.52925 30.2937 5.43197C30.7426 5.20656 31.4564 5.46529 31.8931 5.62206C31.9881 5.65617 32.0664 5.69658 32.1597 5.65165C32.5031 6.43077 32.8123 7.23187 33.1364 8.01998L34.9177 12.3365L36.5145 16.2128C36.8788 17.0896 37.2621 17.9631 37.6002 18.8504C37.6277 18.9228 37.6477 18.9751 37.6398 19.054L35.2025 19.0549C34.8078 19.0549 34.3732 19.09 33.9833 19.0402C33.9667 19.0391 33.9364 19.0182 33.9214 19.0101C33.3733 18.9438 32.6058 18.9969 32.0402 18.997L28.0127 19.0004L27.9484 19.0402C27.5569 19.0963 27.111 19.0563 26.7143 19.0562L24.2559 19.0546C24.6499 18.0119 25.1093 16.9871 25.535 15.9569L27.97 10.0437L28.9898 7.57836C29.1583 7.16449 29.3077 6.63905 29.5452 6.26554ZM30.9743 11.5745C30.6595 12.4368 30.2991 13.2865 29.9584 14.1388L28.0127 19.0004L32.0402 18.997C32.6058 18.9969 33.3733 18.9438 33.9214 19.0101C33.7575 18.4931 33.519 18.0009 33.3202 17.4975L31.7838 13.644C31.5107 12.9602 31.1997 12.2753 30.9743 11.5745Z" fill="#757474"/>
<path d="M28.0124 19.0004L32.0399 18.997C32.6055 18.9969 33.373 18.9438 33.9211 19.0101C33.9361 19.0182 33.9665 19.0391 33.983 19.0402C33.9059 19.325 33.9264 19.7532 33.897 20.0591C33.8519 20.5288 33.7706 21.0085 33.6802 21.4715C33.6452 21.6527 33.6073 21.8333 33.5666 22.0132C33.5258 22.1932 33.4822 22.3724 33.4357 22.5509C33.3893 22.7294 33.34 22.9072 33.2878 23.0841C33.2356 23.261 33.1807 23.437 33.1229 23.6121C33.0652 23.7871 33.0046 23.9612 32.9413 24.1344C32.878 24.3074 32.8119 24.4794 32.7431 24.6504C32.6743 24.8213 32.6028 24.9911 32.5285 25.1596C32.4543 25.3282 32.3774 25.4956 32.2978 25.6616C32.2182 25.8276 32.136 25.9923 32.0512 26.1557C31.9663 26.3191 31.8789 26.481 31.7889 26.6414C31.6989 26.8019 31.6064 26.9609 31.5113 27.1183C31.4162 27.2757 31.3187 27.4316 31.2186 27.5858C31.1186 27.74 31.0161 27.8926 30.9111 28.0434C30.8062 28.1943 30.6989 28.3433 30.5893 28.4907C30.4796 28.638 30.3675 28.7835 30.2532 28.9271C30.1389 29.0708 30.0223 29.2125 29.9035 29.3524C29.8249 29.445 29.7455 29.5367 29.665 29.6276C29.5845 29.7185 29.5031 29.8085 29.4208 29.8977C29.3384 29.9868 29.2551 30.075 29.171 30.1623C29.0868 30.2496 29.0016 30.336 28.9156 30.4215C28.8296 30.507 28.7427 30.5916 28.6549 30.6752C28.567 30.7588 28.4784 30.8414 28.3888 30.9231C28.2993 31.0048 28.2089 31.0855 28.1177 31.1652C28.0264 31.2449 27.9344 31.3236 27.8415 31.4013C27.7486 31.4791 27.6549 31.5558 27.5604 31.6314C27.4659 31.7072 27.3706 31.7818 27.2745 31.8554C27.1784 31.9291 27.0816 32.0017 26.984 32.0732C26.8864 32.1447 26.788 32.2152 26.6889 32.2846C26.5898 32.354 26.49 32.4223 26.3895 32.4896C26.2889 32.5568 26.1877 32.6229 26.0858 32.688C25.9839 32.753 25.8813 32.817 25.778 32.8798C25.6748 32.9426 25.5709 33.0043 25.4663 33.0649C25.3617 33.1255 25.2565 33.1849 25.1507 33.2431C25.0449 33.3014 24.9385 33.3586 24.8315 33.4146C24.7245 33.4706 24.6169 33.5254 24.5087 33.579C24.4005 33.6327 24.2918 33.6852 24.1825 33.7365C24.0733 33.7878 23.9635 33.8379 23.8531 33.8868C23.7428 33.9357 23.632 33.9835 23.5206 34.03C23.4093 34.0765 23.2975 34.1218 23.1852 34.1659C23.0729 34.21 22.9602 34.2529 22.847 34.2946C22.7338 34.3362 22.6202 34.3766 22.5061 34.4158C22.3921 34.455 22.2777 34.493 22.1628 34.5297C22.048 34.5664 21.9328 34.6019 21.8172 34.6361C21.7016 34.6703 21.5857 34.7033 21.4694 34.735C21.3531 34.7667 21.2365 34.7971 21.1196 34.8263C21.0027 34.8555 20.8855 34.8834 20.768 34.91C20.6505 34.9367 20.5327 34.962 20.4146 34.9861C20.2966 35.0102 20.1783 35.033 20.0598 35.0546C19.2781 35.1971 18.4856 35.2558 17.6943 35.3133L17.6954 29.2137C18.1359 29.188 18.58 29.1461 19.0145 29.0662C19.1035 29.0497 19.1922 29.0321 19.2808 29.0133C19.3693 28.9946 19.4577 28.9748 19.5457 28.9538C19.6338 28.9329 19.7216 28.9108 19.8091 28.8877C19.8966 28.8645 19.9839 28.8403 20.0708 28.815C20.1578 28.7897 20.2444 28.7632 20.3307 28.7357C20.417 28.7082 20.503 28.6797 20.5886 28.65C20.6742 28.6204 20.7594 28.5897 20.8443 28.5579C20.9291 28.5261 21.0136 28.4933 21.0977 28.4594C21.1817 28.4255 21.2654 28.3905 21.3485 28.3546C21.4317 28.3186 21.5145 28.2815 21.5968 28.2435C21.6791 28.2054 21.761 28.1663 21.8424 28.1262C21.9237 28.0861 22.0046 28.045 22.085 28.0029C22.1653 27.9607 22.2451 27.9176 22.3244 27.8735C22.4037 27.8293 22.4825 27.7842 22.5608 27.7381C22.639 27.692 22.7166 27.6449 22.7937 27.5969C22.8707 27.5488 22.9472 27.4998 23.0231 27.4499C23.099 27.3999 23.1742 27.349 23.2489 27.2972C23.3235 27.2453 23.3975 27.1925 23.4709 27.1389C23.5442 27.0851 23.6169 27.0305 23.6889 26.975C23.761 26.9195 23.8323 26.8631 23.903 26.8058C23.9737 26.7485 24.0436 26.6903 24.1129 26.6312C24.1821 26.5722 24.2506 26.5123 24.3184 26.4515C24.3862 26.3907 24.4532 26.3291 24.5195 26.2667C24.5858 26.2042 24.6513 26.141 24.7161 26.0769C24.7809 26.0128 24.8448 25.9479 24.908 25.8822C24.9712 25.8165 25.0335 25.75 25.0951 25.6828C25.1567 25.6155 25.2174 25.5475 25.2773 25.4788C25.3372 25.41 25.3962 25.3405 25.4544 25.2702C25.5127 25.2 25.57 25.129 25.6265 25.0573C25.683 24.9856 25.7386 24.9132 25.7934 24.8402C25.8481 24.7671 25.9019 24.6933 25.9549 24.6189C26.0078 24.5445 26.0598 24.4694 26.1109 24.3937C27.0146 23.0692 27.6021 21.5103 27.866 19.9255C27.9088 19.6681 27.9944 19.2973 27.9481 19.0402L28.0124 19.0004Z" fill="#757474"/>
<path d="M16.2146 1.0529C16.2639 1.04733 16.3149 1.048 16.3646 1.04661C21.0704 0.915805 25.3686 2.51271 28.7995 5.80777C28.4771 6.63357 28.1189 7.45074 27.7783 8.26944L26.2059 12.0855C25.8427 11.5825 25.4795 11.086 25.0598 10.6288C23.7255 9.17522 21.9196 8.02043 20.0167 7.51749C17.1357 6.75607 14.1957 7.0816 11.6165 8.61688C11.5506 8.65241 11.4857 8.6897 11.4218 8.72877C11.3461 8.77554 11.271 8.82323 11.1965 8.87182C11.1219 8.92045 11.048 8.96999 10.9746 9.02045C10.9013 9.0709 10.8285 9.12226 10.7564 9.17454C10.6843 9.22678 10.6128 9.27991 10.5419 9.33393C10.4711 9.38796 10.401 9.44286 10.3314 9.49864C10.2619 9.55442 10.1931 9.61104 10.125 9.6685C10.0568 9.72596 9.98934 9.78426 9.92257 9.8434C9.85583 9.90254 9.7898 9.96251 9.72448 10.0233C9.6592 10.0841 9.59464 10.1457 9.53081 10.208C9.46697 10.2704 9.40391 10.3336 9.34163 10.3975C9.27932 10.4615 9.21778 10.5262 9.15702 10.5916C9.0963 10.6571 9.03635 10.7233 8.97718 10.7903C8.91804 10.8572 8.8597 10.9249 8.80215 10.9933C8.74464 11.0617 8.68796 11.1308 8.6321 11.2006C8.57625 11.2704 8.52122 11.3409 8.46702 11.4121C8.41286 11.4832 8.35956 11.555 8.30713 11.6275C8.25469 11.7 8.20314 11.7731 8.15246 11.8469C8.10179 11.9206 8.05201 11.995 8.00314 12.07C7.95423 12.145 7.90625 12.2206 7.8592 12.2968C7.81212 12.373 7.76597 12.4497 7.72075 12.5271C7.67554 12.6044 7.63125 12.6823 7.5879 12.7607C7.54455 12.8392 7.50215 12.9181 7.4607 12.9976C7.41925 13.077 7.37877 13.157 7.33925 13.2375C7.29974 13.318 7.26119 13.3989 7.2236 13.4804C7.18606 13.5618 7.14948 13.6437 7.11386 13.726C7.07825 13.8084 7.04364 13.8912 7.01003 13.9744C6.97642 14.0576 6.94381 14.1412 6.9122 14.2252C6.88063 14.3092 6.85006 14.3936 6.82049 14.4784C6.79093 14.5631 6.76238 14.6482 6.73485 14.7337C6.70732 14.8192 6.68082 14.905 6.65536 14.9911C6.62991 15.0772 6.6055 15.1637 6.58215 15.2504C6.55877 15.3371 6.53644 15.4242 6.51516 15.5114C5.82505 15.274 5.14726 14.9836 4.46663 14.7186L0.879883 13.3258C1.50042 11.0296 2.74375 8.81895 4.26533 7.01674C4.33791 6.93094 4.41131 6.84589 4.48554 6.76159C4.55977 6.67726 4.63481 6.59368 4.71067 6.51085C4.78652 6.42803 4.86317 6.34597 4.94062 6.26469C5.01807 6.1834 5.09631 6.10289 5.17532 6.02314C5.25435 5.94344 5.33412 5.86452 5.41464 5.78638C5.49519 5.70825 5.57651 5.63093 5.65858 5.55441C5.74062 5.47792 5.8234 5.40226 5.90692 5.32742C5.99044 5.25257 6.07469 5.17856 6.15967 5.1054C6.24461 5.03225 6.33025 4.95994 6.41661 4.8885C6.503 4.81705 6.59006 4.74648 6.6778 4.67678C6.76554 4.60707 6.85393 4.53826 6.94298 4.47032C7.03207 4.40239 7.12179 4.33535 7.21215 4.26921C7.30255 4.20307 7.39357 4.13785 7.48521 4.07353C7.57685 4.00921 7.66911 3.94582 7.762 3.88335C7.85488 3.82088 7.94835 3.75934 8.04241 3.69874C8.13647 3.63814 8.23112 3.57848 8.32635 3.51978C8.42158 3.46107 8.51739 3.40333 8.61376 3.34654C8.7101 3.28975 8.80699 3.23393 8.90443 3.17908C9.00188 3.12423 9.09984 3.07036 9.19832 3.01746C9.2968 2.96457 9.3958 2.91267 9.49531 2.86176C9.5948 2.81085 9.69476 2.76094 9.79521 2.71204C9.89569 2.66313 9.99663 2.61523 10.098 2.56834C10.1994 2.52145 10.3013 2.47558 10.4036 2.43073C10.5058 2.38587 10.6085 2.34205 10.7117 2.29926C10.8148 2.25646 10.9184 2.2147 11.0223 2.17398C11.1262 2.13325 11.2306 2.09357 11.3353 2.05493C11.44 2.0163 11.5451 1.97871 11.6506 1.94218C11.7561 1.90565 11.8618 1.87017 11.968 1.83576C12.0741 1.80134 12.1806 1.76799 12.2874 1.7357C12.3942 1.70342 12.5012 1.6722 12.6086 1.64205C12.716 1.61191 12.8237 1.58285 12.9317 1.55486C13.0396 1.52687 13.1479 1.49996 13.2564 1.47414C14.228 1.2477 15.2219 1.1298 16.2146 1.0529Z" fill="#757474"/>
</svg>
