<svg width="22" height="22" viewBox="0 0 22 22" fill="none" xmlns="http://www.w3.org/2000/svg">
<g opacity="0.5">
<path d="M9.82007 19C9.63339 19 9.46671 18.94 9.32007 18.82C9.17339 18.7 9.08671 18.5467 9.06007 18.36L8.76007 16.48C8.50671 16.3867 8.24007 16.26 7.96007 16.1C7.68007 15.94 7.43339 15.7733 7.22007 15.6L5.50007 16.4C5.3134 16.48 5.12673 16.49 4.94007 16.43C4.7534 16.37 4.60673 16.2533 4.50006 16.08L3.34006 14C3.2334 13.8267 3.2034 13.6467 3.25006 13.46C3.29673 13.2733 3.40006 13.12 3.56006 13L5.16006 11.82C5.1334 11.7 5.11673 11.5633 5.11006 11.41C5.1034 11.2567 5.10007 11.12 5.10007 11C5.10007 10.88 5.1034 10.7433 5.11006 10.59C5.11673 10.4367 5.1334 10.3 5.16006 10.18L3.56006 9C3.40006 8.88 3.29673 8.72668 3.25006 8.54C3.2034 8.35332 3.2334 8.17332 3.34006 8L4.50006 5.92C4.60673 5.74668 4.7534 5.63 4.94007 5.57C5.12673 5.51 5.3134 5.52 5.50007 5.6L7.22007 6.4C7.43339 6.22668 7.68007 6.06 7.96007 5.9C8.24007 5.74 8.50671 5.62 8.76007 5.54L9.06007 3.64C9.08671 3.45333 9.17339 3.3 9.32007 3.18C9.46671 3.06 9.63339 3 9.82007 3H12.1801C12.3667 3 12.5334 3.06 12.6801 3.18C12.8267 3.3 12.9134 3.45333 12.9401 3.64L13.2401 5.52C13.4934 5.61332 13.7634 5.73668 14.0501 5.89C14.3367 6.04332 14.5801 6.21332 14.7801 6.4L16.5001 5.6C16.6867 5.52 16.8701 5.51 17.0501 5.57C17.2301 5.63 17.3734 5.74668 17.4801 5.92L18.6601 8C18.7667 8.17332 18.7967 8.35668 18.7501 8.55C18.7034 8.74332 18.6001 8.89332 18.4401 9L16.8401 10.14C16.8667 10.2733 16.8834 10.4167 16.8901 10.57C16.8967 10.7233 16.9001 10.8667 16.9001 11C16.9001 11.1333 16.8967 11.2733 16.8901 11.42C16.8834 11.5667 16.8667 11.7067 16.8401 11.84L18.4401 13C18.6001 13.1067 18.7034 13.2567 18.7501 13.45C18.7967 13.6433 18.7667 13.8267 18.6601 14L17.5001 16.08C17.3934 16.2533 17.2467 16.37 17.0601 16.43C16.8734 16.49 16.6867 16.48 16.5001 16.4L14.7801 15.6C14.5667 15.7733 14.3234 15.9433 14.0501 16.11C13.7767 16.2767 13.5067 16.4 13.2401 16.48L12.9401 18.36C12.9134 18.5467 12.8267 18.7 12.6801 18.82C12.5334 18.94 12.3667 19 12.1801 19H9.82007ZM11.0001 13.6C11.7201 13.6 12.3334 13.3467 12.8401 12.84C13.3467 12.3333 13.6001 11.72 13.6001 11C13.6001 10.28 13.3467 9.66668 12.8401 9.16C12.3334 8.65332 11.7201 8.4 11.0001 8.4C10.2801 8.4 9.66671 8.65332 9.16007 9.16C8.65339 9.66668 8.40007 10.28 8.40007 11C8.40007 11.72 8.65339 12.3333 9.16007 12.84C9.66671 13.3467 10.2801 13.6 11.0001 13.6Z" fill="white"/>
</g>
</svg>
