<svg width="22" height="22" viewBox="0 0 22 22" fill="none" xmlns="http://www.w3.org/2000/svg">
<g opacity="0.5" clip-path="url(#clip0_2_2984)">
<mask id="mask0_2_2984" style="mask-type:luminance" maskUnits="userSpaceOnUse" x="0" y="0" width="22" height="22">
<path d="M22 0H0V22H22V0Z" fill="white"/>
</mask>
<g mask="url(#mask0_2_2984)">
<path d="M4.01067 14.2554H6.70553C6.89149 14.2554 7.1492 14.3586 7.28053 14.4855L10.3699 17.4718C10.7645 17.8528 11.0846 17.7246 11.0846 17.1856V4.81349C11.0846 4.27454 10.7645 4.14627 10.3699 4.52761L7.28053 7.51358C7.1492 7.64078 6.89149 7.74372 6.70553 7.74372H4.01067C3.45277 7.74372 3 8.1816 3 8.72055V13.2786C3 13.8178 3.45277 14.2554 4.01067 14.2554Z" fill="white"/>
<path fill-rule="evenodd" clip-rule="evenodd" d="M17.6531 11C17.6531 9.52848 17.1713 8.0927 16.2754 6.90093C15.3961 5.72889 14.1666 4.84006 12.7553 4.35498L12.4361 4.24564C12.2609 4.18564 12.1693 3.99924 12.2313 3.83016L12.457 3.21628C12.5194 3.04694 12.7123 2.9584 12.8872 3.01867L13.2034 3.12747C14.874 3.70056 16.3259 4.74886 17.3669 6.13584C18.4278 7.54895 19.0006 9.25167 19.0006 11C19.0006 12.7451 18.4278 14.4478 17.3669 15.8609C16.3259 17.2479 14.874 18.2994 13.2034 18.8725L12.8872 18.9813C12.7123 19.0416 12.5194 18.953 12.457 18.7837L12.2313 18.1698C12.1693 18.0008 12.2609 17.8143 12.4361 17.7543L12.7553 17.645C14.1666 17.1599 15.3961 16.2711 16.2754 15.0991C17.1713 13.9073 17.6531 12.4715 17.6531 11Z" fill="white"/>
<path d="M12.6774 7.66294L12.3752 7.51627C12.2091 7.43547 12.1421 7.23946 12.2257 7.07893L12.5295 6.49517C12.6128 6.33464 12.8153 6.2701 12.9814 6.35117L13.2802 6.49731C14.1596 6.92399 14.9073 7.55867 15.4597 8.3435C16.0054 9.12806 16.302 10.0526 16.3053 11.0001C16.302 11.9476 16.0054 12.869 15.4597 13.6535C14.9073 14.4381 14.1596 15.073 13.2802 15.4997L12.9814 15.6456C12.8153 15.7267 12.6128 15.6624 12.5292 15.5019L12.226 14.921C12.1424 14.7605 12.2091 14.5648 12.3752 14.484L12.6774 14.3373C13.3478 14.0117 13.9203 13.5234 14.3447 12.9242C14.739 12.3546 14.9545 11.6871 14.9578 11.0001C14.9545 10.3132 14.739 9.64247 14.3447 9.07606C13.9203 8.47364 13.3478 7.98856 12.6774 7.66294Z" fill="white"/>
</g>
</g>
<defs>
<clipPath id="clip0_2_2984">
<rect width="22" height="22" fill="white"/>
</clipPath>
</defs>
</svg>
