<svg width="30" height="30" viewBox="0 0 30 30" fill="none" xmlns="http://www.w3.org/2000/svg">
<path d="M25.2143 7H18.1271H18.1193H4.78571C4.35357 7 4 7.36 4 7.8V12.6C4 13.04 4.35357 13.4 4.78571 13.4C5.65 13.4 6.35714 14.12 6.35714 15C6.35714 15.88 5.65 16.6 4.78571 16.6C4.35357 16.6 4 16.96 4 17.4V22.2C4 22.64 4.35357 23 4.78571 23H18.1271H18.135H25.2143C25.6464 23 26 22.64 26 22.2V17.4C26 16.96 25.6464 16.6 25.2143 16.6C24.35 16.6 23.6429 15.88 23.6429 15C23.6429 14.12 24.35 13.4 25.2143 13.4C25.6464 13.4 26 13.04 26 12.6V7.8C26 7.36 25.6464 7 25.2143 7ZM24.4286 11.904C23.0771 12.264 22.0714 13.512 22.0714 15C22.0714 16.488 23.0771 17.744 24.4286 18.096V21.4H18.9207L18.9286 19.808C18.9286 19.368 18.5829 19.008 18.1507 19C18.1507 19 18.1507 19 18.1429 19C17.7107 19 17.3571 19.352 17.3571 19.792L17.3493 21.4H5.57143V18.096C6.92286 17.736 7.92857 16.488 7.92857 15C7.92857 13.512 6.92286 12.256 5.57143 11.904V8.6H17.3493L17.3571 10.208C17.3571 10.648 17.7107 11 18.1429 11C18.1429 11 18.1429 11 18.1507 11C18.5829 11 18.9364 10.64 18.9286 10.192L18.9207 8.6H24.4286V11.904Z" fill="#090909"/>
<path d="M19 13C18.45 13 18 13.375 18 13.8333V17.1667C18 17.625 18.45 18 19 18C19.55 18 20 17.625 20 17.1667V13.8333C20 13.375 19.55 13 19 13Z" fill="#090909"/>
</svg>
