<svg width="22" height="22" viewBox="0 0 22 22" fill="none" xmlns="http://www.w3.org/2000/svg">
<g opacity="0.5">
<path fill-rule="evenodd" clip-rule="evenodd" d="M3 5.90909C3 4.30244 4.30244 3 5.90909 3H16.0909C17.6975 3 19 4.30244 19 5.90909V8.09091H7C8.00415 8.09091 8.81818 7.27688 8.81818 6.27273C8.81818 5.26857 8.00415 4.45455 7 4.45455C5.99585 4.45455 5.18182 5.26857 5.18182 6.27273C5.18182 7.27688 5.99585 8.09091 7 8.09091H3V5.90909ZM3 9.54545V16.0909C3 17.6975 4.30244 19 5.90909 19H16.0909C17.6975 19 19 17.6975 19 16.0909V9.54545H3ZM10.2727 7H16.0909V5.54545H10.2727V7Z" fill="white"/>
</g>
</svg>
