<svg width="22" height="22" viewBox="0 0 22 22" fill="none" xmlns="http://www.w3.org/2000/svg">
<g opacity="0.5">
<path d="M17.679 7.34705C17.5314 7.3469 17.3853 7.37613 17.2491 7.43305C17.113 7.48996 16.9895 7.57342 16.886 7.67855L16.5805 7.98405H15.664L14.949 7.10005V6.31356C14.9931 6.27508 15.0324 6.23144 15.066 6.18356L15.6575 5.44256H16.574L16.8795 5.75456C16.983 5.85969 17.1065 5.94315 17.2426 6.00006C17.3788 6.05698 17.5249 6.08621 17.6725 6.08606C17.8202 6.08694 17.9665 6.05804 18.1028 6.00109C18.239 5.94413 18.3624 5.86028 18.4655 5.75456C18.5708 5.6511 18.6545 5.52769 18.7116 5.39154C18.7687 5.25538 18.7981 5.10921 18.7981 4.96156C18.7981 4.81391 18.7687 4.66775 18.7116 4.53159C18.6545 4.39544 18.5708 4.27203 18.4655 4.16857L17.8155 3.51857C17.6097 3.31455 17.3317 3.20007 17.042 3.20007H15.131C14.962 3.20146 14.7954 3.24072 14.6436 3.31496C14.4917 3.3892 14.3584 3.49654 14.2535 3.62907L12.9535 5.36456H9.14453C8.89905 4.92386 8.55181 4.54821 8.13173 4.2689C7.71164 3.9896 7.23089 3.81475 6.72954 3.7589C6.22818 3.70305 5.72074 3.76784 5.24949 3.94786C4.77825 4.12788 4.35685 4.41791 4.02042 4.7938C3.68398 5.16968 3.44226 5.62053 3.31538 6.10877C3.1885 6.59701 3.18015 7.10851 3.29102 7.60063C3.40189 8.09275 3.62877 8.55125 3.95275 8.93792C4.27673 9.32459 4.68843 9.62823 5.15355 9.82354L7.36354 15.94L7.85104 14.068C7.92412 13.7909 8.08675 13.5456 8.31363 13.3705C8.54051 13.1953 8.81891 13.1001 9.10553 13.0995H10.8085L8.89103 8.79654C9.06195 8.57379 9.20189 8.3289 9.30703 8.06855H12.9145V8.17905L14.2535 9.81054C14.3587 9.94223 14.4922 10.0486 14.6441 10.1217C14.796 10.1948 14.9624 10.2329 15.131 10.233H17.042C17.3398 10.2319 17.625 10.1127 17.835 9.90154L18.485 9.25154C18.6414 9.0943 18.7478 8.89431 18.7908 8.67675C18.8339 8.45918 18.8116 8.23374 18.7269 8.02879C18.6421 7.82384 18.4986 7.64854 18.3145 7.52492C18.1303 7.4013 17.9138 7.33489 17.692 7.33405L17.679 7.34705ZM6.36904 8.12705C6.12295 8.12833 5.88203 8.05645 5.67687 7.92053C5.47172 7.78461 5.31158 7.59078 5.21681 7.36366C5.12204 7.13655 5.09691 6.88639 5.14461 6.64496C5.1923 6.40353 5.31068 6.18172 5.48469 6.0077C5.65871 5.83369 5.88052 5.71531 6.12195 5.66762C6.36338 5.61992 6.61354 5.64505 6.84065 5.73983C7.06777 5.8346 7.2616 5.99473 7.39752 6.19988C7.53344 6.40504 7.60532 6.64596 7.60404 6.89205C7.60233 7.21907 7.47167 7.5322 7.24043 7.76344C7.00919 7.99468 6.69606 8.12534 6.36904 8.12705Z" fill="white"/>
<path d="M13.7463 18.397L12.6673 14.2825C12.6511 14.2138 12.6121 14.1525 12.5566 14.1089C12.5011 14.0652 12.4324 14.0416 12.3618 14.042H9.11181C9.04036 14.0413 8.97075 14.0646 8.91417 14.1082C8.85758 14.1519 8.8173 14.2132 8.79981 14.2825L7.75332 18.397C7.74162 18.445 7.74081 18.495 7.75093 18.5434C7.76105 18.5917 7.78185 18.6372 7.81181 18.6765C7.84141 18.7155 7.87978 18.7471 7.92382 18.7685C7.96786 18.79 8.01633 18.8007 8.06531 18.8H13.4538C13.5031 18.8011 13.552 18.7905 13.5965 18.769C13.641 18.7476 13.6797 18.7159 13.7095 18.6765C13.7393 18.6372 13.7594 18.5914 13.768 18.5428C13.7767 18.4942 13.7737 18.4442 13.7593 18.397H13.7463ZM10.7433 17.5C10.5528 17.5 10.3665 17.4434 10.2082 17.3374C10.0498 17.2314 9.92654 17.0808 9.85393 16.9046C9.78131 16.7285 9.76264 16.5347 9.80029 16.3479C9.83794 16.1611 9.93021 15.9897 10.0654 15.8555C10.2006 15.7212 10.3726 15.6301 10.5596 15.5937C10.7467 15.5573 10.9403 15.5773 11.116 15.6511C11.2916 15.7249 11.4414 15.8492 11.5463 16.0083C11.6513 16.1673 11.7066 16.354 11.7053 16.5445C11.7053 16.6705 11.6804 16.7953 11.6319 16.9117C11.5835 17.028 11.5126 17.1336 11.4231 17.2224C11.3337 17.3113 11.2276 17.3815 11.1109 17.4291C10.9943 17.4768 10.8693 17.5008 10.7433 17.5Z" fill="white"/>
</g>
</svg>
