<svg width="22" height="22" viewBox="0 0 22 22" fill="none" xmlns="http://www.w3.org/2000/svg">
<path d="M6.68755 16.1751C5.61139 16.1751 4.57931 15.7662 3.81835 15.0383C3.05739 14.3104 2.62988 13.3232 2.62988 12.2938C2.62988 11.2645 3.05739 10.2772 3.81835 9.54937C4.57931 8.82149 5.61139 8.41258 6.68755 8.41258C6.94172 7.28027 7.68526 6.28521 8.75461 5.64629C9.82396 5.00738 11.1315 4.77695 12.3896 5.0057C13.6478 5.23445 14.7534 5.90364 15.4633 6.86605C16.1732 7.82846 16.4292 9.00527 16.1751 10.1376H17.0376C17.8382 10.1376 18.606 10.4556 19.1721 11.0217C19.7383 11.5879 20.0563 12.3557 20.0563 13.1563C20.0563 13.9569 19.7383 14.7248 19.1721 15.2909C18.606 15.857 17.8382 16.1751 17.0376 16.1751H16.1751" stroke="#D4D4D5" stroke-width="1.3" stroke-linecap="round" stroke-linejoin="round"/>
<path d="M8.4126 13.5875L11.0001 11L13.5876 13.5875" stroke="#D4D4D5" stroke-width="1.3" stroke-linecap="round" stroke-linejoin="round"/>
<path d="M11 11V18.7625" stroke="#D4D4D5" stroke-width="1.3" stroke-linecap="round" stroke-linejoin="round"/>
</svg>
