<svg width="22" height="22" viewBox="0 0 22 22" fill="none" xmlns="http://www.w3.org/2000/svg">
<g opacity="0.5">
<path d="M17.864 18.4941C18.0008 18.494 18.1337 18.4491 18.2425 18.3661C18.3512 18.2832 18.4297 18.1668 18.4659 18.0349C18.502 17.903 18.4939 17.7628 18.4427 17.636C18.3915 17.5092 18.3 17.4027 18.1824 17.3329C17.1336 16.7086 14.2869 14.6485 13.775 12.7694C13.7002 12.5131 13.5453 12.2875 13.333 12.1257C13.1206 11.9639 12.862 11.8745 12.5951 11.8705H9.44243C9.15803 11.8764 8.88419 11.9792 8.66621 12.162C8.44824 12.3448 8.29922 12.5965 8.24381 12.8755C7.87549 14.686 4.92888 16.7024 3.8239 17.3267C3.70047 17.391 3.6021 17.4948 3.54441 17.6215C3.48673 17.7482 3.47303 17.8905 3.50551 18.0259C3.5409 18.1632 3.62201 18.2844 3.73548 18.3695C3.84896 18.4546 3.98803 18.4986 4.1298 18.4941H17.864ZM9.41746 13.2376C9.42668 13.2046 9.44615 13.1753 9.47307 13.1539C9.49999 13.1326 9.53298 13.1204 9.56729 13.119H12.4515C12.4852 13.119 12.5181 13.13 12.5451 13.1502C12.5721 13.1705 12.5918 13.199 12.6013 13.2314C12.7061 13.5648 12.8485 13.8853 13.0258 14.1865C13.0414 14.2245 13.0414 14.2672 13.0258 14.3052C13.014 14.3465 12.9873 14.3821 12.9509 14.405C12.8042 14.4807 12.6812 14.5953 12.5953 14.7362C12.5094 14.8772 12.4639 15.0391 12.464 15.2041V15.4975C12.4713 15.5589 12.4656 15.6211 12.4472 15.6801C12.4287 15.739 12.398 15.7934 12.357 15.8397C12.316 15.8859 12.2657 15.9229 12.2093 15.9482C12.153 15.9736 12.0919 15.9867 12.0301 15.9867C11.9683 15.9867 11.9072 15.9736 11.8509 15.9482C11.7945 15.9229 11.7442 15.8859 11.7032 15.8397C11.6622 15.7934 11.6314 15.739 11.613 15.6801C11.5946 15.6211 11.5888 15.5589 11.5962 15.4975C11.5773 15.2696 11.4734 15.0572 11.3051 14.9023C11.1369 14.7474 10.9166 14.6614 10.6879 14.6614C10.4592 14.6614 10.2389 14.7474 10.0706 14.9023C9.90235 15.0572 9.79846 15.2696 9.77955 15.4975V16.1218C9.77955 16.198 9.74929 16.271 9.69544 16.3249C9.64158 16.3787 9.56854 16.409 9.49238 16.409C9.41621 16.409 9.34317 16.3787 9.28932 16.3249C9.23546 16.271 9.20521 16.198 9.20521 16.1218C9.20317 15.932 9.14192 15.7476 9.03 15.5942C8.91809 15.4409 8.76109 15.3263 8.58093 15.2665C8.55368 15.2546 8.53103 15.2342 8.51639 15.2083C8.50176 15.1824 8.49592 15.1525 8.49977 15.123C8.48882 15.1017 8.48311 15.0782 8.48311 15.0543C8.48311 15.0304 8.48882 15.0069 8.49977 14.9856C8.92079 14.4711 9.23299 13.8764 9.41746 13.2376Z" fill="white"/>
<path d="M4.75394 9.75412H8.81177C8.89455 9.75412 8.97395 9.72124 9.03249 9.6627C9.09102 9.60416 9.12391 9.52477 9.12391 9.44198C9.12391 9.23502 9.04169 9.03654 8.89535 8.89019C8.749 8.74385 8.55052 8.66163 8.34356 8.66163C8.21938 8.66163 8.10029 8.6123 8.01248 8.52449C7.92467 8.43669 7.87535 8.3176 7.87535 8.19342C7.87535 8.06924 7.92467 7.95015 8.01248 7.86234C8.10029 7.77454 8.21938 7.72521 8.34356 7.72521C8.79887 7.72521 9.23554 7.90608 9.5575 8.22804C9.87946 8.55 10.0603 8.98667 10.0603 9.44198V10.6905C10.0603 10.7733 10.0932 10.8527 10.1518 10.9113C10.2103 10.9698 10.2897 11.0027 10.3725 11.0027H11.621C11.7038 11.0027 11.7832 10.9698 11.8418 10.9113C11.9003 10.8527 11.9332 10.7733 11.9332 10.6905V9.44198C11.9332 8.98667 12.1141 8.55 12.436 8.22804C12.758 7.90608 13.1946 7.72521 13.65 7.72521C13.7741 7.72521 13.8932 7.77454 13.981 7.86234C14.0688 7.95015 14.1182 8.06924 14.1182 8.19342C14.1182 8.3176 14.0688 8.43669 13.981 8.52449C13.8932 8.6123 13.7741 8.66163 13.65 8.66163C13.443 8.66163 13.2445 8.74385 13.0982 8.89019C12.9518 9.03654 12.8696 9.23502 12.8696 9.44198C12.8696 9.52477 12.9025 9.60416 12.961 9.6627C13.0196 9.72124 13.099 9.75412 13.1817 9.75412H17.2396C17.5707 9.75412 17.8883 9.62258 18.1224 9.38843C18.3566 9.15428 18.4881 8.8367 18.4881 8.50556C18.4741 8.17243 18.3529 7.85273 18.1426 7.59402C17.9322 7.33532 17.644 7.15143 17.3207 7.06971C17.2966 7.06275 17.2755 7.0479 17.2608 7.02753C17.2461 7.00716 17.2386 6.98245 17.2396 6.95734C17.1961 6.25443 16.8763 5.59727 16.3499 5.12939C15.8236 4.66151 15.1335 4.42094 14.4303 4.46021C14.1907 4.45871 13.9518 4.48596 13.7186 4.54137C13.6693 4.55317 13.6177 4.5525 13.5687 4.53942C13.5197 4.52634 13.4746 4.50127 13.4377 4.46646C12.7693 3.8602 11.8992 3.52438 10.9968 3.52438C10.0943 3.52438 9.22424 3.8602 8.55581 4.46646C8.51888 4.50127 8.47386 4.52634 8.42482 4.53942C8.37578 4.5525 8.32425 4.55317 8.27489 4.54137C8.04227 4.48175 7.80333 4.45031 7.5632 4.44773C6.86005 4.40845 6.16992 4.64903 5.64356 5.11691C5.1172 5.58478 4.79737 6.24195 4.75394 6.94485C4.75492 6.96996 4.74746 6.99467 4.73275 7.01504C4.71804 7.03541 4.69692 7.05027 4.67278 7.05723C4.34754 7.13955 4.05784 7.3253 3.8473 7.58651C3.63675 7.84772 3.51676 8.17026 3.50537 8.50556C3.50676 8.83617 3.63922 9.15272 3.8737 9.3858C4.10677 9.62027 4.42333 9.75273 4.75394 9.75412Z" fill="white"/>
</g>
</svg>
