<svg width="20" height="20" viewBox="0 0 20 20" fill="none" xmlns="http://www.w3.org/2000/svg">
<path d="M15.8263 6.7545C15.6168 6.66019 15.3843 6.62951 15.1575 6.66628C14.9308 6.70305 14.7198 6.80565 14.5509 6.96133L13.0686 8.3402V7.34052C13.0686 6.79197 12.8507 6.26589 12.4628 5.87801C12.0749 5.49013 11.5488 5.27222 11.0003 5.27222H4.79536C4.24681 5.27222 3.72073 5.49013 3.33284 5.87801C2.94496 6.26589 2.72705 6.79197 2.72705 7.34052V12.856C2.72705 13.4046 2.94496 13.9306 3.33284 14.3185C3.72073 14.7064 4.24681 14.9243 4.79536 14.9243H11.0003C11.5488 14.9243 12.0749 14.7064 12.4628 14.3185C12.8507 13.9306 13.0686 13.4046 13.0686 12.856V11.8563L14.5578 13.2352C14.777 13.4336 15.0618 13.5441 15.3575 13.5454C15.5216 13.5451 15.6838 13.5098 15.8332 13.442C16.0366 13.3598 16.2108 13.2188 16.3336 13.037C16.4564 12.8552 16.5222 12.641 16.5226 12.4217V7.77487C16.5217 7.55472 16.4548 7.33991 16.3307 7.15807C16.2066 6.97623 16.031 6.83568 15.8263 6.7545Z" fill="#8E8E91"/>
</svg>
