<svg width="22" height="22" viewBox="0 0 22 22" fill="none" xmlns="http://www.w3.org/2000/svg">
<g opacity="0.5" clip-path="url(#clip0_2054_1172)">
<path d="M19 9.25859C19 14.2586 11.5864 18.3057 11.2707 18.4729C11.1875 18.5176 11.0945 18.5411 11 18.5411C10.9055 18.5411 10.8125 18.5176 10.7293 18.4729C10.4136 18.3057 3 14.2586 3 9.25859C3.00132 8.08446 3.46833 6.95881 4.29856 6.12858C5.12879 5.29835 6.25445 4.83134 7.42857 4.83002C8.90357 4.83002 10.195 5.4643 11 6.53645C11.805 5.4643 13.0964 4.83002 14.5714 4.83002C15.7456 4.83134 16.8712 5.29835 17.7014 6.12858C18.5317 6.95881 18.9987 8.08446 19 9.25859Z" fill="white"/>
</g>
<defs>
<clipPath id="clip0_2054_1172">
<rect width="22" height="22" fill="white"/>
</clipPath>
</defs>
</svg>
