<svg width="30" height="30" viewBox="0 0 30 30" fill="none" xmlns="http://www.w3.org/2000/svg">
<path d="M12.1842 9C11.6423 9 10.0084 9.67163 9.71524 9.80586C9.4221 9.94008 9.09673 10.3591 8.72754 11.0506C8.35785 11.7422 8.06118 12.5506 7.57917 13.7397C7.09766 14.9288 6.98534 17.2214 7.00146 17.9211C7.01758 18.6208 7.09666 19.1674 7.80431 19.5813C8.51147 19.9946 9.13702 20.4274 9.79532 20.6877C10.4541 20.948 10.9034 21.1353 11.2086 20.875C11.5138 20.6147 11.7148 20.159 11.7148 20.159C11.7148 20.159 12.0039 19.7522 11.4579 19.5083C10.912 19.2638 10.639 19.0928 10.6626 18.8407C10.6868 18.5886 10.7266 18.4503 10.8631 18.483C10.9996 18.5156 11.3214 19.101 12.558 19.3695C13.7945 19.6379 14.9997 19.5976 14.9997 19.5976C14.9997 19.5976 16.2055 19.6384 17.442 19.3695C18.6786 19.101 18.9999 18.5156 19.1364 18.483C19.2729 18.4503 19.3127 18.5886 19.3369 18.8402C19.361 19.0928 19.088 19.2638 18.5421 19.5083C17.9961 19.7522 18.2852 20.159 18.2852 20.159C18.2852 20.159 18.4862 20.6142 18.7914 20.875C19.0961 21.1353 19.5459 20.948 20.2042 20.6877C20.8625 20.4274 21.4885 19.9952 22.1957 19.5813C22.9033 19.1674 22.9824 18.6208 22.9985 17.9211C23.0147 17.2219 22.9023 14.9288 22.4203 13.7397C21.9388 12.5506 21.6416 11.7422 21.272 11.0506C20.9033 10.3591 20.5774 9.94008 20.2848 9.80534C19.9916 9.67163 18.3572 9 17.8153 9C17.2733 9 17.1131 9.38277 17.1131 9.38277L16.9243 9.80586C16.9243 9.80586 15.655 9.56139 15.0083 9.56088C14.3616 9.56088 13.0757 9.80586 13.0757 9.80586L12.8869 9.38226C12.8869 9.38226 12.7267 9 12.1842 9ZM12.2432 14.077H12.2633C13.0536 14.077 13.6937 14.7778 13.6937 15.6418C13.6937 16.5063 13.0536 17.2066 12.2633 17.2066C11.473 17.2066 10.8329 16.5063 10.8329 15.6418C10.8324 14.7859 11.461 14.0888 12.2432 14.077ZM17.7367 14.077H17.7568C18.539 14.0888 19.1671 14.7864 19.1671 15.6418C19.1671 16.5063 18.527 17.2066 17.7367 17.2066C16.9459 17.2066 16.3063 16.5063 16.3063 15.6418C16.3063 14.7778 16.9459 14.077 17.7367 14.077Z" fill="white"/>
</svg>
